<?xml version="1.0" encoding="UTF-8"?>
<svg id="Apple_S" data-name="Layer 1" xmlns="http://www.w3.org/2000/svg" version="1.1" viewBox="0 0 114 110.6">
  <defs>
    <style>
      .cls-1 {
        fill: #a1bd3a;
      }

      .cls-1, .cls-2, .cls-3, .cls-4, .cls-5, .cls-6, .cls-7 {
        stroke-width: 0px;
      }

      .cls-2 {
        fill: #728437;
      }

      .cls-3 {
        fill: #262425;
      }

      .cls-4 {
        fill: #cdd46a;
      }

      .cls-5 {
        fill: #d42f2e;
      }

      .cls-6 {
        fill: #a81f27;
      }

      .cls-7 {
        fill: #fff;
      }

	  #Apple_S:hover #Red_Shadow{
		fill:black;
	  }
    </style>
  </defs>
  <path class="cls-5" d="M74.42,10.93c-6.24,1.39-10.96,5.61-16.24,8.91-2.78,1.74-5.56,2.81-8.5,3.36-10.44-4.2-23.34-3.36-33.19,2.08C6.25,30.94-.26,41.43,0,53.21c.24,10.64,4.97,20.63,11.27,29.01,7.73,10.27,18.16,18.71,29.85,24.05,5.33,2.43,11.05,4.46,16.99,4.33,6.2-.14,12.29-2.37,18.07-4.44,11.38-4.08,21.42-10.02,28.44-20.07,12.54-17.94,12.57-44.4-.36-62.14-6.74-9.25-18.2-15.61-29.85-13.01Z"/>
  <path class="cls-3" d="M54.96,13.34c-.15-1.75-.37-3.5-.62-5.25-.18-1.24-.47-2.52-1.18-3.58-.81-1.19-2.02-2-3.5-2.02-1.69-.01-3.16,1.21-3.8,2.71-1.25,2.93.59,6.51,1.66,9.24.63,1.62,1.33,3.21,1.92,4.85.45,1.25.75,2.64,1.44,3.78,0,.14,0,.27,0,.41-.01,1.17,1,2.15,2.15,2.15,1.23,0,2.08-.99,2.15-2.15.23-3.36.06-6.79-.23-10.14Z"/>
  <path class="cls-1" d="M93.82,7.83c-2.42-2.17-5.29-3.86-8.28-5.12-3.12-1.31-6.55-2.44-9.94-2.68-3.48-.24-6.79.85-9.9,2.31-2.68,1.26-5.27,2.8-7.51,4.77-2.4,2.12-4.61,4.78-5.12,8.02-.18,1.17,4.21.76,4.77.73,2.66-.13,4.75.34,7.38.96,3.26.78,6.58,1.09,9.91.58,3.24-.5,6.16-1.71,9.02-3.27,2.78-1.52,5.54-2.96,8.76-3.22,1.56-.13,1.99-2.1.92-3.07Z"/>
  <path class="cls-2" d="M89.18,7.76c-.82-1.24-2.82-1.18-4.15-1.37-1.02-.15-2.04-.25-3.07-.35.47-.38.95-.81,1.28-1.32.18-.28.39-.58.52-.9.15-.37.07-.73-.11-1.07-.05-.08-.14-.17-.25-.15-.28.07-.52.12-.76.31-.25.2-.4.53-.6.78-.37.48-.71.97-1.13,1.4-.28.28-.6.55-.94.79-3.17-.21-6.36-.25-9.51.18-.07,0-.14.02-.21.03.48-.33.95-.69,1.4-1.07.48-.4.94-.83,1.38-1.27.44-.44.8-.98.54-1.62-.11-.27-.37-.52-.67-.54-.27-.03-.46.02-.69.16-.12.07-.19.19-.24.32,0,0,0,.01-.01.02-.02.05-.14.35-.1.29-.04.06-.35.37-.48.51-.35.37-.71.72-1.09,1.06-.83.73-1.72,1.38-2.65,1.97-.81.51-1.65.96-2.53,1.35-.5.17-.99.35-1.48.55-.37.12-.73.27-1.05.47-.28.14-.56.27-.83.42-1.27.7-2.54,1.39-3.72,2.23-1.05.75-2.36,1.58-3.03,2.7-.29.48.33,1.06.81.86,1.16-.5,2.14-1.52,3.22-2.19.81-.51,1.65-.99,2.52-1.39.35-.08.69-.16,1.05-.19.94-.08,1.88,0,2.8.19,1.82.39,3.56,1.27,4.83,2.64.35.38.9,1.46,1.51.85.77-.77-.45-1.84-.98-2.33-1.39-1.29-3.19-2.18-5.05-2.53-.09-.02-.19-.03-.28-.04,1.91-.58,3.85-1.02,5.87-1.22.55-.05,1.09-.08,1.64-.11.35.18.69.36,1.04.55.69.37,1.32.86,1.9,1.39.59.53,1.13,1.11,1.64,1.71.27.31.52.62.78.94.25.31.49.6.84.77,0,0,.01.02.02.03.09.08.21.12.33.11.22-.02.39-.19.48-.39.23-.55-.33-1.13-.66-1.51-.65-.77-1.33-1.52-2.07-2.22-.56-.53-1.18-1-1.83-1.42,1.68.02,3.36.13,5.04.32,1.45.16,2.89.39,4.34.58,1.32.17,3.06.81,4.2-.11.36-.29.43-.77.18-1.16Z"/>
  <path class="cls-4" d="M78.75,2.62c-.04-.1-.11-.17-.2-.23-.05-.05-.11-.09-.17-.13.02.01.04.02.06.04-.04-.02-.07-.04-.11-.07,0,0-.01,0-.02-.01,0,0,0,0,0,0-.05-.04-.11-.08-.17-.11-.07-.03-.15-.05-.23-.07-.06-.02-.11-.04-.16-.07.03.02.06.04.09.06h0c-.12-.08-.25-.15-.41-.17-.04,0-.07,0-.11-.02-.09,0-.17,0-.26,0-.08.02-.17.04-.25.06-.07.04-.14.08-.22.12-.11.07-.18.16-.24.27-.05.07-.09.14-.1.22-.04.08-.05.16-.04.25-.01.09,0,.17.03.25.02.13.07.24.15.34.07.11.15.2.25.28.16.13.35.19.55.23.17.04.34.04.51.03.04,0,.09,0,.13-.02.19-.03.33-.07.48-.18.05-.03.13-.12.19-.18.15-.16.25-.37.25-.59.02-.09.02-.19-.02-.29Z"/>
  <path class="cls-4" d="M79.36,4.54s-.03-.06-.06-.08c-.02-.03-.05-.05-.08-.07-.03-.02-.06-.04-.1-.04-.03-.02-.07-.02-.11-.02-.04,0-.07,0-.11.01-.04,0-.07.02-.1.04-.05.02-.09.05-.12.1,0,0,0,0,0,.01,0,0,0,.01-.01.01h0s-.01.03-.02.05c0,0,0,.01-.01.02,0,0,0-.01.01-.02-.02.03-.03.05-.04.08-.01.03-.02.06-.02.09,0,.05,0,.1.02.14.02.03.03.06.05.09,0,0,0,0,0,0,.01.01.03.03.04.04.01.01.02.03.04.04.03.03.07.05.1.06.03.01.07.02.1.03.04,0,.07,0,.11,0,.04,0,.07-.02.11-.03.03-.02.06-.03.09-.05.02-.02.05-.05.08-.07l.05-.09s.02-.07.03-.1c.01-.06,0-.11,0-.16,0-.04-.02-.07-.04-.1Z"/>
  <path class="cls-4" d="M83.37,10.1c-.09-.21-.25-.39-.46-.48-.05-.02-.1-.03-.15-.04-.02,0-.05-.02-.07-.02-.02,0-.04-.02-.06-.02-.18-.07-.33-.09-.53-.08-.05,0-.09,0-.14,0-.14-.02-.29-.04-.42-.02-.16.02-.3.09-.45.13.05-.01.11-.03.17-.04-.13.01-.24.06-.35.13-.08.05-.14.12-.18.2-.11.18-.16.43-.06.63.06.13.12.25.19.37.12.2.33.33.55.41.4.14.83.26,1.25.08.14-.07.3-.14.42-.23.25-.18.38-.5.35-.8,0-.07-.02-.14-.05-.2Z"/>
  <path class="cls-4" d="M86.69,10.15c-.03-.09-.08-.16-.15-.22-.06-.07-.13-.12-.21-.16-.11-.05-.23-.07-.36-.06-.04,0-.08.02-.13.02-.18.04-.37.06-.52.18-.05.05-.11.1-.16.15,0,0,0,0-.01.01-.06.07-.09.14-.13.21-.01.02-.02.04-.03.07-.02.05-.05.1-.07.15-.02.06-.04.13-.06.19,0,.07,0,.14,0,.21.02.07.03.13.05.2.03.1.09.18.16.24.04.05.09.1.15.12.05.04.11.07.18.08.06.03.13.04.2.03.1.01.2,0,.3-.05.05-.02.09-.04.14-.06.17-.08.35-.16.46-.32.04-.06.08-.12.12-.19.02-.07.04-.14.07-.21,0-.01,0-.02,0-.04,0-.02,0-.04.01-.06,0-.05.02-.09.03-.14.02-.13,0-.25-.04-.37Z"/>
  <path class="cls-4" d="M87.97,4.14c-.05-.09-.11-.17-.19-.22-.05-.04-.11-.07-.16-.1-.15-.09-.33-.12-.5-.16-.04,0-.08-.02-.12-.03-.17-.04-.34-.03-.5.03-.12.04-.24.12-.35.19-.17.1-.26.32-.26.51,0,.21.08.39.24.53.1.09.2.17.32.23.19.1.42.07.63.07.15,0,.28,0,.43-.05.04-.01.07-.03.1-.04.11-.05.2-.12.28-.21.08-.05.16-.11.2-.21.02-.04.04-.09.04-.13,0-.04,0-.07,0-.11-.02-.12-.07-.22-.16-.3Z"/>
  <path class="cls-4" d="M92.92,7.97c-.14-.18-.31-.32-.51-.42-.11-.04-.23-.08-.34-.11-.12-.01-.25-.01-.37-.01.07-.07.14-.14.19-.23.06-.12.08-.25.06-.39,0-.01,0-.03,0-.04,0-.08-.03-.15-.05-.23-.05-.13-.14-.27-.26-.35-.04-.03-.07-.05-.11-.08-.12-.09-.25-.15-.4-.18-.08,0-.15,0-.23,0-.15.02-.29.07-.42.16-.09.06-.17.14-.21.24-.07.09-.11.19-.12.3-.02.12-.02.23.02.34.02.11.06.21.13.3.09.12.2.21.33.27.04.02.09.03.13.05l.14.04s-.02.01-.03.02c-.2.08-.36.2-.5.36-.06.09-.12.18-.17.27-.09.2-.12.4-.1.61.02.21.1.41.22.58.07.08.14.16.22.23.17.13.35.22.56.26.03,0,.06.02.09.02l.17.04c.16.04.34.04.5.01.03,0,.06-.01.09-.02.12-.02.24-.05.36-.09.11-.05.21-.11.32-.17.18-.14.32-.31.42-.51.1-.21.13-.44.11-.67-.02-.24-.11-.45-.24-.64Z"/>
  <path class="cls-4" d="M75.45,12.59c-.08-.2-.11-.23-.24-.36-.04-.05-.09-.08-.14-.11-.01-.01-.02-.02-.03-.03.01,0,.02.01.03.02-.02-.01-.04-.03-.06-.05-.03-.04-.07-.07-.1-.11-.11-.1-.24-.16-.38-.19l.09.03s-.06-.02-.08-.04c-.17-.08-.35-.11-.54-.09-.14,0-.27.05-.39.13-.12.05-.23.14-.31.25-.11.14-.19.3-.22.48,0,.02,0,.03-.01.05,0,0,0,.02,0,.02,0,.1,0,.21-.01.32v.03h0c.02.11.05.21.07.31.05.09.1.17.14.26.07.07.13.14.2.21,0,0,0,0,0,0,0,0,0,0,.01.01,0,0,.02.01.03.02.05.03.1.06.15.09.05.03.1.06.15.09.02.01.04.02.06.03.01,0,.02,0,.03.01.1.03.2.06.3.09.01,0,.02,0,.03,0,.05.01.1.01.15,0,.1.02.2,0,.29-.03.1-.01.19-.05.27-.1.04-.02.09-.05.13-.07.07-.07.14-.13.2-.19.1-.11.16-.23.19-.38.04-.09.06-.18.05-.28.02-.15,0-.29-.07-.43Z"/>
  <path class="cls-4" d="M73.09,10.11c-.03-.07-.07-.13-.13-.18-.07-.09-.16-.15-.26-.19-.21-.08-.45-.11-.66-.02,0,0,0,0,0,0-.02,0-.04,0-.05,0h-.04c-.14,0-.24.05-.36.11,0,0-.01,0-.02,0-.07.03-.14.06-.2.11-.09.06-.16.14-.2.23-.06.09-.1.18-.12.29,0,.07,0,.14,0,.22.02.15.07.28.15.4.05.07.11.14.18.18.08.05.15.1.23.14.01,0,.02.01.03.02.07.02.15.05.22.07.08,0,.17,0,.25,0,.09,0,.2-.04.3-.07.11-.04.22-.11.32-.16.04-.02.09-.05.12-.08.16-.13.31-.33.34-.55,0-.08,0-.15,0-.23,0-.12-.04-.22-.1-.32Z"/>
  <path class="cls-4" d="M75.94,3.24c-.02-.06-.06-.11-.11-.15-.04-.05-.1-.08-.16-.12-.02-.08-.06-.14-.14-.16-.08-.02-.14,0-.2.05-.09,0-.18,0-.27,0-.2.02-.38.13-.52.28-.08.11-.14.22-.16.36-.02.1-.02.21.02.3.02.1.05.19.12.27.06.08.13.15.22.19.08.06.17.1.27.11.14.02.27,0,.4-.04.05-.01.1-.03.15-.04.06-.03.11-.06.17-.09.05-.04.09-.09.14-.13.03-.05.07-.11.1-.16.05-.09.07-.19.06-.29.01-.07,0-.13-.02-.2,0-.07-.03-.13-.07-.18Z"/>
  <path id="Red_Shadow" class="cls-6" d="M104.63,86.08c4.44-6.36,7.3-13.78,8.59-21.51-1.85,3.49-3.97,6.84-6.35,10-2.93,3.9-6.29,7.55-10.42,10.15-3.76,2.36-8.03,3.77-12.31,4.95-5.15,1.43-10.4,2.58-15.73,2.92-18.51,1.19-37.35-8.15-47.6-23.6-8.07-12.16-10.55-27.72-7.21-41.89C5.05,33.03-.23,42.59,0,53.21c.24,10.64,4.97,20.63,11.27,29.01,7.73,10.27,18.16,18.71,29.85,24.05,5.33,2.43,11.05,4.46,16.99,4.33,6.2-.14,12.29-2.37,18.07-4.44,11.38-4.08,21.42-10.02,28.45-20.07Z"/>
  <path class="cls-7" d="M95.31,17.48c-.07-.17-.19-.5-.31-.72-.14-.18-.28-.36-.42-.54-.02-.02-.04-.03-.05-.05-.22-.2-.46-.39-.71-.55-.24-.16-.55-.26-.84-.33-.38-.09-.78-.17-1.16-.16-.1,0-.2,0-.3,0-.41.02-.8.11-1.15.32-.67.4-1.08,1.12-1.09,1.9,0,.12.05.5.08.62.08.18.15.36.23.54,0,.01.02.02.02.04.03.05.07.1.1.16.17.26.35.52.57.74.07.07.14.14.2.21.09.1.19.18.29.27-.03-.02-.05-.04-.08-.06.23.18.42.39.69.55.07.04.13.07.19.12-.07-.05-.13-.1-.19-.15.07.08.15.14.25.18.4.23.83.35,1.29.35.46,0,.89-.12,1.29-.35.38-.23.69-.53.91-.91.23-.4.35-.83.35-1.29.02-.29-.04-.6-.15-.88Z"/>
  <path class="cls-7" d="M95.78,26.38c-.07-.18-.15-.36-.23-.54-.02-.05-.05-.1-.07-.15-.04-.07-.09-.14-.15-.2-.04-.08-.09-.14-.16-.19-.12-.1-.28-.21-.39-.3-.17-.13-.35-.24-.54-.34-.23-.14-.49-.2-.76-.21-.19,0-.36.05-.53.11,0,0,0,0-.01,0-.1.04-.2.08-.3.13-.15.08-.26.19-.35.32-.04.04-.06.1-.09.15h0s-.06.08-.07.12c-.06.11-.09.24-.1.36,0,.04-.03.07-.03.1-.04.13-.04.27,0,.4,0,.2.07.39.18.56,0,0,0,.02.01.02.01.02.02.04.03.06,0,0,0,0,0,.01.01.03.02.06.04.1.06.18.11.35.21.52.06.1.14.2.22.29.11.18.24.33.42.45.06.06.12.11.19.14.28.18.55.21.88.23.3,0,.57-.08.83-.22.25-.15.44-.34.59-.59,0,0,.01-.02.02-.03.06-.13.11-.27.17-.4.02-.16.05-.32.06-.47-.02-.15-.04-.3-.06-.45Z"/>
  <path class="cls-7" d="M101.98,26.55c-.09-.23-.18-.46-.3-.67-.18-.32-.46-.54-.77-.73-.3-.18-.61-.32-.97-.33-.74,0-1.36.63-1.37,1.37,0,.23.05.39.12.56.08.21.14.44.25.63.08.14.18.26.29.38.09.12.17.25.27.36.18.18.44.33.69.4.12.04.28.05.43.06.18.02.37-.01.56-.09.17-.07.3-.17.41-.29,0,0,0,.01-.01.02,0,0,.01-.02.02-.02.02-.02.04-.05.06-.07.16-.2.31-.39.37-.66.07-.3.08-.62-.04-.91Z"/>
  <path class="cls-7" d="M103.71,34.35s0-.03-.01-.04c-.03-.11-.06-.23-.09-.34-.02-.08-.05-.16-.1-.23-.07-.22-.2-.42-.37-.58-.11-.11-.26-.22-.39-.31-.04-.03-.08-.05-.12-.08-.09-.06-.19-.12-.28-.18-.45-.29-1.08-.27-1.54,0-.45.26-.78.79-.76,1.32,0,.1,0,.21.01.31,0,.05,0,.1,0,.15,0,.16.03.38.08.53.06.14.12.29.18.43.09.12.19.24.28.36.08.08.17.16.25.25.07.07.13.11.21.17.11.1.23.18.37.22.13.08.27.11.42.11.29.04.18.04.46,0,.25-.03.36-.03.61-.19.06-.04.28-.2.33-.26.07-.07.22-.26.27-.35.06-.13.11-.27.17-.4l.06-.45-.06-.45Z"/>
</svg>