<?xml version="1.0" encoding="UTF-8"?>
<svg id="apple" data-name="Layer 1" xmlns="http://www.w3.org/2000/svg" version="1.1" viewBox="0 0 600 600">
  <defs>
    <style>
      .cls-1 {
        fill: #a1bd3a;
      }

      .cls-1, .cls-2, .cls-3, .cls-4, .cls-5, .cls-6, .cls-7 {
        stroke-width: 0px;
      }

      .cls-2 {
        fill: #728437;
      }

      .cls-3 {
        fill: #262425;
      }

      .cls-4 {
        fill: #cdd46a;
      }

      .cls-5 {
        fill: #d42f2e;
      }

      .cls-6 {
        fill: #a81f27;
      }

      .cls-7 {
        fill: #fff;
      }

     #apple :hover#Red_shadow {
  fill: black;
}

    </style>
  </defs>
  <path id="Red_body" class="cls-5" d="M528.72,148.26c62.56,85.84,62.41,213.86,1.75,300.68-33.98,48.63-82.59,77.37-137.63,97.13-27.93,10.03-57.43,20.84-87.41,21.49-28.74.63-56.41-9.17-82.19-20.95-56.59-25.86-107.05-66.67-144.45-116.37-30.5-40.53-53.37-88.85-54.55-140.35-1.3-57,30.2-107.76,79.76-135.14,47.64-26.32,110.04-30.36,160.58-10.05,14.23-2.67,27.71-7.88,41.15-16.28,25.53-15.96,48.37-36.36,78.57-43.1,56.38-12.59,111.81,18.17,144.43,62.95Z"/>
  <path id="Stem" class="cls-3" d="M290.11,96.95c-.74-8.49-1.77-16.95-2.99-25.38-.87-6.01-2.27-12.21-5.73-17.33-3.9-5.77-9.79-9.7-16.93-9.76-8.2-.07-15.27,5.86-18.36,13.11-6.06,14.19,2.87,31.48,8.05,44.72,3.06,7.83,6.41,15.54,9.27,23.44,2.2,6.07,3.63,12.76,6.98,18.3,0,.66,0,1.32,0,1.98-.06,5.64,4.83,10.43,10.43,10.43,5.97,0,10.04-4.79,10.43-10.43,1.12-16.25.28-32.87-1.14-49.08Z"/>
  <path id="Leaf" class="cls-1" d="M478.14,70.32c-11.72-10.5-25.59-18.68-40.06-24.75-15.09-6.33-31.7-11.83-48.1-12.98-16.84-1.19-32.84,4.09-47.9,11.18-12.98,6.11-25.52,13.57-36.32,23.08-11.64,10.25-22.31,23.12-24.78,38.78-.87,5.67,20.35,3.67,23.09,3.53,12.89-.64,23,1.63,35.71,4.67,15.76,3.77,31.83,5.28,47.93,2.78,15.68-2.43,29.81-8.25,43.64-15.84,13.45-7.38,26.81-14.35,42.36-15.59,7.57-.61,9.65-10.18,4.43-14.86Z"/>
  <path id="Leaf_stem" class="cls-2" d="M455.7,69.97c-3.97-6.02-13.64-5.7-20.1-6.64-4.93-.72-9.89-1.23-14.86-1.67,2.27-1.84,4.62-3.94,6.19-6.38.88-1.36,1.9-2.82,2.51-4.34.72-1.79.32-3.55-.55-5.17-.22-.41-.67-.85-1.19-.73-1.37.31-2.53.59-3.66,1.5-1.19.97-1.95,2.55-2.9,3.76-1.8,2.3-3.44,4.67-5.49,6.77-1.34,1.37-2.92,2.64-4.55,3.82-15.31-1-30.79-1.19-46.03.86-.33.04-.67.1-1,.15,2.33-1.62,4.59-3.35,6.76-5.17,2.32-1.95,4.54-4.02,6.68-6.16,2.12-2.12,3.89-4.76,2.6-7.83-.54-1.29-1.78-2.5-3.24-2.63-1.33-.13-2.23.1-3.34.77-.58.35-.94.92-1.15,1.56-.01.03-.04.06-.06.09-.12.25-.66,1.71-.46,1.4-.18.29-1.67,1.79-2.31,2.46-1.68,1.79-3.44,3.5-5.28,5.13-4,3.54-8.3,6.69-12.82,9.53-3.92,2.47-8,4.63-12.23,6.51-2.42.81-4.81,1.7-7.17,2.68-1.79.6-3.54,1.31-5.06,2.27-1.35.65-2.69,1.31-4.01,2.03-6.16,3.36-12.27,6.74-17.99,10.8-5.09,3.61-11.4,7.65-14.66,13.06-1.4,2.33,1.61,5.14,3.92,4.14,5.59-2.44,10.35-7.35,15.56-10.62,3.93-2.47,7.99-4.77,12.2-6.75,1.67-.4,3.35-.75,5.1-.9,4.54-.38,9.08-.04,13.53.92,8.79,1.91,17.21,6.14,23.36,12.79,1.71,1.84,4.35,7.08,7.31,4.11,3.71-3.73-2.2-8.88-4.75-11.27-6.71-6.26-15.42-10.57-24.43-12.23-.45-.08-.91-.13-1.36-.2,9.25-2.79,18.62-4.92,28.38-5.88,2.65-.26,5.29-.38,7.94-.52,1.67.88,3.35,1.75,5.02,2.64,3.35,1.8,6.39,4.16,9.22,6.71,2.85,2.56,5.45,5.36,7.94,8.27,1.28,1.5,2.54,3.02,3.77,4.56,1.19,1.48,2.4,2.9,4.05,3.74.04.04.06.11.11.15.44.38,1.04.57,1.62.51,1.07-.11,1.91-.93,2.31-1.89,1.11-2.69-1.61-5.46-3.18-7.31-3.17-3.73-6.45-7.37-10.02-10.73-2.73-2.57-5.7-4.84-8.83-6.89,8.14.1,16.27.64,24.38,1.55,7.02.79,14,1.88,21,2.8,6.37.83,14.81,3.91,20.35-.52,1.74-1.41,2.09-3.74.85-5.61Z"/>
  <path id="Green_dots" class="cls-4" d="M405.31,46.53c0,1.06-.48,2.07-1.2,2.85-.28.3-.7.72-.92.89-.75.55-1.42.73-2.33.88-.21.04-.43.06-.64.07-.81.04-1.67.03-2.47-.14-.96-.2-1.88-.5-2.66-1.13-.47-.37-.88-.83-1.19-1.34-.39-.49-.63-1.05-.72-1.65-.15-.4-.19-.8-.13-1.22-.04-.42.02-.81.19-1.2.07-.4.23-.76.49-1.07.28-.54.66-.98,1.17-1.32.35-.19.7-.38,1.05-.58.4-.1.8-.19,1.2-.29.41.01.82.02,1.24.04.17.03.34.05.51.07.76.11,1.36.46,1.96.84h0c-.15-.09-.3-.18-.44-.27.25.15.52.25.79.36.37.08.74.17,1.09.32.3.13.55.33.81.52,0,0,.02.01.03.02.03.01.05.04.08.05.16.12.34.22.51.32-.1-.06-.19-.12-.29-.18.29.18.56.39.8.62.4.28.75.6.94,1.1.2.51.18.97.1,1.43ZM408.16,54.39c-.06-.16-.16-.3-.3-.41-.1-.14-.23-.24-.39-.31-.14-.11-.29-.18-.46-.21-.16-.07-.33-.1-.51-.08-.18-.03-.35,0-.52.05-.18.02-.34.08-.48.18-.24.1-.43.26-.59.47-.01.02-.02.04-.04.07-.01.02-.03.05-.05.07l-.02.02c-.05.06-.06.14-.1.2-.02.03-.04.07-.06.11.02-.03.04-.07.06-.1-.07.13-.16.24-.19.38-.06.14-.09.29-.07.45-.03.23,0,.46.1.68.07.15.15.3.24.44,0,.01.02.03.03.04.06.07.13.14.18.19.06.06.12.13.18.19.13.13.32.22.47.3.16.05.33.1.49.15.18,0,.35,0,.53.01.17-.04.34-.08.51-.13.15-.08.3-.16.45-.25.12-.12.24-.23.37-.35l.27-.43c.05-.16.1-.33.15-.49.05-.27.04-.53-.04-.79-.02-.17-.08-.33-.18-.47ZM427.58,81.3c-.44-1.04-1.2-1.89-2.24-2.35-.22-.1-.47-.15-.72-.21-.12-.04-.24-.08-.35-.12-.1-.04-.2-.08-.3-.12-.88-.33-1.61-.45-2.57-.41-.22,0-.44,0-.65.02-.69-.07-1.38-.18-2.05-.1-.76.1-1.43.44-2.16.64.27-.06.53-.13.8-.19-.62.07-1.18.28-1.68.65-.38.26-.67.59-.87.99-.56.9-.75,2.07-.3,3.06.28.61.6,1.2.94,1.78.57.97,1.62,1.62,2.66,1.97,1.95.67,4.03,1.28,6.03.37.7-.31,1.43-.67,2.05-1.11,1.22-.89,1.81-2.41,1.68-3.89-.03-.34-.12-.68-.25-.98ZM443.66,81.55c-.15-.43-.39-.79-.72-1.08-.28-.34-.62-.6-1.04-.77-.56-.25-1.14-.34-1.75-.29-.2.04-.41.08-.61.12-.88.17-1.8.3-2.52.88-.26.25-.52.49-.77.74-.02.02-.04.04-.06.06-.3.34-.45.65-.61,1.02-.05.11-.1.21-.15.32-.11.24-.22.47-.33.71-.09.31-.19.61-.28.92,0,.33-.02.66-.03,1,.08.32.15.64.23.97.16.47.43.87.79,1.19.19.26.44.46.73.6.25.2.54.33.86.39.3.14.62.19.96.15.5.06.99-.01,1.47-.22.22-.1.45-.2.66-.3.83-.37,1.68-.77,2.24-1.52.19-.3.38-.6.56-.91.11-.35.21-.69.31-1.04.01-.05.02-.11.03-.17.02-.1.04-.2.06-.3.04-.22.09-.45.13-.67.1-.61.04-1.2-.18-1.79ZM449.84,52.46c-.23-.42-.52-.81-.91-1.07-.25-.17-.51-.33-.76-.49-.73-.45-1.57-.6-2.4-.77-.2-.04-.4-.09-.6-.13-.81-.17-1.63-.14-2.42.13-.59.2-1.15.6-1.7.91-.84.48-1.25,1.57-1.28,2.47-.03,1.03.37,1.9,1.15,2.57.5.43.96.83,1.57,1.13.94.46,2.02.35,3.04.34.71-.01,1.37-.02,2.07-.27.17-.06.34-.14.5-.21.56-.24.98-.6,1.35-1.01.4-.26.75-.56.97-1.03.08-.18.18-.42.21-.61.03-.19,0-.34-.03-.52-.11-.59-.33-1.05-.75-1.46ZM473.81,70.96c-.65-.89-1.48-1.55-2.48-2.01-.54-.21-1.1-.38-1.66-.51-.6-.05-1.19-.06-1.79-.05.35-.33.7-.66.9-1.11.27-.6.37-1.23.31-1.89,0-.06,0-.13-.01-.19-.03-.37-.13-.75-.26-1.09-.24-.61-.7-1.32-1.24-1.7-.17-.13-.35-.25-.53-.37-.56-.45-1.2-.75-1.92-.87-.37,0-.74-.02-1.1-.03-.74.08-1.41.33-2.01.77-.45.3-.8.7-1.04,1.18-.32.43-.52.92-.59,1.47-.12.56-.08,1.11.1,1.64.08.54.3,1.04.64,1.47.43.58.97,1.02,1.62,1.32.21.08.43.16.64.25l.66.2s-.1.05-.15.07c-.96.38-1.77.97-2.42,1.77-.29.43-.56.88-.82,1.33-.43.95-.59,1.94-.48,2.98.11,1.04.47,1.97,1.08,2.82.34.39.7.76,1.07,1.13.8.65,1.71,1.06,2.73,1.23.14.04.29.07.43.11l.8.2c.79.2,1.64.2,2.43.06.15-.03.3-.05.45-.08.6-.11,1.19-.25,1.77-.42.53-.25,1.04-.53,1.52-.85.88-.65,1.55-1.48,2.01-2.48.46-1.04.64-2.12.53-3.25-.12-1.14-.52-2.16-1.19-3.08ZM389.28,93.35c-.4-.99-.55-1.11-1.15-1.74-.17-.24-.43-.37-.66-.54-.05-.05-.1-.11-.15-.16.05.03.1.06.15.09-.1-.06-.19-.15-.28-.23-.16-.17-.32-.34-.48-.51-.54-.47-1.15-.76-1.82-.92l.43.13c-.15-.04-.28-.1-.41-.18-.83-.37-1.69-.51-2.59-.42-.69.04-1.32.26-1.88.63-.6.27-1.1.66-1.5,1.2-.56.69-.91,1.47-1.06,2.34-.02.08-.04.16-.06.24,0,.04,0,.08-.01.11-.04.5-.04,1.02-.05,1.52v.19c.12.48.23.96.35,1.44.23.42.46.84.69,1.25.32.34.65.68.97,1.02,0,0,.02.01.03.02.02.01.04.03.06.05.04.03.09.07.14.1.23.16.48.3.71.44.22.14.46.3.71.44.09.05.18.09.27.13.05.02.09.04.14.05.47.16.96.31,1.44.44.05.01.1.02.15.04.24.06.48.06.74.02.48.08.96.03,1.42-.15.48-.05.91-.22,1.31-.5.21-.12.42-.23.63-.34.33-.31.66-.62.99-.94.46-.53.77-1.14.92-1.82.2-.44.27-.9.22-1.37.08-.72-.02-1.42-.32-2.1ZM377.85,81.34c-.13-.34-.34-.62-.62-.85-.33-.42-.75-.73-1.26-.94-1.01-.41-2.17-.52-3.2-.09-.01,0-.02,0-.04.01-.09,0-.17.03-.27.03h-.19c-.68.02-1.17.25-1.72.56-.02.01-.05.03-.07.04-.34.16-.69.3-.97.55-.43.3-.76.67-.99,1.12-.3.42-.49.88-.56,1.4,0,.35-.02.7-.03,1.05.07.71.32,1.35.74,1.92.22.36.54.66.89.89.36.25.75.49,1.13.7.05.02.1.05.15.07.36.11.72.22,1.08.33.4.03.8.04,1.2.03.44-.04.97-.2,1.43-.35.54-.18,1.07-.51,1.55-.79.21-.12.42-.26.6-.41.79-.65,1.5-1.59,1.63-2.64,0-.37.02-.74.03-1.1-.02-.57-.19-1.08-.5-1.54ZM391.64,48.08c-.12-.3-.3-.55-.55-.75-.2-.25-.48-.4-.75-.56-.1-.37-.28-.67-.68-.79-.37-.11-.7.02-.97.26-.44-.02-.89,0-1.33.02-.99.08-1.85.62-2.5,1.35-.41.51-.67,1.08-.78,1.72-.1.5-.07,1,.09,1.48.07.49.27.93.58,1.33.28.41.63.72,1.05.93.39.29.83.46,1.32.53.67.11,1.33.04,1.96-.2.24-.07.47-.14.71-.2.28-.15.55-.3.82-.45.22-.21.45-.43.67-.64.16-.26.32-.53.49-.79.22-.44.31-.9.29-1.38.05-.33.02-.65-.1-.96-.03-.33-.15-.62-.34-.89Z"/>
  <path id="Red_shadow" data-name="Red shadow" class="cls-6" d="M530.47,448.94c21.49-30.75,35.35-66.68,41.55-104.06-8.97,16.89-19.21,33.1-30.71,48.38-14.19,18.85-30.44,36.55-50.42,49.1-18.19,11.43-38.87,18.23-59.58,23.98-24.91,6.91-50.32,12.46-76.12,14.12-89.57,5.77-180.71-39.42-230.33-114.21-39.03-58.82-51.03-134.14-34.91-202.7-41.34,28.68-66.89,74.94-65.72,126.33,1.18,51.5,24.05,99.82,54.55,140.35,37.4,49.7,87.87,90.52,144.45,116.37,25.78,11.78,53.45,21.58,82.19,20.95,29.98-.65,59.48-11.46,87.41-21.49,55.05-19.76,103.66-48.49,137.64-97.12Z"/>
  <path id="White_dots" class="cls-7" d="M486.06,121.21c0,2.23-.57,4.3-1.68,6.22-1.09,1.85-2.57,3.32-4.42,4.42-1.92,1.11-4,1.67-6.22,1.68-2.23,0-4.3-.57-6.22-1.68-.46-.19-.85-.52-1.2-.89.31.24.62.48.94.73-.29-.22-.59-.41-.91-.58-1.32-.73-2.24-1.74-3.35-2.64.13.1.26.2.38.3-.49-.41-.99-.81-1.42-1.29-.31-.35-.64-.69-.97-1.03-1.06-1.07-1.96-2.32-2.78-3.59-.16-.26-.33-.5-.49-.76-.04-.06-.07-.12-.11-.17-.36-.86-.73-1.73-1.09-2.59-.15-.56-.39-2.42-.39-3,.04-3.79,2.01-7.25,5.27-9.19,1.72-1.03,3.61-1.46,5.58-1.55.48-.02.97-.02,1.46-.03,1.86-.04,3.79.35,5.61.79,1.4.35,2.88.83,4.07,1.61,1.21.8,2.37,1.71,3.45,2.68.09.08.17.16.26.24.67.87,1.34,1.73,2.01,2.6.58,1.07,1.17,2.67,1.5,3.5.53,1.32.8,2.83.71,4.23ZM487.65,160.07c-.31-.89-.72-1.74-1.09-2.6-.11-.25-.22-.5-.35-.74-.2-.35-.44-.67-.73-.97-.19-.38-.44-.69-.76-.93-.6-.5-1.34-1.04-1.89-1.46-.82-.62-1.68-1.17-2.6-1.63-1.14-.66-2.37-.99-3.69-1-.9,0-1.75.22-2.57.53-.02,0-.03,0-.05.01-.48.2-.97.41-1.45.61-.71.38-1.28.9-1.7,1.56-.21.21-.3.49-.44.75h0c-.11.2-.28.36-.34.59-.29.55-.42,1.15-.47,1.77-.02.17-.14.32-.14.5-.17.65-.17,1.3,0,1.94.04.97.33,1.88.87,2.71.02.04.04.08.06.12.05.1.1.19.15.29,0,.02.02.04.03.06.06.15.12.3.17.46.28.86.54,1.69,1.02,2.49.29.49.67.95,1.05,1.4.51.89,1.17,1.61,2.01,2.16.28.29.59.52.93.7,1.36.85,2.67,1.02,4.23,1.13,1.43,0,2.76-.36,4-1.08,1.19-.71,2.14-1.65,2.84-2.84.03-.04.05-.08.07-.13.28-.65.55-1.3.82-1.95.12-.76.22-1.52.3-2.29-.09-.72-.19-1.45-.29-2.18ZM517.62,160.87c-.45-1.09-.89-2.22-1.47-3.26-.85-1.53-2.25-2.61-3.71-3.52-1.43-.89-2.97-1.56-4.69-1.58-3.6-.04-6.59,3.07-6.62,6.62,0,1.09.25,1.88.59,2.71.41,1,.67,2.15,1.22,3.05.4.66.89,1.25,1.39,1.84.42.6.84,1.22,1.33,1.72.9.9,2.11,1.58,3.33,1.93.6.17,1.34.27,2.08.27.89.07,1.79-.06,2.71-.45.8-.34,1.43-.83,1.96-1.4-.02.03-.04.06-.06.1.03-.04.06-.08.1-.12.1-.11.18-.23.27-.35.79-.96,1.5-1.9,1.78-3.18.32-1.46.37-3-.2-4.38ZM526.02,198.64c-.01-.06-.03-.13-.05-.19-.13-.55-.27-1.1-.43-1.64-.1-.4-.25-.77-.46-1.13-.35-1.07-.95-2.01-1.8-2.79-.55-.52-1.25-1.07-1.88-1.49-.2-.13-.4-.26-.6-.39-.45-.29-.9-.58-1.35-.87-2.2-1.41-5.25-1.29-7.46,0-2.18,1.27-3.76,3.81-3.66,6.38.02.5.04,1.01.06,1.51,0,.24.01.47.03.72.04.76.15,1.83.37,2.57.29.69.58,1.38.88,2.07.45.59.9,1.17,1.35,1.76.39.41.8.79,1.2,1.19.33.33.61.52,1.04.85.51.5,1.11.85,1.8,1.05.63.37,1.32.55,2.05.56,1.38.19.87.18,2.24,0,1.21-.16,1.75-.16,2.96-.94.3-.2,1.36-.99,1.61-1.24.35-.36,1.05-1.26,1.3-1.69.28-.65.55-1.3.82-1.94l.29-2.16-.3-2.17Z"/>
</svg>