<?xml version="1.0" encoding="utf-8"?>
<!-- Generator: Adobe Illustrator 27.8.0, SVG Export Plug-In . SVG Version: 6.00 Build 0)  -->
<svg version="1.1" id="Layer_1" xmlns="http://www.w3.org/2000/svg" xmlns:xlink="http://www.w3.org/1999/xlink" x="0px" y="0px"
	 viewBox="0 0 114 110.6" style="enable-background:new 0 0 114 110.6;" xml:space="preserve">
<style type="text/css">
	.st0{fill:#D42F2E;}
	.st1{fill:#262425;}
	.st2{fill:#A1BD3A;}
	.st3{fill:#CDD46A;}
	.st4{fill:#A81F27;}
	.st5{fill:#FFFFFF;}
</style>
<g id="Apple">
	<path id="Skin" class="st0" d="M74.4,10.9c-6.2,1.4-11,5.6-16.2,8.9c-2.8,1.7-5.6,2.8-8.5,3.4c-10.4-4.2-23.3-3.4-33.2,2.1
		C6.3,30.9-0.3,41.4,0,53.2c0.2,10.6,5,20.6,11.3,29c7.7,10.3,18.2,18.7,29.9,24.1c5.3,2.4,11,4.5,17,4.3c6.2-0.1,12.3-2.4,18.1-4.4
		c11.4-4.1,21.4-10,28.4-20.1c12.5-17.9,12.6-44.4-0.4-62.1C97.5,14.7,86.1,8.3,74.4,10.9z"/>
	<path id="Stem" class="st1" d="M55,13.3c-0.2-1.8-0.4-3.5-0.6-5.2c-0.2-1.2-0.5-2.5-1.2-3.6c-0.8-1.2-2-2-3.5-2
		c-1.7,0-3.2,1.2-3.8,2.7c-1.3,2.9,0.6,6.5,1.7,9.2c0.6,1.6,1.3,3.2,1.9,4.8c0.5,1.3,0.8,2.6,1.4,3.8c0,0.1,0,0.3,0,0.4
		c0,1.2,1,2.2,2.2,2.2c1.2,0,2.1-1,2.2-2.2C55.4,20.1,55.2,16.7,55,13.3z"/>
	<path id="Leaf" class="st2" d="M93.8,7.8c-2.4-2.2-5.3-3.9-8.3-5.1C82.4,1.4,79,0.3,75.6,0c-3.5-0.2-6.8,0.8-9.9,2.3
		c-2.7,1.3-5.3,2.8-7.5,4.8c-2.4,2.1-4.6,4.8-5.1,8c-0.2,1.2,4.2,0.8,4.8,0.7c2.7-0.1,4.8,0.3,7.4,1c3.3,0.8,6.6,1.1,9.9,0.6
		c3.2-0.5,6.2-1.7,9-3.3c2.8-1.5,5.5-3,8.8-3.2C94.5,10.8,94.9,8.8,93.8,7.8z M89.2,7.8c-0.8-1.2-2.8-1.2-4.2-1.4
		C84,6.2,83,6.1,82,6c0.5-0.4,1-0.8,1.3-1.3c0.2-0.3,0.4-0.6,0.5-0.9c0.1-0.4,0.1-0.7-0.1-1.1c0-0.1-0.1-0.2-0.2-0.1
		c-0.3,0.1-0.5,0.1-0.8,0.3c-0.2,0.2-0.4,0.5-0.6,0.8c-0.4,0.5-0.7,1-1.1,1.4c-0.3,0.3-0.6,0.5-0.9,0.8c-3.2-0.2-6.4-0.2-9.5,0.2
		c-0.1,0-0.1,0-0.2,0c0.5-0.3,0.9-0.7,1.4-1.1c0.5-0.4,0.9-0.8,1.4-1.3c0.4-0.4,0.8-1,0.5-1.6c-0.1-0.3-0.4-0.5-0.7-0.5
		c-0.3,0-0.5,0-0.7,0.2C72.1,1.8,72,1.9,72,2.1c0,0,0,0,0,0c0,0.1-0.1,0.4-0.1,0.3c0,0.1-0.3,0.4-0.5,0.5c-0.3,0.4-0.7,0.7-1.1,1.1
		c-0.8,0.7-1.7,1.4-2.6,2c-0.8,0.5-1.7,1-2.5,1.3c-0.5,0.2-1,0.4-1.5,0.6c-0.4,0.1-0.7,0.3-1,0.5c-0.3,0.1-0.6,0.3-0.8,0.4
		c-1.3,0.7-2.5,1.4-3.7,2.2c-1.1,0.7-2.4,1.6-3,2.7c-0.3,0.5,0.3,1.1,0.8,0.9C57,14,58,13,59,12.3c0.8-0.5,1.7-1,2.5-1.4
		c0.3-0.1,0.7-0.2,1.1-0.2c0.9-0.1,1.9,0,2.8,0.2c1.8,0.4,3.6,1.3,4.8,2.6c0.4,0.4,0.9,1.5,1.5,0.8c0.8-0.8-0.5-1.8-1-2.3
		c-1.4-1.3-3.2-2.2-5-2.5c-0.1,0-0.2,0-0.3,0c1.9-0.6,3.8-1,5.9-1.2c0.5-0.1,1.1-0.1,1.6-0.1c0.3,0.2,0.7,0.4,1,0.5
		c0.7,0.4,1.3,0.9,1.9,1.4c0.6,0.5,1.1,1.1,1.6,1.7c0.3,0.3,0.5,0.6,0.8,0.9c0.2,0.3,0.5,0.6,0.8,0.8c0,0,0,0,0,0
		c0.1,0.1,0.2,0.1,0.3,0.1c0.2,0,0.4-0.2,0.5-0.4c0.2-0.6-0.3-1.1-0.7-1.5c-0.7-0.8-1.3-1.5-2.1-2.2c-0.6-0.5-1.2-1-1.8-1.4
		c1.7,0,3.4,0.1,5,0.3c1.5,0.2,2.9,0.4,4.3,0.6c1.3,0.2,3.1,0.8,4.2-0.1C89.4,8.6,89.4,8.1,89.2,7.8z"/>
	<path id="Reflection" class="st3" d="M78.7,2.6c0-0.1-0.1-0.2-0.2-0.2c0,0-0.1-0.1-0.2-0.1c0,0,0,0,0.1,0c0,0-0.1,0-0.1-0.1
		c0,0,0,0,0,0c0,0,0,0,0,0c-0.1,0-0.1-0.1-0.2-0.1c-0.1,0-0.1,0-0.2-0.1c-0.1,0-0.1,0-0.2-0.1c0,0,0.1,0,0.1,0.1h0
		c-0.1-0.1-0.2-0.2-0.4-0.2c0,0-0.1,0-0.1,0c-0.1,0-0.2,0-0.3,0c-0.1,0-0.2,0-0.2,0.1c-0.1,0-0.1,0.1-0.2,0.1
		c-0.1,0.1-0.2,0.2-0.2,0.3c-0.1,0.1-0.1,0.1-0.1,0.2c0,0.1,0,0.2,0,0.2c0,0.1,0,0.2,0,0.3c0,0.1,0.1,0.2,0.1,0.3
		c0.1,0.1,0.1,0.2,0.2,0.3c0.2,0.1,0.4,0.2,0.5,0.2c0.2,0,0.3,0,0.5,0c0,0,0.1,0,0.1,0c0.2,0,0.3-0.1,0.5-0.2c0,0,0.1-0.1,0.2-0.2
		c0.1-0.2,0.2-0.4,0.2-0.6C78.8,2.8,78.8,2.7,78.7,2.6z M79.4,4.5C79.3,4.5,79.3,4.5,79.4,4.5c-0.1-0.1-0.1-0.1-0.1-0.1
		c0,0-0.1,0-0.1,0c0,0-0.1,0-0.1,0c0,0-0.1,0-0.1,0c0,0-0.1,0-0.1,0c0,0-0.1,0.1-0.1,0.1c0,0,0,0,0,0c0,0,0,0,0,0c0,0,0,0,0,0
		c0,0,0,0,0,0c0,0,0,0,0,0c0,0,0,0,0,0c0,0,0,0,0,0.1c0,0,0,0.1,0,0.1c0,0,0,0.1,0,0.1c0,0,0,0.1,0,0.1c0,0,0,0,0,0c0,0,0,0,0,0
		c0,0,0,0,0,0c0,0,0.1,0,0.1,0.1c0,0,0.1,0,0.1,0c0,0,0.1,0,0.1,0c0,0,0.1,0,0.1,0c0,0,0.1,0,0.1-0.1c0,0,0,0,0.1-0.1l0.1-0.1
		c0,0,0-0.1,0-0.1C79.4,4.7,79.4,4.7,79.4,4.5C79.4,4.6,79.4,4.6,79.4,4.5z M83.4,10.1c-0.1-0.2-0.2-0.4-0.5-0.5c0,0-0.1,0-0.1,0
		c0,0,0,0-0.1,0c0,0,0,0-0.1,0c-0.2-0.1-0.3-0.1-0.5-0.1c0,0-0.1,0-0.1,0c-0.1,0-0.3,0-0.4,0c-0.2,0-0.3,0.1-0.4,0.1
		c0.1,0,0.1,0,0.2,0c-0.1,0-0.2,0.1-0.3,0.1c-0.1,0.1-0.1,0.1-0.2,0.2c-0.1,0.2-0.2,0.4-0.1,0.6c0.1,0.1,0.1,0.2,0.2,0.4
		c0.1,0.2,0.3,0.3,0.5,0.4c0.4,0.1,0.8,0.3,1.2,0.1c0.1-0.1,0.3-0.1,0.4-0.2c0.3-0.2,0.4-0.5,0.3-0.8C83.4,10.2,83.4,10.2,83.4,10.1
		z M86.7,10.2c0-0.1-0.1-0.2-0.1-0.2c-0.1-0.1-0.1-0.1-0.2-0.2c-0.1-0.1-0.2-0.1-0.4-0.1c0,0-0.1,0-0.1,0c-0.2,0-0.4,0.1-0.5,0.2
		c-0.1,0.1-0.1,0.1-0.2,0.2c0,0,0,0,0,0c-0.1,0.1-0.1,0.1-0.1,0.2c0,0,0,0,0,0.1c0,0,0,0.1-0.1,0.1c0,0.1,0,0.1-0.1,0.2
		c0,0.1,0,0.1,0,0.2c0,0.1,0,0.1,0,0.2c0,0.1,0.1,0.2,0.2,0.2c0,0.1,0.1,0.1,0.2,0.1c0.1,0,0.1,0.1,0.2,0.1c0.1,0,0.1,0,0.2,0
		c0.1,0,0.2,0,0.3,0c0,0,0.1,0,0.1-0.1c0.2-0.1,0.3-0.2,0.5-0.3c0-0.1,0.1-0.1,0.1-0.2c0-0.1,0-0.1,0.1-0.2c0,0,0,0,0,0
		c0,0,0,0,0-0.1c0,0,0-0.1,0-0.1C86.7,10.4,86.7,10.3,86.7,10.2z M88,4.1c0-0.1-0.1-0.2-0.2-0.2c-0.1,0-0.1-0.1-0.2-0.1
		c-0.1-0.1-0.3-0.1-0.5-0.2c0,0-0.1,0-0.1,0c-0.2,0-0.3,0-0.5,0c-0.1,0-0.2,0.1-0.4,0.2c-0.2,0.1-0.3,0.3-0.3,0.5
		c0,0.2,0.1,0.4,0.2,0.5c0.1,0.1,0.2,0.2,0.3,0.2c0.2,0.1,0.4,0.1,0.6,0.1c0.1,0,0.3,0,0.4-0.1c0,0,0.1,0,0.1,0
		c0.1,0,0.2-0.1,0.3-0.2C88,4.8,88,4.8,88.1,4.7c0,0,0-0.1,0-0.1c0,0,0-0.1,0-0.1C88.1,4.3,88.1,4.2,88,4.1z M92.9,8
		c-0.1-0.2-0.3-0.3-0.5-0.4c-0.1,0-0.2-0.1-0.3-0.1c-0.1,0-0.2,0-0.4,0c0.1-0.1,0.1-0.1,0.2-0.2C91.9,7.1,92,7,91.9,6.8c0,0,0,0,0,0
		c0-0.1,0-0.2-0.1-0.2c0-0.1-0.1-0.3-0.3-0.4c0,0-0.1-0.1-0.1-0.1C91.4,6,91.3,6,91.1,5.9c-0.1,0-0.2,0-0.2,0
		c-0.2,0-0.3,0.1-0.4,0.2c-0.1,0.1-0.2,0.1-0.2,0.2c-0.1,0.1-0.1,0.2-0.1,0.3c0,0.1,0,0.2,0,0.3c0,0.1,0.1,0.2,0.1,0.3
		c0.1,0.1,0.2,0.2,0.3,0.3c0,0,0.1,0,0.1,0.1l0.1,0c0,0,0,0,0,0c-0.2,0.1-0.4,0.2-0.5,0.4c-0.1,0.1-0.1,0.2-0.2,0.3
		c-0.1,0.2-0.1,0.4-0.1,0.6c0,0.2,0.1,0.4,0.2,0.6c0.1,0.1,0.1,0.2,0.2,0.2c0.2,0.1,0.4,0.2,0.6,0.3c0,0,0.1,0,0.1,0l0.2,0
		c0.2,0,0.3,0,0.5,0c0,0,0.1,0,0.1,0c0.1,0,0.2-0.1,0.4-0.1c0.1-0.1,0.2-0.1,0.3-0.2c0.2-0.1,0.3-0.3,0.4-0.5
		c0.1-0.2,0.1-0.4,0.1-0.7C93.1,8.4,93.1,8.2,92.9,8z M75.5,12.6c-0.1-0.2-0.1-0.2-0.2-0.4c0,0-0.1-0.1-0.1-0.1c0,0,0,0,0,0
		c0,0,0,0,0,0c0,0,0,0-0.1,0c0,0-0.1-0.1-0.1-0.1c-0.1-0.1-0.2-0.2-0.4-0.2l0.1,0c0,0-0.1,0-0.1,0c-0.2-0.1-0.4-0.1-0.5-0.1
		c-0.1,0-0.3,0.1-0.4,0.1c-0.1,0.1-0.2,0.1-0.3,0.2c-0.1,0.1-0.2,0.3-0.2,0.5c0,0,0,0,0,0c0,0,0,0,0,0c0,0.1,0,0.2,0,0.3
		c0,0,0,0,0,0c0,0,0,0,0,0c0,0.1,0,0.2,0.1,0.3c0,0.1,0.1,0.2,0.1,0.3c0.1,0.1,0.1,0.1,0.2,0.2c0,0,0,0,0,0c0,0,0,0,0,0c0,0,0,0,0,0
		c0,0,0.1,0.1,0.1,0.1c0,0,0.1,0.1,0.1,0.1c0,0,0,0,0.1,0c0,0,0,0,0,0c0.1,0,0.2,0.1,0.3,0.1c0,0,0,0,0,0c0,0,0.1,0,0.2,0
		c0.1,0,0.2,0,0.3,0c0.1,0,0.2,0,0.3-0.1c0,0,0.1,0,0.1-0.1c0.1-0.1,0.1-0.1,0.2-0.2c0.1-0.1,0.2-0.2,0.2-0.4c0-0.1,0.1-0.2,0-0.3
		C75.5,12.9,75.5,12.7,75.5,12.6z M73.1,10.1C73.1,10,73,10,73,9.9c-0.1-0.1-0.2-0.2-0.3-0.2c-0.2-0.1-0.4-0.1-0.7,0c0,0,0,0,0,0
		c0,0,0,0-0.1,0c0,0,0,0,0,0c-0.1,0-0.2,0.1-0.4,0.1c0,0,0,0,0,0c-0.1,0-0.1,0.1-0.2,0.1c-0.1,0.1-0.2,0.1-0.2,0.2
		c-0.1,0.1-0.1,0.2-0.1,0.3c0,0.1,0,0.1,0,0.2c0,0.1,0.1,0.3,0.2,0.4c0,0.1,0.1,0.1,0.2,0.2c0.1,0.1,0.2,0.1,0.2,0.1c0,0,0,0,0,0
		c0.1,0,0.1,0,0.2,0.1c0.1,0,0.2,0,0.2,0c0.1,0,0.2,0,0.3-0.1c0.1,0,0.2-0.1,0.3-0.2c0,0,0.1-0.1,0.1-0.1c0.2-0.1,0.3-0.3,0.3-0.5
		c0-0.1,0-0.2,0-0.2C73.2,10.3,73.2,10.2,73.1,10.1z M75.9,3.2c0-0.1-0.1-0.1-0.1-0.2C75.8,3,75.7,3,75.7,3c0-0.1-0.1-0.1-0.1-0.2
		c-0.1,0-0.1,0-0.2,0.1c-0.1,0-0.2,0-0.3,0c-0.2,0-0.4,0.1-0.5,0.3c-0.1,0.1-0.1,0.2-0.2,0.4c0,0.1,0,0.2,0,0.3
		c0,0.1,0.1,0.2,0.1,0.3c0.1,0.1,0.1,0.1,0.2,0.2c0.1,0.1,0.2,0.1,0.3,0.1c0.1,0,0.3,0,0.4,0c0,0,0.1,0,0.1,0c0.1,0,0.1-0.1,0.2-0.1
		c0,0,0.1-0.1,0.1-0.1C75.9,4,75.9,4,76,3.9C76,3.8,76,3.7,76,3.6c0-0.1,0-0.1,0-0.2C76,3.4,76,3.3,75.9,3.2z"/>
	<path id="Red_Shadow" class="st4" d="M104.6,86.1c4.4-6.4,7.3-13.8,8.6-21.5c-1.9,3.5-4,6.8-6.3,10c-2.9,3.9-6.3,7.6-10.4,10.1
		c-3.8,2.4-8,3.8-12.3,5c-5.1,1.4-10.4,2.6-15.7,2.9C49.9,93.8,31.1,84.4,20.8,69c-8.1-12.2-10.5-27.7-7.2-41.9
		C5,33-0.2,42.6,0,53.2c0.2,10.6,5,20.6,11.3,29c7.7,10.3,18.2,18.7,29.9,24.1c5.3,2.4,11,4.5,17,4.3c6.2-0.1,12.3-2.4,18.1-4.4
		C87.6,102.1,97.6,96.1,104.6,86.1z"/>
	<path id="White_Dots" class="st5" d="M95.3,17.5c-0.1-0.2-0.2-0.5-0.3-0.7c-0.1-0.2-0.3-0.4-0.4-0.5c0,0,0,0-0.1,0
		c-0.2-0.2-0.5-0.4-0.7-0.6c-0.2-0.2-0.6-0.3-0.8-0.3c-0.4-0.1-0.8-0.2-1.2-0.2c-0.1,0-0.2,0-0.3,0c-0.4,0-0.8,0.1-1.2,0.3
		c-0.7,0.4-1.1,1.1-1.1,1.9c0,0.1,0,0.5,0.1,0.6c0.1,0.2,0.2,0.4,0.2,0.5c0,0,0,0,0,0c0,0.1,0.1,0.1,0.1,0.2
		c0.2,0.3,0.4,0.5,0.6,0.7c0.1,0.1,0.1,0.1,0.2,0.2c0.1,0.1,0.2,0.2,0.3,0.3c0,0-0.1,0-0.1-0.1c0.2,0.2,0.4,0.4,0.7,0.5
		c0.1,0,0.1,0.1,0.2,0.1c-0.1,0-0.1-0.1-0.2-0.1c0.1,0.1,0.2,0.1,0.2,0.2c0.4,0.2,0.8,0.3,1.3,0.3c0.5,0,0.9-0.1,1.3-0.3
		c0.4-0.2,0.7-0.5,0.9-0.9c0.2-0.4,0.3-0.8,0.3-1.3C95.5,18.1,95.4,17.7,95.3,17.5z M95.8,26.4c-0.1-0.2-0.1-0.4-0.2-0.5
		c0-0.1,0-0.1-0.1-0.2c0-0.1-0.1-0.1-0.1-0.2c0-0.1-0.1-0.1-0.2-0.2c-0.1-0.1-0.3-0.2-0.4-0.3c-0.2-0.1-0.3-0.2-0.5-0.3
		c-0.2-0.1-0.5-0.2-0.8-0.2c-0.2,0-0.4,0-0.5,0.1c0,0,0,0,0,0c-0.1,0-0.2,0.1-0.3,0.1c-0.1,0.1-0.3,0.2-0.4,0.3c0,0-0.1,0.1-0.1,0.2
		v0c0,0,0,0,0,0c0,0-0.1,0.1-0.1,0.1c-0.1,0.1-0.1,0.2-0.1,0.4c0,0,0,0.1,0,0.1c0,0.1,0,0.3,0,0.4c0,0.2,0.1,0.4,0.2,0.6
		c0,0,0,0,0,0c0,0,0,0,0,0.1c0,0,0,0,0,0c0,0,0,0.1,0,0.1c0.1,0.2,0.1,0.3,0.2,0.5c0.1,0.1,0.1,0.2,0.2,0.3c0.1,0.2,0.2,0.3,0.4,0.4
		c0.1,0.1,0.1,0.1,0.2,0.1c0.3,0.2,0.6,0.2,0.9,0.2c0.3,0,0.6-0.1,0.8-0.2c0.2-0.1,0.4-0.3,0.6-0.6c0,0,0,0,0,0
		c0.1-0.1,0.1-0.3,0.2-0.4c0-0.2,0-0.3,0.1-0.5C95.8,26.7,95.8,26.5,95.8,26.4z M102,26.5c-0.1-0.2-0.2-0.5-0.3-0.7
		c-0.2-0.3-0.5-0.5-0.8-0.7c-0.3-0.2-0.6-0.3-1-0.3c-0.7,0-1.4,0.6-1.4,1.4c0,0.2,0.1,0.4,0.1,0.6c0.1,0.2,0.1,0.4,0.3,0.6
		c0.1,0.1,0.2,0.3,0.3,0.4c0.1,0.1,0.2,0.3,0.3,0.4c0.2,0.2,0.4,0.3,0.7,0.4c0.1,0,0.3,0.1,0.4,0.1c0.2,0,0.4,0,0.6-0.1
		c0.2-0.1,0.3-0.2,0.4-0.3c0,0,0,0,0,0c0,0,0,0,0,0c0,0,0,0,0.1-0.1c0.2-0.2,0.3-0.4,0.4-0.7C102.1,27.2,102.1,26.8,102,26.5z
		 M103.7,34.4C103.7,34.3,103.7,34.3,103.7,34.4c0-0.2-0.1-0.3-0.1-0.4c0-0.1-0.1-0.2-0.1-0.2c-0.1-0.2-0.2-0.4-0.4-0.6
		c-0.1-0.1-0.3-0.2-0.4-0.3c0,0-0.1-0.1-0.1-0.1c-0.1-0.1-0.2-0.1-0.3-0.2c-0.5-0.3-1.1-0.3-1.5,0c-0.5,0.3-0.8,0.8-0.8,1.3
		c0,0.1,0,0.2,0,0.3c0,0,0,0.1,0,0.1c0,0.2,0,0.4,0.1,0.5c0.1,0.1,0.1,0.3,0.2,0.4c0.1,0.1,0.2,0.2,0.3,0.4c0.1,0.1,0.2,0.2,0.2,0.2
		c0.1,0.1,0.1,0.1,0.2,0.2c0.1,0.1,0.2,0.2,0.4,0.2c0.1,0.1,0.3,0.1,0.4,0.1c0.3,0,0.2,0,0.5,0c0.3,0,0.4,0,0.6-0.2
		c0.1,0,0.3-0.2,0.3-0.3c0.1-0.1,0.2-0.3,0.3-0.4c0.1-0.1,0.1-0.3,0.2-0.4l0.1-0.4L103.7,34.4z"/>
</g>
<g>
</g>
<g>
</g>
<g>
</g>
<g>
</g>
<g>
</g>
<g>
</g>
</svg>
