<?xml version="1.0" encoding="utf-8"?>
<!-- Generator: Adobe Illustrator 25.1.0, SVG Export Plug-In . SVG Version: 6.00 Build 0)  -->
<svg version="1.1" id="grapes" xmlns="http://www.w3.org/2000/svg" xmlns:xlink="http://www.w3.org/1999/xlink" x="0px" y="0px"
	 viewBox="0 0 432 431.7" style="enable-background:new 0 0 432 431.7;" xml:space="preserve">
<style type="text/css">
	.st0{fill:#A1BD3A;}
	.st1{fill:#728437;}
	.st2{fill:#9674AD;}
	.st3{fill:#262425;}
	.st4{fill:#B8A1C9;}

	#grapes:hover {
	transform: rotate(20deg)
} 

</style>
<script>
const grapes = document.querySelector("#grapes");
function logID() {
console.log(this.id);
}

grapes.addEventListener("click", logID);
</script>

<g>
	<path class="st0" d="M281.3,120.7c-2-4.8-4.3-9.4-6.9-14c-5.3-8.7-12-16.5-19.9-22.9c-7.9-6.6-16.8-12-26.5-15.5
		c-9.4-3.3-19.1-5.1-29-5.9c-5.3-0.5-10.9-0.3-16.3-1.8c-2.5-0.8-5.1-1.8-7.4-3.3c-0.5-0.5-1.3-0.8-1.8-1.3c0.3-5.3,0.8-10.4,1-15.8
		c0.5-5.9,4.3-20.1-1.8-23.9c-7.9-4.8-39,5.1-32.3,17.6c2.8,5.6,6.1,10.9,9.4,16c1.8,2.5,3.3,4.8,5.1,7.4c1.3,1.5,2.3,3.6,3.8,5.1
		l0.3,0.3c-0.3,0.5-0.3,1-0.5,1.5c-1.5,3.8-3.6,7.4-5.9,10.9c-5.1,7.4-11.5,12.7-17.6,19.1c-12,12.5-19.3,29.3-21.4,46.3
		c-1,7.4-2.5,20.4,5.3,25c3.8,2.3,6.9-0.8,8.4-4.1c1.8-4.3,1.3-8.9,1.5-13.7c0.8-15.3,6.1-30,16.3-41.8c6.6-7.6,14-15,18.1-24.4
		c0,0.8,0,1.5,0,2.3c0.3,7.1,0.8,14.3,1.3,21.1c0.5,6.9,1.3,13.7,2,20.6c0.8,7.6,1,15.8,4.3,22.9c2.5,5.3,11.2,4.1,12.5-1.5
		c1.5-7.1,0-14.8-1-21.9c-1-7.4-2-14.8-3.3-21.9c-1-6.9-2.3-13.5-3.6-20.4c-0.5-2.5-1-5.1-1.5-7.6c1.8,2,3.3,4.1,5.1,6.1
		c4.6,5.6,8.9,11.7,13.2,17.8c4.1,6.1,8.1,12.5,11.7,18.8c2,3.3,3.6,7.1,5.6,10.2c2.5,3.8,5.6,6.9,9.4,7.9c1.8,0.5,3.8-0.3,4.8-2
		c4.1-8.1-1.8-16.5-5.9-23.7c-4.3-7.1-9.2-13.7-14.3-20.1c-4.8-6.1-10.4-11.5-16-16.8c8.9,2.3,18.1,2.5,26.7,5.3
		c8.4,2.8,16.3,7.4,23.4,12.5c6.1,4.3,13.7,12,17.8,17.8c3.1,4.3,5.6,8.7,7.9,13.5c0.3,0.5,0.5,0.8,0.5,1.3c0.3,0.8,0-0.3,0.5,1
		c0.5,1,1,2.3,1.3,3.6c1.3,3.3,1.8,6.6,4.6,9.2c2.3,2.3,5.9,2.5,8.7,1C286.4,135.2,283.9,126.5,281.3,120.7z"/>
	<path class="st1" d="M173.9,127.3c-0.5-5.3-1.3-10.7-2-16.3c-0.8-5.3-1.5-10.9-2.5-16.3c-0.5-2.8-1-5.6-1.5-8.4
		c-0.5-2.5-0.8-4.6-2.5-6.6c-0.8-0.8-2.3-0.8-2.8,0.3c-0.5,0.8-0.5,1.8-0.8,2.5c-0.3,0-0.8,0-1,0c-2.3,0.5-3.3,2-4.6,3.8
		c-1.5,1.8-2.8,3.6-4.3,5.6c-2.8,3.6-5.3,7.1-7.9,10.9c-2.3,3.6-4.6,6.9-6.1,10.9c-1,3.1-1.5,8.7,1.8,10.4c0.5,0.3,1,0,1.3-0.3
		c0.8-1.3,1-2.8,1.3-4.1c0.5-1.5,1.3-3.1,2-4.6c1.8-3.3,3.8-6.6,5.9-9.7c3.6-5.6,7.6-10.9,11.7-16.3c0.3,2.3,0.3,4.6,0.5,6.6
		c0.5,5.3,1.3,10.9,1.8,16.3c0.5,5.6,1,10.9,1.8,16.3c0.5,4.8,0.8,10.4,4.8,14c0.5,0.5,1,0.3,1.3-0.3
		C175.4,138,174.4,132.1,173.9,127.3z"/>
	<path class="st1" d="M251.6,97c-1-2.3-3.3-4.1-5.1-5.9c-8.1-7.1-17.3-13-27.2-16.8c-5.3-2-10.9-3.8-16.8-4.8c-2-0.3-14-2.8-13,2
		v0.3c-0.3-0.3-0.5-0.5-0.8-0.5c-1.8-1-3.8,1-2.8,2.8c2,3.6,4.8,6.9,7.4,10.2c2.8,3.3,5.9,6.4,8.7,9.7c2.8,3.1,5.6,6.1,8.7,9.2
		c1,1,2.3,2.3,2.8,3.3c0.8,1,1.5,2,2.5,3.1c0,0.5,0.3,1.3,1,1c4.8-0.5,5.3-5.6,3.3-9.2c-1-2-2.8-3.6-4.3-5.1
		c-1.8-1.8-3.6-3.6-5.3-5.3c-3.3-3.3-6.9-6.6-10.2-10.2c-2.3-2.3-4.8-4.6-7.4-6.6c0.5,0,0.8,0.3,1.3,0.3c2.5,0.8,5.3,1.3,7.9,2
		c5.1,1.5,10.2,3.3,15,5.6c9.4,4.6,18.3,10.4,25.7,17.6c1.5,1.5,7.9,6.1,9.7,3.1C253.3,101.3,252.3,98.3,251.6,97z"/>
	<path class="st1" d="M190.5,118.9c-1-4.8-2.5-9.7-3.8-14.5c-2.3-9.2-4.1-19.3-8.1-28c-1-2-4.1-1-4.1,1c0.3,4.6,1.3,9.4,2.3,14
		c1,4.8,2,9.9,3.3,14.8c1,4.8,2,9.4,3.1,14.3c0.8,3.6,1.8,9.7,5.9,10.9c0.5,0.3,1,0,1.5-0.3C193,128.3,191.2,122.5,190.5,118.9z"/>
	<path class="st2" d="M321.6,154.5c4.8-15-4.1-32.6-17.3-42c-12.7-8.9-34.9-16.8-49.9-8.9c-9.4-12.5-24.7-20.6-41-18.8
		c-15.3,1.5-28.8,11.2-35.9,24.2c-10.4-7.4-24.4-9.9-36.7-4.8c-12.7,5.3-21.6,17.6-23.4,31.1c-3.1,0.5-6.1,1.5-8.7,3.3
		c-1,0.8-2,1.5-2.8,2.3c-10.9,6.4-18.3,17.6-19.3,30.6c-1,13,4.8,25.2,14.5,33.6c-7.9,13.2-9.9,29.5-4.3,44.3
		c5.6,14.8,17.6,26,32.1,31.1c-3.3,27.5,17.8,53,44.8,57.5c1,0.3,3.1,0,3.6,0.8c0.8,0.8,0.8,5.9,1,7.1c0.8,3.6,2,7.1,3.8,10.4
		c3.3,6.9,8.7,13,14.8,17.6c10.9,8.1,24.2,12.2,37.4,10.4c9.9,22.1,32.3,38.2,57.3,30.6c21.6-6.4,31.3-31.6,20.4-50.2
		c17.3-15,24.4-40.2,16.8-61.9c10.2-8.9,16.5-21.4,16.8-34.9c0.3-13.5-5.9-27-15.5-36.4c9.2-14.8,16-31.8,12.2-49.1
		C340.4,171.6,332.3,160.4,321.6,154.5z"/>
	<path class="st3" d="M321.6,227.3c0-0.5-0.8-1-1-0.8c0,0-0.3,0-0.3,0.3l0,0c-0.8-0.8-1.5-1-2.3-1c-1-0.3-2,0-3.1,0
		c-2,0-3.6,0-5.3-0.5c-3.6-0.8-7.1-2-10.2-4.3c-3.1-2.3-5.6-5.6-7.4-8.9c-0.8-1.8-1.3-3.6-2-5.1c0-0.3-0.3-0.8-0.3-1
		c1-4.8,1.5-9.7,1-14.5c-0.3-4.1-0.3-9.4-3.1-12.7c4.8,0.5,9.7-0.3,14.3-2c3.6-1.5,7.1-3.6,9.7-6.4c2.5-2.5,6.6-7.6,4.1-11.2
		c-0.8-1-2-1.8-3.3-1.3c-3.3,1-4.1,4.8-6.4,7.1c-2,2-4.3,3.6-6.9,4.8c-6.1,2.5-12.7,2.3-18.8-0.3c-6.4-2.8-12.2-7.9-16-13.5
		c-2.3-3.1-4.3-6.6-5.3-10.4c0.3-1,0.5-2,0.8-3.1c1-6.1,1-12.2,0.5-18.3c-0.3-3.1-0.5-6.1-1-9.2c-0.3-2.8-1-5.9-4.3-6.6
		c-1.8-0.3-3.6,0.5-4.1,2.3c-0.5,1.8,0,3.1,0.3,4.8c0.5,2.5,0.5,5.1,0.8,7.4c0.5,4.6,0.8,9.2,0.3,13.7c-0.5,8.4-3.6,16-9.9,21.9
		c-11.2,10.2-28,11.2-40,1.5c-3.3-2.5-6.1-5.9-8.1-9.4c-1-1.8-1.8-3.8-2.5-5.9c-0.5-4.1-1-8.1-2.3-12c-1-3.6-2-6.9-3.6-10.2
		c-1.5-3.6-3.1-7.4-6.1-9.4c-2-1.5-5.6,0.5-5.3,3.1c0.3,2.8,1.5,5.1,2.8,7.6s2.3,5.3,3.1,7.9c1.8,5.3,2.8,10.9,3.1,16.5
		c0.5,10.4-0.8,22.1-7.4,30.6c-5.3,6.6-14.5,11.7-23.2,12.2c-4.6,0.3-9.4-0.3-13.5-2.3c-4.8-2.3-7.9-7.1-10.4-11.7
		c-3.1-5.3-5.1-10.9-6.4-17.1c-0.5-3.1-1-6.4-1-9.4s0.5-5.9-0.3-8.7c-0.5-1.3-2-1.5-2.8-0.3c-1.8,2.3-1.8,5.3-1.8,8.1
		c-0.3,3.3,0,6.6,0.3,9.7c0.8,6.1,2.3,12.2,5.1,18.1c1.8,4.1,4.3,8.4,7.6,11.7c-0.5,0.5-0.8,1.3-1,2c-0.5,1-1.3,2.5-2,3.8
		c-1,1.8-3.3,3.8-5.3,4.8c-2.3,1.3-4.6,2.3-6.9,2.8c-1.3,0.3-2.5,0.5-3.8,0.5c-1.3,0-3.3-0.3-4.3,0.8c-0.3,0.5-0.5,1-0.5,1.5
		c0.5,1.5,2.5,2,4.1,2.3c1.5,0.3,3.3,0.3,4.8,0.3c3.3-0.3,6.6-1,9.7-2.5c2.8-1.5,5.6-3.6,7.6-6.1c1.3-1.5,2.3-3.1,3.1-4.8
		c0-0.3,0.3-0.5,0.3-0.5c3.1,1.8,6.9,2.8,10.4,3.6c-0.5,2.3,1.8,5.1,3.3,6.4c9.2,9.4,11.5,25,10.9,37.7c-0.5,7.9-2.8,16.3-7.9,22.7
		c-2.3,2.8-5.1,5.1-8.1,7.1c-1.5,0.8-3.1,1.5-4.6,2.3c-1.5,0.5-3.3,0.8-4.6,2c-0.8,0.8-0.5,2,0.3,2.5c2.3,1.5,5.9,0.5,8.4-0.3
		c3.3-1,6.1-2.3,8.9-4.3c5.3-4.1,9.7-9.4,12.2-15.8c2.3-5.6,3.6-12,3.8-18.6c5.9,5.1,12.5,9.9,20.4,11.2c9.2,1.5,18.1-2.5,25-8.4
		c6.9-6.1,11.5-14.3,13.5-23.2c1.3,3.6,3.1,6.9,5.3,9.7c5.3,6.4,13.5,9.7,21.6,9.9c14.3,0.3,26-9.4,32.1-21.6
		c1.8,4.3,4.6,8.4,8.1,11.5c4.1,3.1,8.7,5.6,13.7,6.4c4.3,0.8,13.7,1.5,13.2-4.8C321.3,228.4,321.6,228.1,321.6,227.3z M213.9,226.3
		c-4.3,7.9-11.2,15.3-20.6,16.5c-5.3,0.8-10.4-1-15-3.3c-2.3-1.3-4.3-2.5-6.4-4.1c-1-0.8-2.3-1.8-3.6-2.5c0,0,0,0-0.3-0.3
		c-0.3-6.6-1.5-13.2-3.6-19.1c-2-5.9-5.1-12-9.7-16.3c8.7-0.5,17.1-4.1,23.7-9.9c8.7-7.6,12.2-18.6,13.2-29.8
		c1.3,1.8,2.5,3.3,3.8,4.8c3.8,3.8,8.1,6.9,13,8.9c-0.3,0.3-0.5,0.5-0.8,1c-1.8,3.8,3.1,6.9,4.8,9.4c4.6,6.4,6.1,15,5.9,22.9
		C219.2,212.1,217.4,219.5,213.9,226.3z M280.6,204.7c-1.8,8.7-6.6,16.8-14.5,21.4c-7.4,4.3-16.5,4.8-23.9,0.3
		c-3.8-2.3-6.4-5.9-8.4-9.9c-1.3-2.3-2.3-4.6-3.3-6.9c-0.5-1.3-1-2.8-1.8-4.1c0-2.8,0-5.9-0.5-8.7c-1-8.4-3.6-17.3-9.4-23.7
		c0.3,0,0.5,0,0.8,0c15.5,1,30-7.9,36.7-21.4c1,2.5,2.3,4.8,3.6,7.1c4.6,7.4,10.7,13.5,18.8,16.8c0.5,0.3,1,0.3,1.5,0.5
		c0,0.3,0,0.5,0,0.5l0,0c-2,3.3,0.3,8.9,0.8,12.2C281.6,194.8,281.6,199.9,280.6,204.7z"/>
	<path class="st3" d="M316.7,296.6c-1-0.3-1.5-1-2.3-1.8c-1.3-1.3-3.1-1.3-4.8-1.8c-2.8-0.8-5.6-1.5-8.4-2.3
		c-4.3-1.3-8.4-3.6-12-6.6c-3.6-3.1-6.4-6.6-8.4-10.7c-1.5-3.1-2.3-6.1-3.3-9.4c0.3-1.3,0.5-2.5,0.5-3.8c0.5-7.1-0.5-20.6-9.9-20.9
		c-0.3,0-0.5,0.3-0.8,0.5c-0.8,1.5-1.3,3.1-1.3,4.8c0,2,1,3.6,1.5,5.6c1,3.6,1.3,7.4,0.8,10.9c-1,7.1-4.8,14-10.7,18.1
		c-6.1,4.3-16,3.3-22.9,1.3c-3.6-1-6.9-3.1-9.4-5.6c-1.3-1.3-2.3-2.5-3.3-4.1c-0.5-0.8-0.8-1.5-1-2l0,0c0.3-3.3,0.3-6.6-0.3-10.2
		c-0.5-4.1-1.8-10.4-5.1-13.2c-1.3-1.3-3.6-0.5-3.6,1.5c0,1.8,0.8,3.8,1.3,5.6s0.5,3.8,0.8,5.6c0,4.1-0.5,7.9-1.5,11.7
		c-1.3,3.6-2.8,7.1-4.8,10.2c-1,1.3-2.3,2.8-3.6,3.8c-0.8,0.5-1.8,1-2.5,1.5c-1.3-4.3-3.1-8.1-5.6-11.7c-3.3-4.6-16.5-14-19.1-5.1
		c-0.5,1.8,0,3.6,1.3,4.8c2,2,4.8,2.3,7.1,4.1c2.3,1.8,3.8,4.3,5.3,6.6c3.1,5.3,4.3,11.5,4.3,17.6c0,5.9-1.5,12-4.6,17.1
		c-1.5,2.5-3.3,4.6-5.3,6.6c-1,1-2,2-2.8,3.1c-0.8,0.8-1.3,2.3-2,3.1c-0.3,0.3,0,0.8,0.3,0.8c1.8,0,2.8,0.8,4.6,0.5
		c2-0.3,3.6-1.3,5.1-2.5c3.1-2.3,5.3-5.3,7.4-8.4c4.3-7.1,6.4-15.8,6.1-23.9c0-1.3-0.3-2.5-0.3-3.8c4.3,0.3,8.9-4.8,11.2-7.9
		c2-2.8,4.1-6.1,5.1-9.7c1.5,2.8,3.8,5.3,6.4,7.4c6.4,4.8,15,6.4,22.9,6.6c10.9,0.3,19.9-6.6,25-16c0.3,0.8,0.5,1.5,0.8,2
		c2.3,4.8,5.3,9.4,9.4,13.2c4.1,3.8,8.9,6.9,14,8.9c3.1,1.3,6.6,2,9.9,2.8c2,0.5,4.1,0.8,5.9-0.5c1.3-0.8,2-2,2.8-3.3
		C317.5,297.4,317.2,296.6,316.7,296.6z"/>
	<path class="st3" d="M304,350.3c-1.8-1.3-3.8-1.8-5.9-3.1c-1.8-1.3-3.6-2.5-5.1-4.1c-3.1-3.3-5.1-7.6-6.4-12.2
		c-1.5-5.3-1.5-10.9-1.3-16.5c0-2.8,0.3-5.6,0.8-8.1c0.5-2,1-3.8,1.3-6.1c0-0.3-0.3-0.5-0.5-0.5c-5.6,0-6.9,8.1-7.6,12.2
		c-1.5,6.9-1.8,14-0.5,20.9c1,5.9,3.8,11.5,7.4,16.3c0.3,0.5,0.8,0.8,1,1.3c-0.3,0-0.5,0-0.8,0.3c-1.5,0.8-2.5,2.5-3.3,3.8
		c-1,1.3-2,2.3-3.3,3.3c-2,1.8-4.6,3.1-7.1,3.8c-3.1,1-5.9,1.5-8.9,1.3c-3.3-0.3-6.4-1.8-9.7-1.8c1-4.3,1.5-8.9,1.3-13.5
		c-0.3-4.1-0.8-10.2-3.3-13.5c6.4-4.3,10.7-11.5,12.5-18.8c1-4.3,1.5-8.7,1.3-13c-0.3-4.6-1-11.7-6.1-13.2c-2-0.8-4.1,0.8-4.6,2.5
		c-0.8,2.3,0.3,3.8,0.8,6.1c0.5,1.8,0.8,3.6,0.8,5.6c0,3.1,0,6.4-0.8,9.4c-1.3,6.4-4.6,12.5-10.2,15.8c-6.9,4.1-15.8,3.8-23.2,1.3
		c-3.6-1.3-7.1-3.1-10.4-5.1c-1.5-1-2.8-2-4.1-3.3c-1-1-2.5-2-3.6-3.3c-0.5-0.5-1.5-0.3-1.5,0.5c-0.3,2-0.8,3.3,0.5,5.3
		c1,2,2.8,3.6,4.6,5.1c3.6,3.1,7.6,5.3,12,7.4c7.4,3.3,15.8,4.3,23.4,2c0.3,1.3,0.8,2.8,1.3,4.1c0.5,1.8,1,3.6,1.3,5.1
		c0.5,3.6,0.5,7.6-0.3,11.2c-0.8,3.6-1.3,7.4-3.1,10.7c-0.8,1.5-1.8,2.8-2.8,4.1c-1,1.3-1.3,2.3-2,3.8c-0.3,0.5,0,1,0.5,1.3
		c4.1,2.3,7.6-1,9.9-4.1c1.3-1.8,2-3.8,3.1-5.6c0.5-0.8,0.8-1.5,1.3-2.3c2.3,2.8,6.6,3.8,9.9,4.6c4.1,0.8,8.7,0.8,12.7-0.3
		c3.8-1,7.4-3.1,10.4-5.6c1.5-1,2.8-2.5,3.8-3.8c1.3-1.5,2.8-3.3,3.3-5.3c2.8,1.8,5.9,3.1,8.9,3.1
		C306.3,358.7,307.6,352.9,304,350.3z"/>
	<path class="st4" d="M106.9,166v-0.3c-0.3-0.5-0.3-0.8-0.5-1.3c0,0,0-0.3-0.3-0.3c0,0,0,0.3,0.3,0.3c-0.3-0.8-0.8-1.3-1.3-2
		c-1.3-1.3-2.5-2-4.3-2c-3.1,0-5.6,1.8-7.1,4.3c-0.8,1.3-1.5,2.5-1.8,3.8c0,0.5-0.3,0.8-0.3,1.3c0,0.3,0,0.5,0,0.5
		c0,0.8-0.3,1.8-0.3,2.5c0,2.8,1.3,5.9,3.6,7.4c2,1.5,4.6,2,7.1,1c1.5-0.8,3.1-1.8,3.8-3.3c0.5-0.8,1-1.8,1.3-2.5
		c0.3-1,0.3-2,0.5-3.3c0-0.8,0.3-1.8,0-2.5c0-0.5,0-0.8,0-1.3c0-0.3,0-0.5,0-0.8C106.9,167.3,106.9,166.8,106.9,166z"/>
	<path class="st4" d="M119.7,231.4c0-0.5,0-0.8,0-1.3c0-2.5-1.3-4.8-3.6-6.1c-1-0.5-2.3-1-3.6-1c-1.3,0-2.5,0.3-3.6,1
		c-1.3,0.5-2.3,1.3-3.1,2.3c-1.3,1.5-2.5,3.1-3.1,5.1c-0.8,2-1,4.6-1,6.6c0,0.5,0,0.8,0,1.3c0,0.8,0.3,1.8,0.5,2.5
		c0.3,0.8,0.5,1.5,1,2.3c1.3,2.3,3.1,4.3,5.6,4.8c2.8,0.5,5.6,0,7.6-2c1.5-1.5,2.3-3.8,2.3-5.9c0-0.3,0-0.8,0-1c0-0.5,0-0.8,0-1.3
		c0,0,0,0,0,0.3c-0.3-1-0.3-2.3,0-3.3s0.3-2.3,0.5-3.3l-0.3,2C119.4,233.5,119.7,232.4,119.7,231.4z"/>
	<path class="st4" d="M131.1,259.4c-0.3-1.3-1.3-2.5-2.5-3.3c-0.5-0.3-1-0.5-1.5-0.5c-0.3,0-0.3,0-0.5,0c-0.5,0-0.8,0-1.3-0.3
		c-0.8,0-1.3,0-1.8,0.5c-0.5,0-0.8,0.3-1,0.5c-0.5,0.3-1,0.8-1.3,1.3c0,0,0,0.3-0.3,0.3c-0.5,1-0.5,1.3-0.8,2
		c-0.3,0.8-0.3,1.5,0,2.3c0.3,1,0.8,1.8,1.5,2.5c0.3,0.3,0.3,0.3,0.5,0.5c0,0,0,0.3,0.3,0.3c0.3,0.5,0.8,0.8,1.3,1
		c0.8,0.5,1.8,0.8,2.5,0.8c1,0,1.8-0.3,2.5-0.8c0.8-0.5,1.3-1,1.8-1.8c0.5-0.8,0.8-1.8,0.8-2.5C131.6,261.2,131.4,260.2,131.1,259.4
		z"/>
	<path class="st4" d="M165,311.9c0-0.3-0.3-0.5-0.3-1c-0.3-0.5-0.5-1-0.8-1.5c-0.3-0.3-0.5-0.8-0.8-1c-0.3-0.3-0.3-0.5-0.5-0.8
		l-0.3-0.3c-0.5-0.5-1.3-1-1.8-1.3c-0.8-0.5-1.5-0.8-2.3-1c-0.3-0.3-0.8-0.3-1-0.5c-0.5,0-1.3-0.3-1.8-0.3h-0.3c-0.3,0-0.5,0-0.8,0
		c-1.8,0-3.6,1-4.6,2.3c-0.5,0.5-0.8,1.3-1,2c-0.3,1-0.3,2,0,3.1s0.5,2,1,2.8c0.3,0.5,0.8,1,1,1.3c0.3,0.5,0.8,1.3,1.3,1.5
		c0.5,0.5,1,1,1.5,1.3c0.3,0.3,0.5,0.3,0.8,0.5c1.3,0.8,3.1,1.3,4.6,1.3c0.8,0,1.8-0.3,2.5-0.5c0.8-0.3,1.5-0.8,2-1.3
		c1-1.3,1.8-2.8,1.8-4.6v-0.3C165.3,313.1,165.3,312.4,165,311.9z"/>
	<path class="st4" d="M151.5,144.6c1.3-0.5,2.3-1,3.1-1.8c1.3-1.5,2-3.1,2.3-5.1c0.5-0.8,1-1.5,1.3-2.5s-0.8-1.8-1.5-1.5l0,0
		c0.3-0.5,0.3-1,0.5-1.5c0.3-1.3,0.8-2.5,0.5-4.1c0-1,0-2-0.3-2.8c-0.3-0.8-0.8-1.5-1-2.3c-0.8-1.3-1.8-2.3-3.3-2.8
		c-1.3-0.5-3.1-0.8-4.3-0.3c-1.5,0.5-3.1,1-4.1,2.5c-0.3,0.3-0.5,0.5-0.5,0.8c-1.3,1.5-1.5,2-2.3,4.1c-0.5,1.3-1,2.5-1.5,3.8
		c-1,2.3-1,5.1-0.3,7.6c0.5,1.8,1.3,3.3,2.8,4.3c1.3,1,2.3,1.8,3.8,2.3c1.3,0.3,2.8,0.3,4.1,0c0.3,0,0.5,0,0.5-0.3
		C151.2,144.6,151.5,144.6,151.5,144.6z"/>
	<path class="st4" d="M230.4,108.7c-0.5-1.5-1.3-3.1-2.5-4.1c-0.5-0.3-0.8-0.8-1-1.3c-0.3-0.3-0.3-0.5-0.5-0.8
		c-0.5-0.8-1-1.3-1.3-1.8c-0.5-0.5-0.8-1-1.5-1.5c-1-0.8-0.5-0.5-1.8-1c-0.3-0.3-0.5-0.3-1-0.3c0,0,0,0-0.3,0
		c-0.8-0.3-1.8-0.3-2.5,0c-0.5,0-0.8,0-1.3,0.3c-2.5,0.8-4.6,3.3-5.1,5.9v0.3c-0.3,2-0.5,2.3,0,4.3c0,0.3,0,0.5,0.3,0.8
		c0,0.3,0.3,0.5,0.3,0.8c0.3,0.8,0.5,1.5,1,2.3c0.3,0.5,0.5,0.8,0.8,1.3c0.5,0.8,1,1.5,1.8,2c0.8,0.5,1.5,1.3,2.3,1.8l0.3,0.3
		c0.8,0.3,1.5,0.8,2.3,1c1.5,0.5,3.3,0.5,4.8,0c1.5-0.5,2.3-0.8,3.3-2c1.3-1.3,2.3-3.6,2.3-5.3C230.7,110.5,230.7,109.5,230.4,108.7
		z"/>
	<path class="st4" d="M299.7,130.1L299.7,130.1c0-0.3,0-0.8,0.3-1c0-0.3,0.3-0.8,0.3-1c0-1.5-0.3-2.8-1-4.1c-0.5-0.8-1.3-1.8-2-2.5
		l-0.3-0.3c-0.5-0.5-1.3-1-1.8-1.3c-0.5-0.3-1.5-0.8-2-1h-0.3c-1-0.3-2-0.3-3.1-0.5c-1.5-0.3-3.3,0.3-4.8,1.3l0,0
		c-0.3,0-0.3,0.3-0.5,0.3c-1,0.5-1.8,1.5-2.5,2.5c-0.5,0.8-0.8,1.8-0.8,2.5c-0.3,1-0.3,1.8,0,2.8c0.3,0.8,0.5,1.5,1,2v0.3
		c0.5,1,1.3,1.5,2,2.3c0.3,0.3,0.3,0.3,0.5,0.5l0.3,0.3c1,0.8,1.8,1.3,2.5,1.8c-0.3,0-0.5-0.3-0.8-0.3c0.5,0.3,0.8,0.3,1,0.5
		c2,1.3,5.3,1.5,7.6,0.3c0.8-0.3,1.5-0.8,2.3-1.5C298.7,132.6,299.4,131.4,299.7,130.1z"/>
	<path class="st4" d="M308.1,142.3c0-0.8,0-1-0.5-1.8c-0.3-0.3-0.5-0.8-0.8-1c0,0,0-0.3-0.3-0.3c0-0.3-0.3-0.3-0.3-0.5
		c-0.3-0.3-0.5-0.5-0.8-0.5c-0.3-0.3-0.5-0.3-1-0.5c-0.3,0-0.8,0-1-0.3c-0.5,0-1,0-1.5,0.3c-0.3,0-0.5,0.3-0.8,0.5
		c-0.3,0.3-0.5,0.5-0.8,0.8c-0.3,0.3-0.5,0.5-0.5,0.8c-0.3,0.5-0.3,1-0.3,1.5c0,0.8-0.3,1.5,0,2.3c0.3,0.3,0.3,0.8,0.5,1l0,0
		c0.3,0.3,0.5,0.5,0.8,0.8l0,0c0,0,0,0.3,0.3,0.3s0,0.3,0.3,0.3c0.3,0.3,0.3,0.3,0.5,0.5s0.5,0.5,0.8,0.5c0.3,0,0.3,0.3,0.5,0.3
		s0.8,0,1,0.3c0.5,0,1,0,1.5-0.3c0.3,0,0.5-0.3,0.8-0.5c0.5-0.3,0.8-0.8,1-1l0,0c0.3-0.3,0.3-0.5,0.5-1c0-0.3,0-0.8,0.3-1.3v-0.5
		C308.3,142.8,308.1,142.6,308.1,142.3z"/>
	<path class="st4" d="M195.3,226.1c0-0.8,0-1.5-0.3-2.3c-0.3-0.5-0.5-1.3-0.8-1.8c-0.3-0.3-0.5-0.8-0.8-1c-0.5-0.5-0.8-1-1.3-1.5
		c-0.3-0.3-0.5-0.5-0.5-0.8c-0.3-0.3-0.3-0.5-0.5-0.5c-0.3-0.3-0.5-0.3-0.8-0.5c-1.5-1.8-4.8-1.3-5.9,0.8l0,0
		c-0.8,0.8-1,1.8-1.3,2.5c-0.3,0.8-0.5,1.8-0.3,2.8c0.3,1.5,0.3,2.8,1,4.1c0.3,0.3,0.3,0.5,0.5,0.8c0.5,0.8,1.3,1.5,2,2
		c0.3,0.3,0.5,0.3,1,0.5l0.3,0.3c0.8,0.3,1.3,0.5,2.3,0.5s2.3-0.5,3.1-1c0.3-0.3,0.8-0.5,1-1c0.5-0.5,0.8-1,1-1.8
		c0.3-0.5,0.3-1.3,0.3-1.5C195.3,226.3,195.3,226.1,195.3,226.1z"/>
	<path class="st4" d="M269.1,205.7c-0.3-0.8-0.5-1.5-1-2.3c-0.8-1-1.8-2-2.8-2.5c-1.3-0.5-2.5-0.5-3.8-0.3c-1,0.3-2,0.8-3.1,1.3
		c-0.3,0-0.3,0.3-0.5,0.3c-0.5,0.5-1,0.8-1.8,1.3c-0.5,0.5-0.8,1-1.3,1.5c-0.3,0.3-0.5,0.5-0.8,1c-0.3,0.3-0.3,0.8-0.5,1
		c0,0.3-0.3,0.3-0.3,0.5c-0.3,0.3-0.3,0.8-0.5,1.3c-0.5,1-0.8,2-0.8,3.1c0,1.3,0,2.5,0.3,3.6c0.3,0.5,0.5,1,0.8,1.5
		c0.5,0.8,1,1.5,1.8,1.8c1,0.8,2.8,1.5,4.1,1.5h0.3c1,0,2-0.3,2.8-0.5c0.3,0,0.8-0.3,1-0.5c0.3-0.3,0.5-0.3,0.8-0.5
		c1.3-0.8,2.3-1.8,3.1-3.1c0-0.3,0.3-0.3,0.3-0.5c0.3-0.3,0.5-0.8,0.5-1c1-1.8,1.5-3.8,1.5-5.9C269.4,207.5,269.4,206.5,269.1,205.7
		z"/>
	<path class="st4" d="M268.6,189.4c-0.3-0.3-0.5-0.5-0.8-0.8c-0.3-0.3-0.3-0.3-0.5-0.5c0,0,0-0.3-0.3-0.3s-0.3,0-0.5,0s-0.3,0-0.5,0
		s-0.5,0-1,0c-0.5,0.3-1,0.5-1.3,0.8c-0.3,0.3-0.3,0.5-0.5,0.5l0,0c0,0,0,0,0,0.3c0,0,0,0.3-0.3,0.3c-0.3,0.5-0.5,1-0.5,1.5
		c0,0.3,0,0.5,0,0.8c0,0.3,0.3,0.5,0.3,0.8c0.3,0.3,0.5,0.5,0.8,0.8c0.3,0.3,0.5,0.5,1,0.5c0.3,0,0.5,0,0.8,0c0.5,0,1-0.3,1.5-0.5
		c0.3,0,0.3-0.3,0.3-0.3c0.3-0.3,0.5-0.5,0.8-0.8c0.3-0.3,0.3-0.5,0.3-0.8v-0.3c0-0.3,0.3-0.8,0.3-1
		C269.1,190.4,268.9,189.9,268.6,189.4z"/>
	<path class="st4" d="M335.6,197.6c0-0.3,0-0.5,0-0.8c0-0.8-0.3-1.5-0.3-2.5c0-0.8-0.5-1.5-0.8-2.3c-0.3-0.5-0.5-0.8-0.8-1
		c-0.3-0.5-0.8-1-1.3-1.5c-0.8-0.8-1.8-1.3-3.1-1.8c-0.3,0-0.3,0-0.5-0.3c-0.8-0.3-1.5-0.3-2.5,0c-0.8,0-1.5,0.3-2.3,0.8
		c-0.5,0.3-0.8,0.8-1.3,1c-0.5,0.5-0.8,1-1,1.5c-0.3,0.5-0.5,1-0.8,1.5c0,0.3,0,0.8-0.3,1c0,0.3-0.3,0.8,0,1c0,0.3,0,0.5,0,0.8
		c0,0.8,0,1.5,0.3,2.3c0,0.8,0,1.3,0.3,1.8c0.3,0.8,0.5,1.5,1,2c0,0,0,0.3,0.3,0.3c1.3,2,3.3,3.3,5.9,3.3c1.3,0,2.3-0.3,3.3-1
		c1-0.5,1.8-1.3,2.3-2.3c0,0,0,0,0-0.3c0.3-0.5,0.5-0.8,0.8-1.3C335.3,199.3,335.6,198.3,335.6,197.6z"/>
	<path class="st4" d="M337.4,274.4c-0.3-2-0.5-4.1-1-6.1c-0.3-1.3-1-2.5-1.5-3.6c-0.8-1.3-2-2.3-3.3-3.1c-1-0.8-2.3-1-3.8-0.8
		c-0.8,0-1.5,0.3-2,0.8c-0.3,0-0.3,0.3-0.5,0.5c-1.8,1-3.1,3.1-3.6,5.1c-0.5,1.5-0.5,3.1-0.5,4.8c0,1,0,2,0,2.8c0,0.3,0,0.5,0,1
		c-0.3,0.3-0.3,0.8-0.5,1.3l0.5-1.3l0,0c-1,2-1,4.1-0.3,6.4c1,2.3,2.8,3.8,5.1,4.6c4.8,1.8,9.9-2.3,11.2-6.6
		C337.6,278,337.6,276,337.4,274.4z"/>
	<path class="st4" d="M321.8,249.2c0-0.3-0.3-0.5-0.3-0.8c-0.3-0.8-0.5-1.3-1-1.8l-0.3-0.3l-0.8-0.5c-0.5-0.3-1-0.5-1.5-0.5
		c-0.3,0-0.8,0-1,0c-0.5,0-1,0.3-1.5,0.5s-1,0.8-1.3,1.3s-0.5,1-0.5,1.5c0,0.5,0,1,0,1.5s0.3,1,0.5,1.5c0.3,0.3,0.3,0.3,0.5,0.5
		s0.5,0.5,0.5,0.8c0.3,0.3,0.8,0.5,1.3,0.8c0.3,0.3,0.5,0.3,1,0.3c0.5,0,1,0,1.5,0c0.3,0,0.5-0.3,1-0.3c0.3-0.3,0.5-0.5,0.8-0.5
		c0.3-0.3,0.5-0.8,0.8-1.3c0.3-0.3,0.3-0.5,0.3-1C321.8,250.3,321.8,249.8,321.8,249.2z"/>
	<path class="st4" d="M316.7,337.1c0-0.3,0-0.8-0.3-1c0-0.3,0-0.3-0.3-0.5s0-0.3-0.3-0.5c-0.3-0.5-0.5-1-0.8-1.5
		c-0.3-0.5-0.8-1-1-1.5c-0.8-0.8-1.5-1.5-2.5-1.8c-0.8-0.3-1.5-0.5-2.3-0.5c-0.5,0-1,0.3-1.5,0.3c-0.5,0.3-1,0.5-1.5,0.8l0,0
		c-1,0.5-1.5,1.3-2.3,2.3l-0.3,0.3c0,0,0,0.3-0.3,0.3c-0.5,0.8-0.8,1.5-0.8,2.5c0,0.5,0,1-0.3,1.3c0,1-0.3,1.8,0.3,2.8
		c0.3,0.8,0.5,1.8,1,2.5c0.3,0.5,0.8,0.8,1,1.3c0.5,0.3,0.8,0.8,1.3,1c0.5,0.3,1,0.5,1.5,0.8c0.8,0.3,1.8,0.3,2.5,0
		c0.5,0,1.3-0.3,1.8-0.5c0.5-0.3,1-0.5,1.5-0.8s0.8-0.8,1.3-1.3s1-1.3,1.3-2.3c0.3-0.5,0.5-2.5,0.5-2.8
		C316.7,337.8,316.7,337.6,316.7,337.1z"/>
	<g>
		<path class="st4" d="M287.7,402.8c-1-2.8-3.6-4.1-6.4-4.6c-1,0-1.8-0.3-2.8-0.3c-0.3,0-0.8,0-1,0h-0.3c-1.3-0.8-2.8-1.3-4.3-1.8
			c-1-0.3-2.3-0.3-3.6-0.5c-1.3,0-2.3,0-3.3,0.5c0,0,0,0,0.3,0c-0.5,0-1.3,0.5-1.8,0.8c-1,0.5-1.8,1.8-2.3,2.8
			c-0.5,1.3-0.5,2.3-0.3,3.6c0,0.3,0,0.3,0.3,0.5c0.3,0.8,0.3,1.5,0.8,2c0.3,0.3,0.5,0.5,0.5,1c0.8,1,1.3,2,2.3,2.8
			c1,1,2,1.8,3.3,2.5c1.3,0.5,2.3,1,3.6,1.5c4.3,1.5,10.4,1,13.5-2.8c0.8-1,1.5-2,1.8-3.3C288.5,405.8,288.5,404.3,287.7,402.8z"/>
		<path class="st4" d="M281.3,398.2L281.3,398.2c0.5,0,0.8,0,1,0.3C282.1,398.2,281.6,398.2,281.3,398.2z"/>
		<path class="st4" d="M280.3,398.2c0.3,0,0.8,0,1,0.3h-0.3C280.8,398.2,280.6,398.2,280.3,398.2z"/>
	</g>
	<path class="st4" d="M304.8,394.9c-0.3-0.5-0.3-1-0.5-1.3c0,0,0-0.3-0.3-0.3c-0.5-0.8-1-1.5-2-2c-0.8-0.5-1.8-0.8-2.8-0.8
		c-1,0-1.8,0.3-2.8,0.8c-0.8,0.5-1.5,1-2,2c0,0,0,0.3-0.3,0.3l0,0c-0.3,0.5-0.5,1-0.5,1.5l0,0c-0.3,0.5-0.3,0.8-0.3,1.3
		c-0.3,0.8,0,1.3,0,2c0.3,0.5,0.3,0.8,0.5,1.3c0.3,0.3,0.5,0.8,0.8,1c0.5,0.5,1,0.8,1.8,1c0.5,0.3,1.3,0.5,2,0.5c1,0,2.3-0.3,3.3-1
		c1-0.8,1.5-1.3,2.3-2.3l0,0c0.3-0.5,0.3-0.8,0.5-1.3C305,396.7,305,395.9,304.8,394.9z"/>
	<path class="st4" d="M216.2,367.6c-0.3-0.5-0.5-1-0.8-1.5c-0.5-1-1.3-1.8-2.3-2.3c-0.8-0.5-1.8-0.8-2.5-1c-0.3-0.3-0.8-0.5-1-0.5
		c-0.5-0.3-1-0.5-1.5-1c-0.3-0.3-0.8-0.5-1-0.8c-0.3,0-0.3-0.3-0.5-0.3l-0.3-0.3c-0.5-0.5-0.8-0.8-1.5-1.3l0,0l-0.3-0.3
		c-0.8-0.8-1.3-1-2.3-1.3c-0.3,0-0.3,0-0.5-0.3c0.3,0,0.5,0.3,0.8,0.3c-0.8-0.3-1.3-0.5-2-0.5s-1.5,0.5-2,1
		c-0.8,0.8-1.5,1.5-1.8,2.8c-0.3,0.8-0.3,1.3-0.3,2c0,0.5-0.3,1.3,0,1.8c0,0.5,0,1,0.3,1.5c0,0.5,0.3,1,0.3,1.5c0.3,1,0.8,2,1.3,2.8
		c0.3,0.8,1,1.3,1.5,2c0.3,0.3,0.3,0.5,0.5,0.5c0.3,0.3,0.8,0.8,1,1c0.5,0.5,1.3,1,2,1.5c0.5,0.3,1,0.5,1.5,0.8s1,0.5,1.5,0.5h0.3
		c0.8,0,1.5,0.3,2.3,0.3c0.5,0,1.5-0.3,2-0.3c0.3,0,0.3,0,0.5,0c1.8-0.5,3.3-1.8,4.3-3.3C216.4,371.4,216.7,369.2,216.2,367.6z"/>
	<path class="st4" d="M230.7,314.4c-0.5-0.5-1.3-1-2-1.3l0,0l0,0l0,0l0,0c-0.5-0.3-1-0.3-1.5-0.3l0,0c-0.3,0-0.5,0-0.8,0l-0.5-0.5
		c-0.3-0.3-0.8-0.5-1-0.3c-0.3,0.3-0.5,0.5-0.5,1c-0.3,0-0.3,0-0.5,0.3h-0.3c-0.5,0-0.8,0.3-1.3,0.5l0,0c-0.3,0-0.5,0.3-1,0.3
		c-0.5,0.3-0.8,0.5-1,1c-0.8,0.8-1,2-0.5,3.1c0,0.3,0.3,0.5,0.3,0.8c0,0,0,0,0,0.3c0.3,0.5,0.5,1.3,0.8,1.5c0.5,0.5,0.8,1,1.5,1.3
		c0.5,0.3,1,0.5,1.5,0.8s1,0.3,1.5,0.3c0.8,0,1.3,0.3,2.3,0c0.5-0.3,1-0.3,1.5-0.5c0.3,0,0.3-0.3,0.5-0.3s0.3-0.3,0.3-0.3
		c0.8-0.5,1.3-0.8,1.8-1.8c0.3-0.3,0.5-0.8,0.5-1.3C232.5,317.5,231.7,315.7,230.7,314.4z"/>
	<path class="st4" d="M200.1,264.8c0-0.3,0-0.5-0.3-0.8c-0.3-0.5-0.3-0.8-0.8-1c-0.3-0.3-0.3-0.3-0.5-0.5l0,0
		c-0.3-0.3-0.8-0.5-1-0.8s-0.5-0.3-0.8-0.3c-0.3,0-0.8,0-1,0l0,0c0,0,0,0-0.3,0l0,0l0,0h-0.3c-0.3,0-0.3,0.3-0.5,0.3l0,0l0,0l0,0
		c0,0-0.3,0-0.3,0.3l-0.3,0.3c0,0-0.3,0-0.3,0.3c-0.3,0.3-0.5,0.8-0.5,1.3c0,0.3,0,0.5,0,1s0.3,1.3,0.5,1.8c0.3,0.5,0.5,1,1,1.3
		c0.3,0.3,0.8,0.5,1,0.8c0.5,0.3,0.8,0.3,1.3,0.3c0.3,0,0.5,0,1,0l0,0c0.3,0,0.3,0,0.5,0c0,0,0,0,0.3,0c0.5-0.3,0.8-0.3,1.3-0.8
		c0.3-0.3,0.5-0.5,0.5-1c0.3-0.3,0.3-0.8,0.3-1C200.4,265.5,200.4,265,200.1,264.8z"/>
	<path class="st4" d="M249.8,260.7c-0.5-1.3-2-2-3.6-2.3c-1.5-0.3-2.8,0.3-4.1,1.3c-1,0.8-1.8,1.8-2.3,2.8c-0.8,1.3-0.8,2.8-0.8,4.1
		c0,1.5,0.5,3.1,1.8,4.3c0.5,0.3,0.8,0.8,1.3,1c0.8,0.5,1.3,0.5,2,0.8c0.8,0.3,1.5,0.3,2.3,0c0.5-0.3,1-0.3,1.5-0.5
		c0.8-0.5,1.5-1.3,2-2c0.3-0.5,0.5-1,0.8-1.5c0.5-1,0.5-1.5,0.5-2.8C251.3,263.8,250.5,262.2,249.8,260.7z"/>
	<path class="st4" d="M271.7,346.8c-0.3-0.5-0.5-0.8-0.8-1c-0.3-0.3-0.5-0.5-0.8-1c-0.5-0.5-1-1-1.8-1.3l0,0
		c-0.8-0.5-1.8-0.5-2.5-0.3c-0.8,0.3-1.5,0.8-2,1.5c-0.3,0.5-0.8,1-0.8,1.5c-0.3,0.5-0.3,1-0.3,1.5c0,0.5,0,1-0.3,1.5
		c0,0.5,0,1.3,0.3,1.8c0,0.5,0.3,0.8,0.5,1.3c0.3,0.8,0.8,1.3,1.3,1.8c0.5,0.3,0.8,0.8,1.3,1c0.5,0.3,1,0.5,1.5,0.5
		c0.5,0.3,1,0,1.8,0c0.3-0.3,0.8-0.3,1-0.5c0.5-0.3,1-0.8,1.5-1.5c0.3-0.3,0.5-0.8,0.5-1.3v-0.3c0.3-0.5,0.3-1.3,0.3-1.8
		C272.7,349.3,272.2,347.8,271.7,346.8z"/>
</g>
<g>
</g>
<g>
</g>
<g>
</g>
<g>
</g>
<g>
</g>
<g>
</g>
</svg>
