<?xml version="1.0" encoding="utf-8"?>
<!-- Generator: Adobe Illustrator 25.1.0, SVG Export Plug-In . SVG Version: 6.00 Build 0)  -->
<svg version="1.1" id="lemon" xmlns="http://www.w3.org/2000/svg" xmlns:xlink="http://www.w3.org/1999/xlink" x="0px" y="0px"
	 viewBox="0 0 432 431.7" style="enable-background:new 0 0 432 431.7;" xml:space="preserve">
<style type="text/css">
	.st0{fill:#EEC51A;}
	.st1{fill:#E3A425;}
	.st2{fill:#262425;}
	.st3{fill:#FFFFFF;}
	
	#lemon:hover #lemon_x5F_shadow{
		fill:#DED971;
</style>
    <script>
const lemon = document.querySelector("#lemon");
function logID() {
console.log(this.id);
}

lemon.addEventListener("click", logID);
</script>

<g>
	<path class="st0" d="M389.5,221.5c0.7-13.2-1.5-26.1-4-39c-2.6-11.4-5.9-22.8-5.5-34.6c0.4-12.1,6.3-22.4,11-33.5
		c5.1-11.8,7.4-25,1.8-37.1c-10.7-23.9-39.3-26.8-62.1-24.6c-7.7,0.7-15.4,1.5-23.2,1.5c-11-2.9-21.7-5.5-33.1-6.3
		c-4-0.4-8.5-0.4-12.5,0c-3.3-0.4-6.6-0.4-9.9-0.7c-48.2-0.4-92.7,24.6-129.1,54.4c-40.1,32.7-79.1,76.9-71.7,132
		c0.4,2.2,0.7,4,1.1,6.3c0,5.5,0,10.7-0.4,16.2c-1.5,14-8.8,25.4-13.2,38.2c-3.3,10.7-4,22.8,0.7,33.1c5.9,12.1,17.7,16.2,30.2,18.8
		c14.3,2.9,25.4,10.3,37.5,17.7c12.1,7.4,25,12.9,38.6,16.2c53,12.9,106.6-5.1,151.5-33.5C342,318.3,385.8,277.8,389.5,221.5z"/>
	<path class="st1" d="M297.2,346.6c44.9-28.3,88.3-68.8,92.3-125c0.7-9.9-0.4-19.9-2.2-29.8c-3.3,7.7-6.6,15.1-10.3,22.8
		c-7.7,16.5-16.2,33.1-27.9,47.1c-14.7,17.3-33.5,29.8-53.3,40.5c-42.3,22.4-91.9,36-138.3,23.2c-23.5-6.3-46.7-19.5-70.6-15.8
		c-12.9,1.8-25,8.5-37.9,9.9c-3.7,0.4-8.1,0-11.8-1.1c0.7,3.3,1.5,6.3,2.9,9.2c5.9,12.1,17.7,16.2,30.2,18.8
		c14.3,2.9,25.4,10.3,37.5,17.7c12.1,7.4,25,12.9,38.6,16.2C199,393.3,252.3,375.3,297.2,346.6z"/>
	<g>
		<path class="st2" d="M156.3,345.1C156.7,344.7,156.7,344.7,156.3,345.1C156.7,344.7,156.7,345.1,156.3,345.1z"/>
		<path class="st2" d="M157.4,340.3c-0.4-1.1-1.1-2.2-1.5-2.9c-0.7-1.5-2.6-2.2-4-2.9c-0.7-0.4-1.8-0.7-2.6-0.7
			c-1.5-0.4-2.6-0.4-3.7,0c-1.1,0.4-2.2,0.7-2.9,1.5c-1.1,1.1-1.8,2.2-1.8,3.7c0,1.5,0.4,2.9,1.5,3.7c0.7,0.4,1.1,0.7,1.8,1.1
			c0,0,0.4,0,0.4,0.4c0,0,0,0,0.4,0c0,0,0.4,0,0.4,0.4l0,0c0,0,0,0,0.4,0c0.4,0.4,1.1,0.4,1.5,0.4c1.1,0.4,2.2,1.1,3.7,1.1
			c0.4,0,0.7,0,1.1,0c0.4,0,0.4,0,0.7,0c1.1,0.4,2.2,0,2.9-0.4c0.4,0,0.4,0,0.7-0.4c0.4-0.4,0.4-0.4,0.7-0.7c0,0,0,0,0-0.4l0,0
			C157.8,343.6,157.8,341.8,157.4,340.3z"/>
	</g>
	<path class="st2" d="M187.2,360.2c-0.4-0.4-0.4-0.7-0.7-0.7h-0.4c-0.4,0-0.4,0-0.4,0s0,0-0.4,0c-0.7-0.7-1.8-1.1-3.3-1.5
		c-1.1-0.4-1.8-0.4-2.9-0.4c-1.1,0-2.2,0.4-3.3,0.4c-0.4,0-1.1,0-1.5,0.4c-1.1,0-1.8,0.4-2.9,0.7c-1.1,0.4-1.8,1.1-2.9,1.8
		c-0.7,0.7-1.5,1.8-1.1,2.9c0,0.7,0.4,1.1,0.4,1.8c0.4,1.1,1.5,2.2,2.2,2.9c1.8,1.5,3.7,1.8,5.9,2.2c1.1,0,2.2,0.4,3.3,0
		c1.1,0,2.2-0.4,2.9-0.7c1.5-0.4,2.6-1.5,3.3-2.6c1.1-1.1,1.8-2.6,1.8-4C187.2,362,187.6,361.3,187.2,360.2z"/>
	<path class="st2" d="M216.3,345.1c-0.4-0.7-1.1-1.5-1.5-1.8c-1.1-0.7-2.6-1.1-3.7-1.5c-1.5-0.4-3.3-0.4-4.8,0
		c-0.7,0-1.5,0.4-1.8,0.4c-0.4,0.4-1.1,0.7-1.5,0.7c-0.4,0.4-0.7,0.7-1.1,0.7c-1.1,0.7-1.8,1.8-1.8,3.3c0,1.1,0,1.8,0.7,2.6
		c0.7,0.7,1.5,1.5,2.9,1.5c0.4,0,0.7,0,1.1,0.4c0.7,0.4,1.5,0.4,2.6,0.4c-0.4,0-0.7,0-1.5,0c0.7,0,1.1,0,1.8,0.4c0.4,0,0.4,0,0.7,0
		s0.7,0,1.1,0c0.7,0,1.5,0.4,2.2,0c0.7,0,1.5-0.4,2.2-0.4c-0.4,0-0.4,0-0.7,0c1.5-0.4,2.6-1.1,3.3-2.2
		C217.4,347.7,217,346.2,216.3,345.1z"/>
	<path class="st2" d="M239.8,357.6v-0.4c0-0.7,0-1.1,0-1.8s-0.7-1.5-1.8-1.5c-0.4,0-0.4,0-0.7,0c0,0,0,0-0.4,0h-0.4
		c-0.4,0-1.1,0-1.5,0c0,0,0,0-0.4,0c-0.7,0-1.8,0-2.6,0.4c-0.4,0.4-0.7,0.4-1.1,0.7c-0.4,0-0.7,0.4-1.5,0.4
		c-0.7,0.4-1.1,0.7-1.8,1.1c-0.4,0.4-1.1,0.4-1.5,0.7s-0.4,0.4-0.7,0.7c-0.4,0.4-0.7,0.4-0.7,0.7c-1.1,0.7-1.5,1.5-1.8,2.6
		c-0.4,0.4-0.4,0.7,0,1.1c0.4,1.5,1.1,2.6,2.6,3.3c0.7,0.4,1.5,0.4,2.2,0.7c1.1,0.4,2.6,0.4,3.7,0c0.7,0,1.5-0.4,1.8-0.4
		c0.7-0.4,1.1-0.4,1.8-0.7c0.4-0.4,0.7-0.4,1.1-0.7c0.4-0.4,0.7-0.4,1.1-0.7c1.1-1.1,1.8-1.8,2.2-3.3c0,0,0,0,0-0.4
		C239.8,359.1,239.8,358.3,239.8,357.6z"/>
	<path class="st2" d="M270.3,332.6c0-0.7-0.4-1.1-0.7-1.8c-0.4-0.7-0.7-1.1-1.1-1.5c-0.7-0.7-1.1-0.7-1.8-0.7
		c-0.7-0.4-1.1-0.4-1.8-0.4c-0.4,0-0.7,0-1.1,0.4h-0.4c-0.4,0-0.7,0.4-1.1,0.4c-0.7,0.4-1.1,0.7-1.5,1.1c-0.4,0.4-1.1,1.1-1.1,1.5
		c0,0,0,0,0,0.4c0,0.4,0,0.4-0.4,0.7c0,0.4,0,0.4-0.4,0.7c0,0.4,0,0.7,0,1.1c0,0,0,0,0,0.4c0,1.1,0.7,1.8,1.5,2.6l0,0l0,0
		c0.7,0.7,1.1,0.7,1.8,0.7c0.4,0,0.7,0.4,1.1,0.4s0.7,0,1.5,0c0.7,0,1.8-0.4,2.6-0.7c0,0,0,0,0.4,0c0.4-0.4,0.7-0.4,0.7-0.7
		c0,0,0,0,0.4,0c0.4-0.4,0.7-0.4,1.1-0.7c0.4-0.4,0.4-0.7,0.7-1.1c0.4-0.4,0.4-0.7,0.4-1.5C270.3,333.3,270.3,333,270.3,332.6z"/>
	<path class="st3" d="M234.7,70C234.7,70.4,234.7,70.4,234.7,70c0,0,0-0.4,0-0.7s0-0.7-0.4-0.7c0,0.4,0,0,0-0.7
		c0-0.4-0.4-1.1-0.4-1.5c-0.7-1.1-1.5-1.8-2.6-2.6c-0.7-0.7-1.8-1.1-2.9-1.1c-1.8-0.4-3.7,0-5.5,0.4c-0.7,0-1.5,0.4-2.2,0.7
		c-0.7,0.4-1.5,0.7-2.2,1.1c-0.7,0.4-1.5,1.1-1.8,1.8c-1.1,0.7-1.8,1.5-2.2,2.9c-0.4,0.7-0.4,1.1-0.7,1.8c-0.7,1.5-0.4,3.3,0.7,4.4
		c1.1,1.1,2.9,1.5,4.4,1.1c0.4,0,0.7-0.4,1.1-0.4c-0.4,0-0.7,0-1.1,0.4c0.7-0.4,1.8-0.4,2.6-0.7c0.7,0,1.1-0.4,1.8-0.4
		c0.7,0,1.1,0,1.8-0.4c1.1-0.4,1.8-0.4,2.9-0.4c2.2,0,4.4-1.1,5.9-2.6c0.4-0.4,0.7-0.7,0.4-0.4C234.3,71.9,234.7,70.8,234.7,70z"/>
	<path class="st3" d="M261.9,77.8v-0.4c0-1.1-0.7-2.6-2.2-2.2h-0.4c-1.1-0.4-2.2-0.4-3.7-0.4c-0.4,0-0.7,0-1.1,0.4
		c-0.7,0-1.8,0.4-2.6,0.4s-1.5,0.7-2.2,1.1c-0.7,0.4-1.5,0.4-2.2,0.7c-0.7,0-1.1,0.4-1.8,0.4c-0.4,0-0.7,0.4-1.5,0.4
		c-0.7,0.4-1.8,0.7-2.6,1.1c-2.6,1.1-3.7,5.1-1.1,7c0.7,0.7,1.5,1.1,2.6,1.5c1.1,0.4,2.2,0.7,3.3,1.1c2.2,0.4,4.8,0,7-0.7
		c0.7,0,1.5-0.4,2.2-0.7c1.5-0.7,2.9-1.5,4-2.6C261.1,82.9,262.6,80,261.9,77.8z"/>
	<path class="st3" d="M288,66.7c-0.4-2.2-1.8-4.4-4-5.1c-0.4-0.4-1.1-0.4-1.5-0.7c-1.5-0.7-2.2-0.7-4-0.7c-0.4,0-0.4,0-0.7,0
		c-0.7,0-1.1,0-1.8,0c-0.4,0-1.1,0.4-1.5,0.4c-0.7,0.4-1.5,0.7-1.8,1.1c-1.1,0.7-1.8,2.2-1.8,3.3c0,1.1,0,2.2,0.4,3.3
		c0.4,0.7,0.7,1.5,1.1,1.8c0.4,0.7,1.1,1.1,1.8,1.5c0.4,0.4,1.1,0.7,1.5,1.1c1.1,0.7,1.8,1.1,3.3,1.1c0.7,0,1.1,0.4,1.8,0.4
		c2.2,0.4,4.8-0.4,6.3-2.2c0.7-0.7,1.1-1.5,1.5-2.2C288,68.6,288,67.8,288,66.7z"/>
	<path class="st3" d="M306,82.5C306,82.2,306,82.2,306,82.5c0,0,0,0.4,0,0.7c0-0.7,0-1.1-0.4-1.8c0-0.4-0.7-0.7-1.1-0.7l0,0
		c-1.1-0.7-2.2-1.1-3.3-1.1c-0.4,0-0.7,0-0.7,0c-0.7,0-1.5,0-1.8,0.4h-0.4c-0.7,0.4-1.1,0.7-1.5,0.7l0,0c0,0,0,0,0.4-0.4l-0.4,0.4
		c0,0-0.4,0-0.4,0.4l-0.7,0.7c-1.1,1.1-1.1,2.6-0.7,3.7c0,0.7,0.4,1.1,0.7,1.5c0.4,0.7,1.1,1.1,1.8,1.5c0.4,0,0.4,0.4,0.7,0.4
		c1.1,0.4,2.2,0.4,3.3,0.4c1.8,0,3.3-1.5,4.4-2.6C306.4,85.9,306.7,84,306,82.5z"/>
	<path class="st1" d="M194.9,297.7c0-0.4-0.4-0.4-0.4-0.7c-0.7-1.8-2.6-3.3-4.4-4.4c-1.8-1.1-4-1.1-6.3-1.1c-1.1,0-1.8-0.4-2.9,0
		c-1.1,0-1.8,0.4-2.9,0.7c-3.7,1.1-4.8,6.6-1.5,9.2c0.4,0.4,0.7,0.7,1.1,0.7c1.1,0.7,2.6,1.5,4,1.8c1.8,0.4,3.3,0.7,4.8,0.7
		c1.1,0,1.8,0,2.9-0.4c0.7-0.4,1.5-0.7,2.2-1.1c1.1-0.7,2.2-1.8,2.9-2.9l0.4-0.4C195.3,298.8,195.3,298,194.9,297.7z"/>
	<path class="st1" d="M234.3,298.8c0-0.4,0-0.7,0-0.7l0,0v-0.4c0-0.4,0.4-1.1,0.4-1.5c0-0.7-0.7-1.5-1.5-1.1c-0.4,0-1.1,0.4-1.5,0.4
		l0,0h-0.4c-0.4,0-0.7,0-1.1-0.4c-1.1-0.4-1.8,0-2.9,0.4c-0.7,0-1.5,0.4-2.2,0.7c-0.4,0.4-1.1,0.4-1.5,0.7c-1.5,0.4-3.3,1.8-4.4,2.9
		c-1.1,1.1-1.1,2.6-1.1,4c0.4,1.5,1.1,2.6,2.6,3.3c2.2,0.7,4.8,1.1,6.6,0.4c0.7-0.4,1.1-0.4,1.5-0.7h0.4c0.4-0.4,0.7-0.4,1.1-0.7
		c0.4-0.4,0.7-0.7,1.1-1.1c0.4-0.4,0.4-0.4,0.7-0.7c0.7-0.7,1.5-1.8,1.8-3.3C234.3,299.5,234.3,299.1,234.3,298.8z"/>
	<path class="st1" d="M271.4,279.3C271.4,279.3,271.4,278.9,271.4,279.3c0-0.7,0-1.5-0.7-1.8c-0.4-0.4-0.7-1.1-1.1-1.5
		c-0.7-0.7-0.4-0.4-1.1-1.1c-0.4-0.4-0.7-0.4-1.1-0.7c-0.4,0-0.4-0.4-0.7-0.4c-0.7,0-1.1-0.4-1.8-0.7l0,0h-0.4c-0.4,0-0.4,0-0.7,0
		c-1.1-0.4-2.6,0-3.7,0.4c-0.4,0.4-1.1,0.4-1.5,0.7c-1.1,0.7-1.8,1.5-2.2,2.6c-0.4,0.7-0.7,1.8-0.7,2.6s0,1.8,0.4,2.6
		s0.7,1.5,1.5,2.2c0.4,0.7,1.1,1.1,2.2,1.5c1.1,0.4,2.2,0.7,3.7,0.7c0.4,0,0.4,0,0.7,0h0.4l0,0c0.7,0,1.1-0.4,1.8-0.4
		c0.4,0,0.7-0.4,0.7-0.4c0.4,0,0.7-0.4,0.7-0.4s0,0,0.4,0l0.4-0.4c0.4-0.4,1.1-0.7,1.5-1.1C271.1,282.6,271.8,280.8,271.4,279.3z"/>
	<path class="st1" d="M138.7,298.4c0-0.4-0.4-1.1-0.7-1.5c-0.4-0.4-0.7-0.4-1.1,0l0,0c-0.7-0.4-1.1-0.7-1.8-0.7c-0.4,0-0.7,0-1.1,0
		c-0.4,0-0.7,0-1.1,0c-0.7,0-1.1,0.4-1.5,0.7c-0.7,0-1.1,0-1.8,0.4c-1.1,0.4-0.7,1.8,0,1.8c0.4,0,0.4,0,0.7,0c0,0,0,0,0.4,0l0.4,0.4
		c0,0,0,0,0,0.4c0.4,0.4,0.4,0.7,0.7,1.1c0-0.4-0.4-0.4-0.4-0.7c0,0.4,0.4,0.7,0.7,1.1c0.4,0.4,0.7,0.7,1.1,0.7l0.4,0.4
		c0.4,0.4,0.7,0.7,1.5,0.7c1.5,0.4,3.7-0.4,4.4-1.8C139,300.6,139,299.1,138.7,298.4z"/>
</g>
<g>
</g>
<g>
</g>
<g>
</g>
<g>
</g>
<g>
</g>
<g>
</g>
</svg>
