<?xml version="1.0" encoding="utf-8"?>
<!-- Generator: Adobe Illustrator 25.1.0, SVG Export Plug-In . SVG Version: 6.00 Build 0)  -->
<svg version="1.1" id="orange" xmlns="http://www.w3.org/2000/svg" xmlns:xlink="http://www.w3.org/1999/xlink" x="0px" y="0px"
	 viewBox="0 0 432 431.7" style="enable-background:new 0 0 432 431.7;" xml:space="preserve">
<style type="text/css">
	.st0{fill:#FF8500;}
	.st1{fill:#262425;}
	.st2{fill:#CC5622;}
	.st3{fill:#FFFFFF;}
	.st4{fill:#EFCC96;}
	.st5{fill:#A1BC0B;}
	.st6{fill:#708328;}
	.st7{fill:#CCD46A;}

	#orange:hover #orange_curve{
		fill:black;
	  }
	
</style>
<script>const orange = document.querySelector(&quot;#orange&quot;);
function logID() {
console.log(this.id);
}

orange.addEventListener(&quot;click&quot;, logID);</script>
<g>
	<path class="st0" d="M364.8,158.4c-18.8-32.9-54.3-52.5-88.7-64.8c-30-10.5-67-17.4-98.5-8c-22.8,2.2-45.3,12.7-63.7,25.7
		c-27.5,19.9-47.8,47.8-57.2,80.4c-19.9,69.5,8.3,148.4,66.3,191.2c29,21.4,66.6,32.2,102.8,28.6c38-4,71-23.9,99.9-48.2
		c13.8-11.6,27.2-24.6,36.6-40.2c10.5-17.4,14.8-36.6,17.4-56.5C384.3,230.1,383.6,191.3,364.8,158.4z"/>
	<path class="st1" d="M214.9,78.7c-0.4-2.2-0.7-4.7-1.1-6.9c-0.4-1.1-0.4-2.2-0.4-3.6c0,0,0,0,0-0.4v-0.4c-0.4-1.8-0.4-3.3-0.7-5.1
		c0-0.7-0.4-2.2-0.4-2.5c-0.4-3.6-0.7-6.9-1.1-10.5c-0.7-4-1.8-8-4.7-10.9c-3.6-3.6-8.7-5.8-13.8-4.3c-15.9,4.3-11.2,27.2-8.7,39.1
		c2.2,11.9,5.1,25.7,17.4,30.8c4.3,1.8,9.4-1.4,11.6-4.7C216.7,93.9,216,85.3,214.9,78.7z"/>
	<path id="orange_x5F_curve" class="st2" d="M361.5,323.1c0.4-0.4,0.7-1.1,1.1-1.4c-26.8,27.2-62.3,45.6-100.3,49.6
		c-62.3,6.9-127.1-25.3-159.3-78.9c-12.3-20.6-20.3-43.8-24.6-67.7c-3.6-19.2-4.7-39.1-1.4-58.3c1.8-9.8,4.3-19.2,8-28.2
		c-13,15.6-22.8,33.7-28.6,53.6c-19.9,69.5,8.3,148.4,66.3,191.2c29,21.4,66.6,32.2,102.8,28.6c38-4,71-23.9,99.9-48.2
		C339,351.7,352.1,338.7,361.5,323.1z"/>
	<path class="st0" d="M99,290.5c-0.4-1.4-0.7-2.9-1.8-4.3c-0.7-1.1-1.8-2.2-2.9-2.9c-0.4-0.4-0.7-0.4-1.1-0.7
		c-1.1-0.7-2.5-1.1-4-0.4c-1.1,0.4-2.5,1.1-2.9,2.2c0,0.4-0.4,0.7-0.4,1.1c-0.4,0.7-0.7,1.1-0.7,1.8c-0.4,0.7-0.4,1.4-0.4,2.2
		c0,0.4,0,1.1,0,1.4c0,1.1,0.4,2.2,0.7,3.3c0,0.4,0.4,1.1,0.4,1.4c0,1.1,0.4,1.8,1.1,2.9c0.4,1.1,1.1,2.2,2.2,2.9
		c1.8,1.4,3.6,1.8,5.8,1.4c3.3-0.7,4.7-3.6,5.1-6.9C99.7,294.1,99.4,292.3,99,290.5z"/>
	<path class="st0" d="M100.5,330c0-0.7-0.4-1.4-0.7-2.2c0-0.4,0-0.4-0.4-0.7c0-0.4-0.4-0.4-0.4-0.7c0-0.4-0.4-0.7-0.7-0.7
		c-0.4-0.4-0.7-0.7-1.1-1.1s-1.1-0.7-1.4-1.4c-0.7-0.7-1.8-1.4-2.9-1.8c-0.7-0.7-1.8-0.7-2.9-1.1h0.4c-0.7-0.4-1.4-0.7-2.5-0.4
		c-0.4,0-0.4,0-0.7,0c-1.1,0-2.9,0.7-3.6,1.8c0,0,0,0,0,0.4c0,0,0,0.4-0.4,0.4c-0.4,1.1-0.7,2.2-0.7,3.3c0,0.4,0,0.4,0,0.7
		c0,0.4,0,0.7,0,1.1s0,0.7,0,1.1c0.4,0.4,0.4,1.1,0.7,1.4c0.7,1.4,1.8,2.9,3.3,4.3c1.1,1.1,2.5,2.2,4.3,2.5c1.1,0.4,2.2,0.4,3.3,0.4
		c3.3,0,6.2-2.5,5.8-5.8C100.5,330.7,100.5,330.7,100.5,330z"/>
	<path class="st0" d="M128,338.7c-0.4-0.7-1.1-1.4-1.4-2.2c-0.4-0.4-0.7-0.4-0.7-0.7c-0.7-0.7-1.1-1.1-1.8-1.8
		c-0.4,0-0.7-0.4-0.7-0.4c-0.7-0.4-1.4-0.7-2.2-1.1c-1.8-0.4-4,0-5.4,1.4c-1.1,1.1-1.8,2.5-1.8,4c0,0.4,0,0.7,0,1.1
		c0,1.4,0.4,2.9,1.1,4c0,0.4,0.4,0.7,0.7,0.7s0.4,0.7,0.7,0.7c1.1,1.4,1.1,1.8,2.5,2.5c0,0,0.4,0,0.4,0.4c1.8,1.1,4.3,1.4,6.5,0.7
		h0.4c1.1-0.4,2.2-1.1,2.9-2.2c0.4-0.7,0.4-1.4,0.7-2.2v-0.4C129.8,342.3,129.1,340.1,128,338.7z"/>
	<path class="st0" d="M149.7,373.4c0-0.4-0.4-0.4-0.4-0.7c-0.4-1.4-1.1-2.9-1.8-3.6c-0.7-0.7-1.4-1.4-2.2-1.8
		c-0.4-0.4-1.1-0.4-1.4-0.7c-1.1-0.4-1.8-0.7-2.9-1.1c-0.7,0-1.1-0.4-1.8-0.4c-2.2-0.7-4.3-0.4-6.5,0.7c-1.1,0.4-1.4,1.4-1.8,2.2
		c-0.4,1.1-0.4,1.8-0.4,3.3c0,0.7,0.7,1.8,1.1,2.2c0.7,1.1,1.8,2.2,2.9,2.9c1.4,0.7,2.9,1.8,4.3,2.2c1.1,0,2.2,0.4,2.9,0.4
		c1.1,0,1.8,0,2.9-0.4c1.4-0.4,3.3-1.4,4-3.3c0.4-0.4,0.4-0.4,0.7-0.7C150.1,374.5,150.1,373.8,149.7,373.4z"/>
	<path class="st0" d="M183.4,378.5c0-0.4,0-1.1-0.4-1.4c-0.4-0.7-0.7-1.4-1.1-2.5c-0.4-0.7-1.1-1.4-1.4-2.2
		c-0.4-0.4-0.4-0.7-0.7-0.7c-1.1-1.1-2.2-1.8-4-2.2c-0.4,0-0.7-0.4-0.7-0.4h-0.4c-0.4,0-0.7-0.4-1.1-0.4c-0.4,0-0.7,0-1.1,0
		c-1.1,0-1.8,0-2.5,0.7c-0.7,0.4-1.4,0.7-2.2,1.4c-1.1,1.4-2.2,3.3-2.2,5.1l0,0c0,1.1,0,1.8,0.7,2.9c0.4,0.4,0.4,0.7,0.4,1.1
		s0.4,0.7,0.4,0.7c0.7,1.4,1.8,2.5,3.3,3.3c0.4,0.4,0.7,0.4,0.7,0.4c0.7,0.4,1.8,1.1,2.5,1.1c0.7,0,1.1,0.4,1.8,0.4
		c2.2,0.4,4.7,0,6.2-1.8C183,382.1,183.7,380.7,183.4,378.5z"/>
	<path class="st3" d="M281.1,113.9c0-0.4,0-0.7,0-1.1c0-0.4-0.4-1.1-0.4-1.4c-0.4-0.4-0.4-1.1-0.7-1.4c-0.7-1.4-1.8-2.5-3.3-3.3
		c-0.4,0-0.4-0.4-0.7-0.4c-0.7-0.4-1.1-0.4-1.8-0.7l0,0h-0.4c-1.1-0.4-2.2-0.4-3.3-0.4c-0.7,0-1.1,0-1.8,0.4l0,0
		c-0.7,0.4-1.1,0.4-1.8,0.7c0,0-0.4,0-0.4,0.4c-0.7,0.4-1.4,0.7-1.8,1.4c-0.4,0.7-0.7,1.4-1.1,2.2c-0.4,1.4-0.4,3.3,0.7,4.7l0.4,0.4
		c0.7,1.1,1.1,1.4,1.8,2.2l-0.4-0.4c0.4,0.4,0.4,0.4,0.7,0.7c0.7,0.7,1.4,1.1,2.2,1.8l-1.4-1.1c0.4,0,0.4,0.4,0.7,0.4
		c0.7,0.7,1.1,1.1,1.8,1.4c-0.4-0.4-1.1-0.7-1.4-1.1c0.4,0.4,0.7,0.4,0.7,0.7c1.1,1.4,3.3,2.2,5.1,2.2c1.1,0,2.5-0.4,3.6-1.1
		c0.4-0.4,1.1-0.7,1.4-1.1c0.7-0.7,1.4-1.8,1.8-3.3c0-0.7,0-1.1,0.4-1.8C281.5,114.6,281.1,114.2,281.1,113.9z"/>
	<g>
		<path class="st4" d="M290.5,151.9L290.5,151.9c-0.4-0.4-1.1-0.7-1.4-1.1C289.4,151.1,289.8,151.5,290.5,151.9z"/>
		<path class="st3" d="M301,145c0-0.7-0.7-1.8-1.1-2.5c-0.4-0.7-1.1-1.4-1.4-2.2c-0.7-0.7-1.1-1.1-1.8-1.8c-1.4-1.4-3.3-2.9-5.1-3.6
			c-0.7-0.4-1.4-0.7-2.5-1.1c-0.7,0-1.1,0-1.8-0.4c-1.1,0-1.8-0.4-2.9-0.4c-1.4,0-3.3,1.1-4,2.2c-0.7,1.4-1.1,3.6,0,4.7
			c0.7,0.7,1.1,1.4,1.4,2.5c0.7,1.4,1.8,2.5,2.9,3.6c0.7,0.7,1.4,1.4,2.2,2.5c0.4,0.4,0.7,0.7,1.1,1.1c0.7,0.7,1.4,1.4,2.5,2.2
			c0.7,0.4,1.4,1.1,2.2,1.1c1.1,0.4,2.5,0.4,3.6,0C300.3,152.2,301.8,148.2,301,145z"/>
	</g>
	<path class="st3" d="M330.7,142.8c-0.4-0.4-0.7-0.7-0.7-1.4c-1.1-1.4-2.2-2.9-4-4c-1.1-0.7-2.2-1.1-3.3-1.4
		c-1.1-0.4-2.2-0.4-3.3-0.7c-0.7,0-1.1,0-1.8,0c-3.3,0-6.9,2.5-6.5,6.2c0,3.3,2.9,5.8,4.7,8.3c-0.4-0.7-0.7-1.1-1.4-1.8
		c1.1,1.4,1.4,2.2,2.9,2.9c1.1,0.7,1.8,1.8,2.9,2.2c0,0,0.4,0,0.4,0.4c0.4,0.4,0.7,0.4,1.1,0.4c0.7,0.4,1.8,0.7,2.9,0.7
		c0.4,0,0.4,0,0.7,0l0,0c0.4,0.4,1.1,0.4,1.4,0.4c0.4-0.4,0.7-0.7,1.1-1.1C331.8,152.2,332.9,146.4,330.7,142.8z"/>
	<path class="st3" d="M341.9,172.9c-0.4-0.7-0.7-1.4-0.7-2.2c0,0,0,0,0-0.4c-0.4-0.7-1.1-1.4-1.8-2.2c-0.7-0.7-1.4-1.1-2.2-1.8
		c-0.7-0.7-1.1-1.1-2.2-1.1c-0.4-0.4-0.7-0.4-1.1-0.4c-0.7,0-1.4-0.4-2.2-0.4h-0.4c-1.4-0.4-2.9-0.4-4,0c-1.4,0.4-2.5,1.1-3.3,2.2
		c-1.8,1.8-2.9,5.1-2.2,7.6c0,0.4,0.4,0.7,0.4,1.1c0,0.4,0,0.4,0.4,0.7c0,0.4,0.4,0.7,0.4,1.4c0,0.4,0.4,0.7,0.4,1.1
		c0.4,0.7,1.1,1.1,1.4,1.8l1.8,1.4l0,0c0,0,0.4,0,0.4,0.4c0.4,0,0.4,0.4,0.7,0.4c0.7,0.4,1.8,1.1,2.5,1.1c1.8,0.4,3.3,0.7,5.1,0
		c1.4-0.4,2.9-1.1,4-2.2c1.8-1.4,2.5-4,2.5-6.2C342.3,174.3,342.3,173.6,341.9,172.9z"/>
	<path class="st3" d="M362.2,185.9c-0.4-1.1-0.7-2.2-1.1-2.9v-0.4c-0.4-0.4-0.7-1.1-1.1-1.4s-1.1-0.7-1.4-1.1
		c-0.7-0.4-1.4-0.7-2.2-0.7c-0.7,0-1.4-0.4-2.2-0.4c-1.8,0-4,1.1-4.7,2.9c0,0.4-0.4,0.4-0.4,0.7c-0.4,0.4-0.4,0.7-0.7,1.1
		c-0.4,0.7-0.4,1.1-0.4,1.8s0,1.4,0,1.8c0,0.7,0,0.7,0.4,1.1c0,0.4,0.4,0.7,0.4,1.1c0.7,1.8,1.8,3.6,3.6,4.3c0,0,0.4,0,0.4,0.4
		c0.7,0.4,1.4,0.7,2.5,0.7c0.7,0.4,1.8,0,2.5,0c0.4-0.4,1.1-0.4,1.4-0.7c1.1-0.7,1.8-1.4,2.2-2.2l0.4-0.4c0.4-0.4,0.4-0.4,0.4-1.1
		c0.4-0.7,0.7-1.8,0.7-2.9C362.2,187.3,362.2,186.6,362.2,185.9z"/>
	<path class="st5" d="M369.1,60.3c-9.1-10.1-20.3-18.1-31.9-24.6c-12.3-6.9-26.1-13-39.8-15.2c-14.1-2.5-28.2,0.7-42,5.4
		c-11.6,4-23.2,9.4-32.9,16.7c-10.9,7.6-21,17.7-24.6,30.8c-1.1,4.7,17,5.1,19.6,5.1c11.2,0.7,19.6,3.3,30,7.2
		c13,4.7,26.8,7.2,40.5,6.5s26.1-4.3,38.7-9.8c12.3-5.1,24.3-9.8,37.7-9.4C370.5,72.6,373.1,64.6,369.1,60.3z"/>
	<path class="st6" d="M349.9,58.1c-2.9-5.4-11.2-6.2-16.7-7.6c-4-1.1-8.3-1.8-12.7-2.9c2.2-1.4,4.3-2.9,5.8-5.1
		c0.7-1.1,1.8-2.2,2.5-3.6s0.7-2.9,0-4.3c0-0.4-0.4-0.7-1.1-0.7c-1.1,0-2.2,0.4-3.3,1.1c-1.1,0.7-1.8,2.2-2.9,2.9
		c-1.8,1.8-3.3,3.6-5.4,5.4c-1.1,1.1-2.9,2.2-4.3,2.9c-13-2.2-26.1-3.6-39.5-3.3c-0.4,0-0.7,0-0.7,0c2.2-1.1,4.3-2.5,6.2-4
		c2.2-1.4,4.3-2.9,6.2-4.7c2.2-1.4,3.6-3.6,2.9-6.5c-0.4-1.1-1.4-2.2-2.5-2.5c-1.1-0.4-1.8,0-2.9,0.4c-0.4,0.4-0.7,0.7-1.1,1.1l0,0
		c0,0.4-0.7,1.4-0.4,1.1c0,0.4-1.4,1.4-2.2,1.8c-1.4,1.4-3.3,2.5-5.1,4c-3.6,2.5-7.6,5.1-11.9,6.9c-3.6,1.8-7.2,3.3-10.9,4.3
		c-2.2,0.4-4.3,1.1-6.5,1.8c-1.4,0.4-3.3,0.7-4.3,1.4c-1.1,0.4-2.5,0.7-3.6,1.4c-5.4,2.2-11.2,4.7-16.3,7.6
		c-4.7,2.5-10.5,5.4-13.8,9.8c-1.4,1.8,1.1,4.7,2.9,4c5.1-1.4,9.4-5.4,14.1-7.6c3.6-1.8,7.2-3.3,10.9-4.7c1.4-0.4,2.9-0.4,4.3-0.4
		c4,0,7.6,0.7,11.6,1.8c7.2,2.5,14.1,6.9,18.8,13c1.4,1.8,3.3,6.5,5.8,4c3.6-2.9-1.1-7.6-2.9-10.1c-5.1-5.8-12.3-10.5-19.9-12.7
		c-0.4,0-0.7-0.4-1.1-0.4c8-1.4,16.3-2.5,24.6-2.5c2.2,0,4.7,0,6.9,0.4c1.4,0.7,2.5,1.8,4,2.5c2.5,1.8,5.1,4,7.2,6.5
		c2.2,2.5,4.3,5.1,6.2,7.6c1.1,1.4,1.8,2.9,2.9,4.3c0.7,1.4,1.8,2.5,3.3,3.6l0,0c0.4,0.4,0.7,0.7,1.4,0.7c1.1,0,1.8-0.7,2.2-1.4
		c1.1-2.2-0.7-4.7-2.2-6.5c-2.5-3.6-4.7-6.9-7.6-10.1c-2.2-2.5-4.3-4.7-6.9-6.5c6.9,0.7,13.8,1.8,20.6,3.6
		c5.8,1.4,11.9,2.9,17.7,4.3c5.4,1.4,12.3,4.7,17.4,1.4C350.3,61.7,351,59.5,349.9,58.1z"/>
	<path class="st7" d="M309,32.4c0-0.4-0.4-0.7-0.7-1.1c-0.4-0.4-0.4-0.4-0.7-0.7c0,0,0,0,0.4,0l-0.4-0.4l0,0l0,0
		c-0.4-0.4-0.4-0.4-0.7-0.4c-0.4,0-0.7-0.4-0.7-0.4c-0.4,0-0.4-0.4-0.7-0.4l0.4,0.4l0,0c-0.4-0.4-1.1-0.7-1.4-0.7h-0.4
		c-0.4,0-0.7,0-1.1,0s-0.7,0-1.1,0s-0.7,0.4-1.1,0.4c-0.4,0.4-0.7,0.7-1.1,1.1s-0.4,0.4-0.4,0.7c0,0.4-0.4,0.7-0.4,1.1s0,0.7,0,1.1
		s0,1.1,0.4,1.4c0.4,0.4,0.4,0.7,0.7,1.1c0.7,0.7,1.4,1.1,2.2,1.1c0.7,0.4,1.4,0.4,2.2,0.4c0.4,0,0.4,0,0.7,0c0.7,0,1.4,0,2.2-0.7
		c0.4,0,0.7-0.4,0.7-0.7c0.7-0.7,1.1-1.4,1.4-2.2C309.4,33.1,309.4,32.8,309,32.4z"/>
	<path class="st7" d="M310.8,40.4c0,0,0-0.4-0.4-0.4c0,0,0-0.4-0.4-0.4c0,0-0.4,0-0.4-0.4h-0.4H309h-0.4c-0.4,0-0.4,0.4-0.7,0.4l0,0
		l0,0l0,0l0,0l0,0l0,0c0,0,0,0.4-0.4,0.4v0.4c0,0.4,0,0.4,0,0.7v0.4l0,0l0,0c0,0,0,0,0,0.4l0.4,0.4h0.4h0.4h0.4h0.4
		c0,0,0.4,0,0.4-0.4l0.4-0.4v-0.4c0-0.4,0-0.4,0-0.7C310.8,40.7,310.8,40.7,310.8,40.4z"/>
	<path class="st7" d="M324.9,65.3c-0.4-1.1-0.7-1.8-1.8-2.2c0,0-0.4,0-0.7-0.4H322c0,0,0,0-0.4,0c-0.7-0.4-1.4-0.4-2.2-0.7
		c-0.4,0-0.4,0-0.7,0c-0.7,0-1.1-0.4-1.8-0.4c-0.7,0-1.1,0.4-1.8,0.4c0.4,0,0.4,0,0.7,0c-0.4,0-1.1,0-1.4,0.4
		c-0.4,0.4-0.7,0.4-0.7,0.7c-0.7,0.7-0.7,1.8-0.4,2.5c0,0.7,0.4,1.1,0.7,1.4c0.4,0.7,1.1,1.4,2.2,1.8c1.4,0.7,3.3,1.4,5.1,0.7
		c0.7-0.4,1.4-0.4,1.8-0.7c1.1-0.7,1.8-1.8,1.8-3.3C325.3,65.7,325.3,65.3,324.9,65.3z"/>
	<path class="st7" d="M338.7,66.8c0-0.4-0.4-0.7-0.4-1.1c-0.4-0.4-0.4-0.7-0.7-0.7c-0.4-0.4-1.1-0.4-1.4-0.4h-0.4
		c-0.7,0-1.4,0-2.2,0.4c-0.4,0.4-0.4,0.4-0.7,0.7l0,0c-0.4,0.4-0.4,0.4-0.7,0.7c0,0,0,0,0,0.4s-0.4,0.4-0.4,0.7
		c0,0.4-0.4,0.4-0.4,0.7c0,0.4,0,0.7,0,0.7c0,0.4,0,0.7,0,0.7c0,0.4,0.4,0.7,0.7,1.1c0,0.4,0.4,0.4,0.7,0.7c0.4,0.4,0.4,0.4,0.7,0.4
		c0.4,0,0.4,0.4,0.7,0.4c0.4,0,0.7,0,1.4,0c0.4,0,0.4,0,0.7-0.4c0.7-0.4,1.4-0.4,2.2-1.1c0.4-0.4,0.4-0.4,0.7-0.7
		c0-0.4,0.4-0.7,0.4-0.7l0,0c0,0,0,0,0-0.4c0-0.4,0-0.4,0-0.7C339,67.9,339,67.5,338.7,66.8z"/>
	<path class="st7" d="M346.7,42.5c0-0.4-0.4-0.7-0.7-1.1c-0.4,0-0.4-0.4-0.7-0.4c-0.7-0.4-1.4-0.7-1.8-0.7H343
		c-0.7-0.4-1.4-0.4-2.2,0c-0.4,0-1.1,0.4-1.4,0.7c-0.7,0.4-1.1,1.1-1.4,2.2c0,0.7,0,1.8,0.7,2.2c0.4,0.4,0.7,0.7,1.1,1.1
		c0.7,0.4,1.8,0.4,2.5,0.7c0.7,0,1.1,0,1.8,0h0.4c0.4,0,0.7-0.4,1.1-0.7s0.7-0.4,1.1-0.7l0.4-0.4v-0.4C347,43.3,347,42.9,346.7,42.5
		z"/>
	<path class="st7" d="M365.5,60.3c-0.4-0.7-1.1-1.4-1.8-1.8c-0.4-0.4-0.7-0.4-1.4-0.7c-0.4,0-1.1,0-1.4-0.4c0.4-0.4,0.7-0.4,0.7-0.7
		c0.4-0.4,0.4-1.1,0.4-1.4l0,0c0-0.4,0-0.7,0-1.1c0-0.4-0.4-1.1-1.1-1.4l-0.4-0.4c-0.4-0.4-1.1-0.7-1.4-1.1c-0.4,0-0.7,0-1.1,0
		c-0.7,0-1.1,0-1.8,0.4c-0.4,0.4-0.7,0.4-1.1,1.1c-0.4,0.4-0.4,0.7-0.7,1.1c0,0.4,0,1.1,0,1.4s0,1.1,0.4,1.4s0.7,1.1,1.4,1.4
		l0.4,0.4l0.7,0.4l0,0c-0.7,0.4-1.4,0.7-2.2,1.4c-0.4,0.4-0.7,0.7-0.7,1.1c-0.4,0.7-0.7,1.4-0.7,2.5c0,0.7,0.4,1.8,0.7,2.5
		c0.4,0.4,0.4,0.7,0.7,1.1c0.7,0.7,1.4,1.1,2.2,1.4h0.4l0.7,0.4c0.7,0.4,1.4,0.4,2.2,0.4h0.4c0.4,0,1.1,0,1.4-0.4
		c0.4,0,1.1-0.4,1.4-0.7c0.7-0.4,1.4-1.1,1.8-1.8s0.7-1.8,0.7-2.9C366.2,62.1,365.8,61.4,365.5,60.3z"/>
	<path class="st7" d="M291.3,72.2c-0.4-0.7-0.4-1.1-0.7-1.4c0-0.4-0.4-0.4-0.4-0.4l0,0l0,0c0,0,0,0-0.4-0.4l-0.4-0.4
		c-0.4-0.4-1.1-0.7-1.4-1.1h0.4c0,0-0.4,0-0.4-0.4c-0.7-0.4-1.4-0.7-2.2-0.7s-1.1,0-1.8,0.4c-0.4,0-1.1,0.4-1.4,0.7
		c-0.4,0.4-0.7,1.1-1.1,1.8c0,0,0,0,0,0.4l0,0c0,0.4,0,0.7,0,1.4l0,0l0,0c0,0.4,0,0.7,0,1.1c0,0.4,0.4,0.7,0.4,1.1
		c0.4,0.4,0.4,0.7,0.7,1.1l0,0l0,0l0,0c0,0,0.4,0.4,0.7,0.4c0,0,0.4,0.4,0.7,0.4c0,0,0,0,0.4,0l0,0c0.4,0.4,0.7,0.4,1.1,0.4l0,0
		c0.4,0,0.4,0,0.7,0c0.4,0,0.7,0,1.1,0s0.7,0,1.1-0.4c0.4,0,0.4,0,0.7-0.4c0.4-0.4,0.7-0.4,1.1-0.7c0.4-0.4,0.7-0.7,1.1-1.4
		c0.4-0.4,0.4-0.7,0.4-1.1C291.6,73.3,291.6,72.6,291.3,72.2z"/>
	<path class="st7" d="M282.6,61c0-0.4-0.4-0.7-0.4-0.7c-0.4-0.4-0.7-0.7-1.1-1.1c-0.7-0.4-1.8-0.7-2.9-0.4l0,0c0,0,0,0-0.4,0l0,0
		c-0.7,0-1.1,0-1.4,0.4l0,0c-0.4,0-0.7,0.4-0.7,0.4c-0.4,0.4-0.7,0.4-1.1,0.7c-0.4,0.4-0.4,0.7-0.7,1.1c0,0.4,0,0.7,0,0.7
		c0,0.7,0,1.1,0.4,1.8c0,0.4,0.4,0.7,0.7,0.7c0.4,0.4,0.7,0.4,1.1,0.7l0,0c0.4,0,0.7,0.4,0.7,0.4c0.4,0,0.7,0,1.1,0s0.7,0,1.1,0
		c0.4,0,1.1-0.4,1.4-0.4s0.4-0.4,0.7-0.4c0.7-0.4,1.4-1.1,1.4-2.2c0-0.4,0-0.7,0-1.1C282.9,61.7,282.9,61.4,282.6,61z"/>
	<path class="st7" d="M297.4,33.5c0-0.4-0.4-0.4-0.4-0.7c0-0.4-0.4-0.4-0.7-0.7c0-0.4,0-0.7-0.4-0.7s-0.7,0-0.7,0
		c-0.4,0-0.7,0-1.1,0c-0.7,0-1.8,0.4-2.2,1.1c-0.4,0.4-0.7,0.7-0.7,1.4c0,0.4,0,0.7,0,1.4c0,0.4,0,0.7,0.4,1.1s0.4,0.7,0.7,0.7
		c0.4,0.4,0.7,0.4,1.1,0.7c0.7,0,1.1,0,1.8,0c0.4,0,0.4,0,0.7,0c0.4,0,0.4-0.4,0.7-0.4c0.4,0,0.4-0.4,0.7-0.4c0-0.4,0.4-0.4,0.4-0.7
		c0.4-0.4,0.4-0.7,0.4-1.1s0-0.7,0-0.7C297.4,34.2,297.4,33.8,297.4,33.5z"/>
</g>
</svg>
