<?xml version="1.0" encoding="UTF-8"?>
<svg id="pineapple" data-name="Layer 1" xmlns="http://www.w3.org/2000/svg" version="1.1" viewBox="0 0 600 600">
  <defs>
    <style>
      .cls-1 {
        fill: #a1bd3a;
      }

      .cls-1, .cls-2, .cls-3, .cls-4, .cls-5, .cls-6 {
        stroke-width: 0px;
      }

      .cls-2 {
        fill: #728437;
      }

      .cls-3 {
        fill: #262425;
      }

      .cls-4 {
        fill: #fff;
      }

      .cls-5 {
        fill: #eec51a;
      }

      .cls-6 {
        fill: #df9d26;
      }

      #pineapple:hover #cruve_1 {
  	fill: white;
}

	#pineapple:hover #cruve_2 {
  	fill: white;
}
#pineapple:hover #cruve_3 {
  	fill: white;
}

#pineapple:hover #cruve_4 {
  	fill: white;
}

#pineapple:hover {
	transform: rotate(20deg)
} 

    </style>
  </defs>
  <path class="cls-2" d="M487.81,135.55c-6.4-2.83-13.07-2.98-19.96-3.1-3.67-.06-7.33-.11-11-.17-1.91-.03-3.83-.06-5.74-.08-2.05-.03-3.03.08-4.71,1.34-.84.63-1.28,1.93-.35,2.75,1.2,1.06,1.99,1.68,3.63,1.83,1.02.09,2.05.14,3.07.2-3.26,1.44-6.55,2.78-9.93,3.95-3.72,1.29-4.2,5.34-2.53,7.8-2.08,1.88-4.1,3.81-6.07,5.8-3.25,3.28,0,9.9,4.76,8.17,9.19-3.33,18.32-6.81,27.44-10.33,7.86-3.04,16.33-5.7,22.19-12.09,1.51-1.64,1.61-5-.78-6.07Z"/>
  <path class="cls-2" d="M431.9,63.66c-10.4,5.54-20.38,11.83-29.82,18.87-4.67,3.48-9.12,7.25-13.45,11.13-4.38,3.93-8.88,7.83-12.15,12.76-1.5,2.27,1.48,5.21,3.74,3.74,1.69-1.09,3.26-2.32,4.8-3.58-3.07,3.83-5.95,7.82-8.62,11.96-2,3.11,1.38,8.02,5.07,6.59.52-.2,1.05-.37,1.56-.56.33.09.67.13,1.02.15,0,.03,0,.05,0,.08.16,0,.3-.06.45-.08.27-.02.55-.06.82-.13,1.81-.4,3.44-1.37,4.92-2.62,3.95-1.36,7.93-2.65,11.95-3.79,3.34-.95,6.71-1.77,10.06-2.65,3.09-.81,5.48-2.3,7.01-5.18,3.4-6.41,6.05-13.35,9.04-19.96,3.14-6.97,6.29-13.93,9.43-20.9,1.71-3.79-1.84-7.95-5.83-5.83Z"/>
  <path class="cls-2" d="M328.36,68.47c-1.62-13.92-4.09-27.75-7.44-41.36-.88-3.57-6.81-4.83-8.43-1.1-4.33,9.98-8.95,20.04-11.92,30.52-1.45,5.13-2.63,10.34-3.39,15.62-.35,2.44-.67,4.89-.81,7.35-.17,2.87.41,5.49.9,8.32.42,2.44,4.38,2.37,4.85,0,.42-2.13.84-4.26,1.26-6.38.19,3.06.47,6.11.8,9.15.33,3.04.34,6.46,1.38,9.35,2.67,7.43,10.57,4.6,15.54,1.62,4.9-2.95,8.39-7.22,8.77-13.09.44-6.54-.75-13.51-1.5-20.01Z"/>
  <path class="cls-2" d="M271.18,94c-.87-1.49-2.39-2.03-3.41-3.3-.84-1.04-1.79-2.01-2.7-2.99-1.92-2.06-3.91-4.06-5.96-5.99-8.05-7.58-17.04-14.21-26.66-19.67-4.05-2.3-9.5,1.52-8.06,6.2,2.4,7.8,5.17,15.46,8.33,22.98,1.65,3.92,3.37,7.81,5.2,11.65,1.7,3.56,3.71,8.47,7.9,9.58,1.45.39,2.77-.1,3.7-1.06.84,1.25,1.78,2.39,2.86,3.3,1.32,1.12,2.93,1.8,4.56,1.84,2.12,2.06,4.67,3.5,7.98,3.63,3.81.14,6.18-3.14,6.55-6.55.33-3.06.57-6.12.71-9.19.15-3.33.76-7.44-.99-10.44Z"/>
  <path class="cls-1" d="M505.91,159.69c-5.9-1.73-12.06-2.78-18.2-3.36-4-1.08-8.4-1.35-12.02-1.78-11.24-1.34-22.58-1.57-33.87-.82,2.85-1.99,5.64-4.05,8.34-6.25,14.97-12.23,26.65-27.93,34.5-45.57,1-2.25.52-4.36-1.53-5.82-7.7-5.47-17.45-3.86-26.17-2.46-10.52,1.7-21.02,3.72-31.22,6.83-12.64,3.85-24.99,9.53-35.4,17.68,2.55-6.8,4.71-13.75,6.38-20.83,4.61-19.6,5.92-40.04,3.55-60.04-1.36-11.53-3.83-22.85-7.48-33.88-.92-2.78-3.71-3.78-6.28-2.55-37.42,17.9-64.69,54.82-72.38,95.42-.21,1.11-.38,2.22-.55,3.33-2.54-5.85-5.31-11.6-8.26-17.25-4.97-9.51-10.28-18.86-15.73-28.1-5.11-8.67-10.87-17.3-18.73-23.72-2.92-2.38-6.78-1.48-8.09,2.14-7.58,20.97-11.56,44.23-5.71,66.15,1.46,5.47,3.53,10.81,6,15.95-4.1-3.09-8.3-6.04-12.61-8.82-7.98-5.15-16.33-9.8-24.97-13.75-6.45-2.95-13.75-5.72-21.02-5.91-1.37-.57-2.78-1.07-4.24-1.38-4.24-.9-8.41-.92-12.68-.21-2.49.42-3.84,3.49-3.24,5.71,9.16,34.1,46.12,61.3,76.81,75.05,10.36,4.64,21.14,7.97,32.4,9.5,8.28,1.12,17.95,1.76,26.37-.57,2.73,3.52,6.98,5.06,11.03,6.78,4.56,1.94,9.17,3.77,13.84,5.44,8.8,3.16,17.75,5.91,26.86,8.03,18.41,4.28,37.56,6.21,56.42,4.48,19.02-1.75,37.79-6.98,54.51-16.33.33-.18.69-.38,1.06-.58,1.94-.73,3.88-1.45,5.81-2.2,7.5-2.89,14.79-6.67,19.21-13.66,1.59-2.51,0-5.85-2.71-6.65Z"/>
  <path class="cls-2" d="M457.1,171.56c-9.69-7.33-22.52-7.24-34.18-6.53-12.46.76-24.85,2.81-37.2,4.52-12.19,1.68-24.39,3.38-36.57,5.09.32-.2.64-.41.96-.61,10.51-6.34,21.3-12.18,32.18-17.85,10.94-5.71,22.07-11.07,33.37-16.02,5.6-2.45,11.21-4.89,16.86-7.21,2.71-1.11,5.47-2.24,8.03-3.68,2.87-1.62,4.78-3.62,7.09-5.84.33-.32.05-.8-.35-.84-3.33-.33-6.2-.65-9.56,0-2.97.57-5.86,1.54-8.71,2.54-6.13,2.15-12.2,4.41-18.22,6.86-11.84,4.82-23.56,9.97-35.02,15.64-11.3,5.59-22.42,11.66-33.21,18.18-3.78,2.29-7.52,4.68-11.02,7.38.24-.56.47-1.13.72-1.66,2.72-5.94,5.33-11.92,7.87-17.93,5.25-12.44,10.13-25.03,14.59-37.77,4.44-12.69,8.64-25.59,11.76-38.68,1.52-6.36,2.93-12.73,4.25-19.13.71-3.44,1.32-6.85,1.79-10.33.38-2.85,1.1-5.94.02-8.69-.3-.76-1.18-1.09-1.83-.48-2.1,1.96-2.85,4.99-3.76,7.64-1.13,3.3-2.16,6.61-3.16,9.95-1.88,6.25-3.86,12.48-5.93,18.67-4.15,12.39-8.08,24.83-12.51,37.12-4.41,12.26-9.19,24.4-14.37,36.36-2.59,5.98-5.28,11.93-8.06,17.83-1.48,3.15-3.04,6.26-4.52,9.4-.13.28-.27.57-.4.85-.21-.3-.41-.61-.61-.93-.45-.73-.85-1.48-1.26-2.23-.79-1.44-1.73-2.77-2.43-4.27-.2-.43-.45-.98-.74-1.52-.32-2.04-.7-3.95-.97-5.48-1.92-11.11-4.23-22.19-7.28-33.05-3.06-10.89-6.59-21.65-10.56-32.24-3.73-9.95-7.87-20.28-14.47-28.68-.5-.64-1.27.09-1.19.69,1.38,9.84,4.83,19.33,7.63,28.85,2.88,9.8,5.51,19.66,7.68,29.65,2.13,9.77,4.05,19.62,5.6,29.5.56,3.62,1,7.26,1.49,10.9-1.67-2.52-3.49-4.88-5.14-6.95-5.35-6.74-11.82-12.44-18.98-17.19-8.09-5.37-16.81-9.75-25.37-14.28-4.22-2.23-8.42-4.53-12.67-6.69-4.21-2.14-8.04-4.53-12.82-4.39-.51.01-.8.54-.57.99,2.06,3.9,5.39,5.76,9,8.21,3.95,2.68,8.03,5.18,12.05,7.75,7.66,4.89,15.52,9.51,23.04,14.6,6.66,4.51,12.69,9.9,17.61,16.3,2.3,2.99,4.39,6.21,6.27,9.48,2.1,3.66,3.48,7.47,6.46,10.53,2.02,2.07,5.08,1.21,6.38-1.02,2.82-.24,4.63-1.45,5.78-3.21,0,.01.02.03.03.04.61.9,1.25,1.87,2.02,2.63.7.69,1.76,1.33,2.83,1.63.16.25.35.49.56.72-.06.2-.12.39-.16.59-.47,2.63.69,4.99,3.33,5.86,3.19,1.06,5.59-.41,8.44-1.58,2.22-.92,4.54-1.6,6.87-2.18,5.24-1.3,10.62-1.97,15.97-2.7,11.95-1.63,23.89-3.25,35.84-4.9,11.3-1.56,22.61-3.43,33.99-4.37,11.32-.94,22.54.43,33.83.18,3.44-.06,4.07-4.15,1.62-6Z"/>
  <path class="cls-5" d="M452.65,343.08c-2.19-53.66-15.09-108.98-52.89-149.11-34.21-36.33-84.75-54.99-133.26-38.17-49.47,17.16-88.66,60.31-115.54,103.8-22.14,35.82-37.15,76-44.05,117.53-1.75,7.33-3.24,14.74-4.4,22.21-8.29,53.38-.69,115.87,36.63,157.6,18.04,20.18,42.75,30.06,68.73,35.5,13.76,2.88,27.73,4.63,41.67,6.38,15.68,1.97,31.53,3.51,47.34,2.43,54.52-3.71,101.16-39.13,126.84-86.24,13.85-25.41,21.51-53.27,25.22-81.86,3.86-29.68,4.92-60.16,3.71-90.07Z"/>
  <path id="cruve_1" class="cls-3" d="M429.78,252.29c-5.37,4.66-11.5,8.55-17.62,12.15-5.88,3.46-12.78,5.8-19.62,6.22-8.57.52-16.95-2.41-22.57-8.21.5-.5,1.01-.99,1.5-1.53,5.51-6.1,9.28-14.22,9.1-22.57-.19-8.76-7.95-14.46-15.89-9.46-7.28,4.6-9.24,13.79-8.06,21.81.53,3.57,1.72,6.98,3.42,10.12-4.57,3.2-9.88,5.37-15.35,6.05-12.51,1.55-24.77-4.63-33.17-13.57-1.02-1.08-2-2.23-2.95-3.43,1.57-1.44,3.01-3.04,4.27-4.84,4.57-6.53,5.52-16.08-.04-22.36-6.32-7.15-17.03-3.03-19.15,5.69-1.56,6.46,1.05,13.45,4.62,19.45-3.98,2.06-8.32,3.35-11.71,3.74-13.72,1.57-28.64-3.25-36.46-15.16-1.3-1.98-2.59-4.43-3.55-7.05.39-.13.78-.2,1.17-.35,6.61-2.49,14.89-11,10.01-18.46-4.45-6.82-14.65-4.14-17.89,2.24-1.81,3.55-2.2,7.6-1.76,11.64-2.92-.3-5.77-1.34-8.16-3.07-6.13-4.44-8.84-11.93-10.15-19.1-.47-2.56-4.61-1.96-4.51.61.5,13.55,10.71,27.11,24.07,27.54.81,2.66,1.88,5.2,3.11,7.45,4.58,8.32,12.13,14.53,20.89,18.03,11.95,4.79,27.65,4.84,39.28-1.7.12.15.23.31.35.46,5.54,7.12,12.77,12.9,21.11,16.42,13.4,5.65,28.71,4.11,40.39-3.99,1.78,1.98,3.77,3.76,5.99,5.25,16.03,10.72,40.08,7.03,52.81-7.28,3.11-3.5,5.6-7.65,7.82-11.75.45-.84-.59-1.6-1.29-1ZM246.08,216.43c.87-1.9,4.06-4.7,6.2-2.61,2.61,2.55-2.63,7.39-4.55,8.56-.82.5-1.69.88-2.57,1.2-.28-2.5-.08-4.97.92-7.15ZM302.73,227.12c2.8-2.1,5.18.72,6,3.35,1.64,5.27-.57,9.73-4.34,13.19-1.31-2.35-2.41-4.81-3.15-7.33-.88-2.99-1.36-7.07,1.49-9.21ZM368.85,234.28c7.03-3.61,4.13,9.06,2.97,12.03-1.43,3.62-3.64,6.89-6.29,9.74-.84-1.77-1.51-3.67-1.92-5.72-1.1-5.47-.31-13.19,5.25-16.05Z"/>
  <path id="Shadow" class="cls-6" d="M423.73,515.01c13.85-25.41,21.51-53.27,25.22-81.86,3.86-29.68,4.92-60.17,3.7-90.07-1.75-42.95-10.41-86.93-33.15-123.36,2.69,29.89,5.13,59.73,1.75,89.47-4.28,37.68-17.81,73.8-34.94,107.64-17.12,33.84-38.36,66.3-67.43,90.67-29.06,24.37-66.77,40.04-104.57,36.96-53.02-4.33-97.58-46.52-114.66-97.15,1.47,39.89,12.97,80.01,39.48,109.66,18.04,20.18,42.75,30.06,68.73,35.5,13.76,2.88,27.73,4.63,41.67,6.38,15.68,1.97,31.53,3.51,47.34,2.43,54.53-3.72,101.16-39.13,126.85-86.25Z"/>
  <path id="cruve_2" class="cls-3" d="M430.31,349.17c-1.75.98-3.69,1.45-5.34,2.57-1.35.92-2.65,1.99-3.93,3.01-3.29,2.62-6.57,5.18-10.35,7.06-7.04,3.51-15.46,4.57-22.58.73-.24-.13-.46-.28-.69-.42,6.48-5.67,10.9-13.6,10.86-22.37-.04-8.7-4.97-19.14-14.22-21.2-9.89-2.2-16.83,7.25-17.47,16.08-.67,9.32,3.19,19.17,9.08,26.28.47.57.99,1.06,1.5,1.59-9.45,5.07-21.37,5.71-30.56-.06-2.88-1.81-5.44-4.13-7.68-6.75,3.75-3.8,6.79-8.21,8.7-13.02.14-.35-.42-.56-.6-.25-2.58,4.37-5.89,8.14-9.77,11.19-2.08-2.81-3.79-5.88-5.05-9.06-1.67-4.21-2.95-9.39-1.15-13.77,1.6-3.88,5.57-7.03,9.86-6.5,1.33.16,1.33-1.73.29-2.15-8.67-3.46-15.64,4.47-16.28,12.58-.61,7.76,2.72,15.79,7.34,22.2-2.85,1.6-5.9,2.9-9.15,3.75-9.47,2.49-20.07,2.92-29.54.23-9.81-2.79-19.03-8.78-24.39-17.55,3.5-3.59,6.26-7.95,7.93-12.91,2.11-6.25,2.76-14.65-1.64-20.1-5.11-6.34-12.72-2.85-15.6,3.61-3.96,8.9-3.34,18.9.33,27.7-1.17.86-2.38,1.63-3.61,2.26-10.54,5.39-23.83,2.98-33.21-3.67-6.05-4.29-10.55-10.33-13.55-17.06,2.07-.67,4.06-1.62,5.89-2.99,5.19-3.89,8.6-10.86,6.38-17.31-1.92-5.59-8.21-9.14-13.98-8.31-10.85,1.58-10.47,13.16-7.59,23.33-7.99-.68-16.78-5.18-21.8-9-11.54-8.8-15.89-22.42-12.74-36.39.49-2.2-2.67-3.79-3.8-1.6-7.2,13.98-.37,31.36,10.81,41.07,7.27,6.32,18.99,12.41,29.71,12.32,1.05,2.63,2.15,4.94,3.09,6.6,7.67,13.59,21.64,22.97,37.47,23.18,7.36.1,14.41-2.1,20.28-6.02,1.94,3.04,4.24,5.85,6.87,8.25,11.91,10.91,28.82,15.73,44.64,12.51,6.83-1.39,13.62-4.6,19.36-9.09.25.3.5.63.76.93,5.99,6.74,14.24,11.4,23.3,12.15,8.3.68,16.24-1.98,23.14-6.36,6.21,4.34,13.82,6.01,21.68,4.46,6-1.18,11.65-4.13,16.56-7.71,2.32-1.69,4.6-3.48,6.59-5.55,2.26-2.36,3.16-4.7,4.81-7.46.37-.61-.37-1.31-.98-.97ZM206.25,311.56c-.72-3.93-1.17-11.48,4.88-10.28,5.3,1.06,6.12,6.7,3.47,10.75-1.78,2.73-4.2,4.34-6.94,5.19-.56-1.87-1.06-3.75-1.41-5.66ZM264.87,322.55c.4-2.36,1.02-5.78,2.75-7.6,1.94-2.05,3.16,1.18,3.55,2.9,1.43,6.44-1.07,13.1-5.26,18.33-1.37-4.39-1.8-9.12-1.03-13.63ZM375.78,347.95c-2.43-6.08-4.49-15.68.95-20.76,6.56-6.13,13.41,2.5,14.87,8.76,1.65,7.07-.89,14.32-5.61,19.65-.97,1.09-2.03,2.09-3.14,3.03-3.09-2.98-5.49-6.72-7.07-10.68Z"/>
  <path id="cruve_3" class="cls-3" d="M426.75,456.81c-5.02,1.27-10.09,1.44-15.23,1.76-4.83.31-9.81.11-14.43-1.46-3.16-1.07-6.02-2.81-8.43-5.04,4.03-4.12,7.49-8.7,9.94-13.66,3.02-6.11,3.41-13.5-1.02-19.04-4.4-5.51-11.88-6.17-17.33-1.74-9.92,8.04-9.64,22.61-4.12,33.09-.77.63-1.53,1.25-2.32,1.84-15.91,11.83-37.8,15.66-53.86,1.95-1.06-.91-2.08-1.93-3.06-2.99,2.49-2.95,4.64-6.15,6.28-9.65,4.01-8.56,4.67-25.13-7.91-26.81-6.37-.85-11.56,3.7-13.81,9.32-2.38,5.94-1.95,12.52-.11,18.55.94,3.07,2.3,6,4,8.72-.86.7-1.73,1.36-2.59,1.95-7.97,5.54-17.73,8.3-27.42,7.52-16.65-1.33-34.24-12.25-40.86-28.07,3.3-3.35,6.1-7.2,8.23-11.36,2.6-5.08,4.65-11.09,2.26-16.66-2.58-6.01-9.23-6.18-13.63-2.01-7.58,7.18-8.47,18.14-5.84,27.8-.27.21-.52.45-.79.65-15.58,11.61-39.96,8.29-49.48-9.6-1.45-2.73-2.44-5.71-3.03-8.76,9.75-4.19,18.69-13.94,15.8-25.21-1.75-6.84-8.76-8.77-14.22-4.65-5.17,3.9-7.92,11.17-9,17.34-.43,2.44-.62,4.91-.58,7.37-14.01,2.51-29.25-7.12-35.76-19.66-2.12-4.09-3.29-8.51-3.58-13.1-.26-4.16-6.56-3.68-6.44.47.68,22.94,23.68,43.61,46.59,39.56,1.68,8.12,5.92,15.65,12.38,21.12,9.88,8.36,23.59,11.56,36.17,8.69,5.35-1.22,10.35-3.63,14.82-6.81,5.42,11.04,15.08,19.78,26.07,25.13,12.25,5.96,26.46,7.61,39.53,3.45,5.89-1.87,11.46-4.91,16.31-8.81,4.82,5.17,10.92,9.23,17.4,11.67,13,4.9,27.35,3.47,39.77-2.49,4.9-2.34,9.8-5.39,14.34-8.95,7.32,7.08,18.07,10.45,28.23,9.32,6.85-.76,12.71-3.86,18.11-8.04,1.41-1.09.29-3.14-1.38-2.71ZM174.84,393.11c.79-1.52,2.65-5.15,4.74-5.12,2.35.04,1.83,4.76,1.52,6.22-.85,4.04-3.72,7.32-7.02,9.64-.79.56-1.61,1.02-2.43,1.47.22-4.25,1.23-8.44,3.19-12.21ZM232.88,414.65c.61-1.76,1.52-3.41,2.7-4.84,1.11-1.34,2.05-3.13,2.57-.92.93,3.97-1.64,8.36-3.57,11.65-.75,1.27-1.6,2.48-2.5,3.65-.39-3.2-.24-6.5.81-9.53ZM309.08,431.41c.29-2.54,2-8.5,5.62-7.6,2.84.7,3.18,5.25,3.08,7.55-.22,4.8-2.52,9.45-5.68,13.48-2.26-4.15-3.55-8.77-3.02-13.43ZM381.54,438.03c-.39-3.95.29-8.04,2.65-11.31,1.11-1.54,3.01-3.49,5.1-2.85,1.67.5,2.8,2.6,3.04,4.21.77,5.06-3.96,10.23-7,13.71-.72.83-1.46,1.63-2.21,2.42-.82-1.95-1.37-4.02-1.59-6.19Z"/>
  <path id="cruve_4" class="cls-3" d="M371.6,561.16c-2.04-.28-3.7-1.34-5.68-1.71-2.47-.47-4.63-.7-6.86-1.98-.61-.35-1.18-.74-1.72-1.15,4.34-5.14,7.32-11.31,7.87-18.05.53-6.58-3.38-18.22-12.18-15.83-7.09,1.93-8.85,13.98-8.84,20.04,0,4.53,1.05,8.93,3.16,12.75-10.9,9.22-27.57,10.66-39.72,2.44,4.99-5.34,8.22-12.15,8.57-20.5.27-6.47-1.94-13.65-7.51-17.44-5.88-4-12.81-1.67-16.82,3.75-7.68,10.38-3.9,24.96,4.06,34.21-12.47,8.37-30.96,9.41-44.19,4.89-10.03-3.43-18.57-10.75-22.23-20.84,3.41-2.44,6.33-5.47,8.23-9.23,4.41-8.71,2.65-19.49-5.25-25.47-1.16-.88-3.47-.56-4.39.57-6.97,8.57-9.2,19.74-7.08,30.38-1.41.69-2.87,1.26-4.32,1.73-13.71,4.42-29.49,1.24-39.76-9.04-2.37-2.37-4.41-5.05-6.06-7.95,1.16-.38,2.29-.88,3.38-1.51,6.82-3.96,11.11-13.44,5.97-20.4-4.34-5.88-13.89-7.54-18.54-1.12-3.81,5.25-2.9,12.54-.71,18.86-4.69-.56-9.38-2.56-13.25-4.78-12.99-7.47-21.73-21.45-23.24-36.32-.17-1.72-2.79-1.79-2.74,0,.48,17.2,10.72,33.37,25.88,41.5,4.58,2.46,10.06,4.44,15.46,4.72.27.56.54,1.11.82,1.64,9.35,17.82,29.73,26.5,49.23,23.07,3.37-.59,6.82-1.63,10.09-3.09,4.77,11.73,14.54,20.23,26.53,24.36,15.4,5.31,37.39,3.3,51.79-6.76,10.54,7.86,24.87,10.47,37.38,6.08,4.74-1.66,9.36-4.3,13.37-7.67.37.32.72.66,1.12.95,2.83,2.1,6.13,3.52,9.62,4.05,3.84.57,6.47-1.12,8.82-4.06.26-.33.26-1.02-.29-1.1ZM173.46,503.04c7.27,3.61,1.45,12.54-3.92,14.62-.31.12-.64.17-.96.27-.61-1.58-1.12-3.2-1.5-4.86-1.04-4.53-.61-13.5,6.38-10.03ZM230.94,515.98c2.25,3.76,2.29,8.59.23,12.7-.9,1.79-2.15,3.36-3.57,4.75-.66-6.04.26-12.21,3.34-17.45ZM298.09,527.69c3.56-4.75,8.1-1.88,9.81,2.77,1.78,4.85.85,10.57-1.3,15.14-1.24,2.63-2.87,4.95-4.76,7.03-5.66-6.62-9.39-17.42-3.74-24.94ZM351.8,537.19c.32-1.3.71-2.6,1.2-3.85.18-.44,1.28-3.6,1.78-3.69,2.06-.37,2.65,5.21,2.67,6.33.04,2.99-.74,6.01-1.99,8.71-.85,1.84-1.9,3.5-3.04,5.08-.55-1.37-.96-2.83-1.16-4.35-.37-2.76-.12-5.54.54-8.23Z"/>
  <path id="White_dots" class="cls-4" d="M252.73,175.78s-.02.03-.03.04c0,.38-.02.75-.13,1.14-.22.8-.65,1.29-1.14,1.91.22-.28.44-.56.66-.85-.12.16-.24.32-.36.48-.55.77-1.1,1.46-1.91,1.97-.61.39-1.36.62-2.06.89-.11.05-.21.1-.32.15-.23.11-.46.21-.69.3-.4.23-.83.35-1.3.35-.69.09-1.38.12-2.07.19-.98.09-2.05-.41-2.8-.99-.65-.5-1.1-1.09-1.42-1.85-.73-1.72-.35-3.69.95-5.04.22-.23.44-.45.67-.67.09-.09.19-.18.29-.27.74-.67,1.41-1.05,2.33-1.37.55-.2,1.12-.36,1.69-.51.67-.18,1.37-.35,2.06-.36,1.19-.01,1.82.31,2.87.77,1.15.51,2.02,1.39,2.44,2.56.04.04.07.07.11.11.26.26.35.75.14,1.05ZM267.49,176.79c-.17-.61-.47-1.15-.84-1.66-.01-.02-.02-.04-.04-.07-.08-.13-.2-.23-.29-.35-.07-.08-.12-.18-.2-.25-.01-.01-.03-.02-.04-.04-.34-.39-.72-.71-1.18-.95-.19-.14-.37-.25-.59-.35-.22-.16-.46-.3-.71-.41-.44-.19-1.05-.24-1.39.18,0,0-.01,0-.01.01-1.32.06-2.65.64-3.56,1.55-.19.19-.36.41-.56.6-.23.22-.42.45-.61.69l.12-.15c-.22.27-.45.52-.7.76-.43.42-.73.93-1.06,1.42-.18.22-.35.44-.49.69-.44.76-.66,1.57-.66,2.45-.03.67.11,1.29.42,1.87.2.6.53,1.12,1,1.56.6.6,1.32,1.02,2.14,1.25,1.19.34,2.34.13,3.53-.06,1.3-.22,2.21-1,3.2-1.79.64-.51,1.19-1.13,1.59-1.84.1-.17.17-.36.25-.54.24-.56.56-1.14.7-1.74.25-.94.25-1.88,0-2.82ZM278.36,164.81c.03.23.06.46.07.63-.04-.78-.05-.85-.07-.63ZM278.26,164.11s0-.05-.01-.07c0-.02,0-.04-.01-.07-.18-.43-.37-.86-.55-1.3-.28-.37-.56-.73-.85-1.1-.37-.28-.73-.56-1.1-.85-.43-.18-.86-.37-1.3-.55-.04-.01-.07-.03-.11-.04-.49-.06-.97-.13-1.45-.2-.16,0-.32,0-.47-.01-.16,0-.31,0-.47,0-.04,0-.08,0-.12,0-.76-.03-1.45.13-2.11.47-.46.13-.87.36-1.21.7-.2.14-.4.29-.59.46-.17.16-.33.32-.49.49-.46.43-.78.93-.97,1.52-.3.56-.43,1.17-.41,1.81.06.42.11.83.17,1.25.22.8.63,1.49,1.21,2.08.16.17.3.34.47.5.02.02.04.04.06.06l1.11.85c.63.4,1.31.62,2.03.65.26.06.52.09.79.1.16,0,.31,0,.47.01.16,0,.32.01.47.01.38,0,1.2-.11,1.57-.21.24-.08.47-.18.7-.29.46-.13.86-.36,1.2-.7.41-.24.73-.57.97-.97.34-.34.57-.74.7-1.2.38-.89.2-.42.28-.69,0-.02,0-.04.01-.06.07-.23.08-1.56.11-1.96-.03-.25-.07-.52-.1-.69ZM291.96,171.17c-.03-.11-.06-.18-.09-.27-.02-.13,0-.26-.04-.4-.11-.42-.33-.89-.56-1.3-.03-.05-.05-.1-.08-.14-.15-.3-.35-.56-.6-.76-.24-.19-.48-.37-.72-.56,0-.06,0,.12.04.11,0,0-.14-.15-.16-.16-.36-.31-.9-.55-1.38-.39-.32-.05-.36-.05-.6-.01-.42.05-.83.05-1.27.17-.01,0-.02,0-.03.01-.38.02-.75.05-1.21.18-.49.14-1.06.44-1.57.67.44-.19.89-.37,1.34-.56-.55.23-1.13.42-1.65.7-.59.32-1,.73-1.45,1.17-.15.14-.31.28-.47.41-.15.11-.31.23-.4.33-.05.06-.09.12-.14.18-.27.35-.56.67-.88.97-.27.35-.54.7-.81,1.04l-.52,1.23c-.06.46-.12.91-.18,1.37-.03.71.12,1.37.44,1.99.12.44.34.82.66,1.14.23.39.54.7.93.93.32.32.7.54,1.14.66.61.32,1.28.47,1.99.44.88-.07,1.77-.18,2.63-.37,1.43-.33,2.34-1.12,3.45-2,.17-.13.34-.27.5-.42.86-.79,1.28-1.82,1.65-2.9.12-.34.12-.57.18-.98.06-.47.12-.6.07-.96.15,1.22-.1-1.14-.21-1.52ZM305.64,158.83c-.11-.4-.32-.76-.61-1.05-.21-.36-.5-.64-.85-.85-.3-.3-.65-.5-1.05-.61-.57-.3-1.18-.44-1.84-.41-.12,0-.23-.02-.35-.04.2.03.41.06.61.08-.81-.12-1.51-.17-2.37.09-.18.06-.37.11-.56.16-.64.15-1.2.44-1.68.88-.54.35-.96.81-1.27,1.38-.17.39-.33.78-.5,1.18-.2.66-.23,1.31-.09,1.96,0,.44.11.86.34,1.24.2.61.54,1.14,1.02,1.59.33.26.66.52,1,.77.77.44,1.6.67,2.49.67.13.01.27.02.4.02.06,0,.12,0,.18,0,.25,0,.49-.04.74-.09.25-.02.49-.06.74-.1.4-.17.8-.34,1.2-.51.03-.02.06-.04.08-.06.37-.27.73-.55,1.08-.84.1-.08.2-.17.3-.26.25-.32.5-.64.75-.96.16-.38.32-.76.48-1.14.06-.42.11-.84.17-1.27.03-.65-.11-1.26-.41-1.83Z"/>
  <path id="Yellow_dots" class="cls-6" d="M284.82,220.48c.03.43-.01.84-.07,1.27-.08.62-.19,1.1-.56,1.66-.21.32-.48.63-.72.93-.08.1-.17.2-.25.3-.82.91-1.99,1.65-3.26,1.6-.44-.02-.92-.08-1.35-.2-.88-.26-1.72-.9-2.11-1.73-.01-.02-.02-.04-.04-.06-.13-.32-.27-.64-.41-.97-.17-.54-.19-1.07-.07-1.61,0-.36.1-.7.27-1.01-.03.08-.06.16-.1.23.41-.99.6-2.05,1.49-2.79.14-.12.27-.24.4-.37.54-.5,1.11-.84,1.8-1.07.4-.13.76-.1,1.14-.15-.15.02-.29.04-.43.06.72-.12,1.53-.09,2.16.32.22.14.45.34.65.5.05.04.1.09.15.13.04.04.09.08.13.13.49.48.61.74.84,1.29.18.31.27.64.27.99.03.19.05.37.08.56ZM207.17,259.46c-.3-1.19-1.11-2.06-2.28-2.44-.37-.12-.89-.15-1.32-.16-.68,0-1.32.17-1.91.52-.27.21-.54.42-.81.62-.09.07-.19.15-.28.23-.63.54-1.13,1.21-1.62,1.87-.52.69-.77,1.55-.9,2.39-.09.57-.2,1.18-.21,1.77-.03.98.4,1.81.78,2.67.36.61.85,1.1,1.46,1.46.64.37,1.32.55,2.05.56.73,0,1.42-.19,2.05-.56.61-.36,1.1-.85,1.46-1.46.05-.11.1-.22.16-.33.18-.36.44-.8.52-1.2.06-.25.08-.51.14-.76.06-.23.12-.47.2-.7.11-.31.16-.64.19-.97.07-.39.14-.78.28-1.16.29-.78.23-1.57.03-2.36ZM246.66,306.65c-.06-.18-.13-.36-.2-.54-.21-.51-.33-1.09-.66-1.53-.28-.52-.66-.93-1.14-1.25-.43-.39-.93-.66-1.51-.8-.4-.05-.79-.11-1.18-.16-.8,0-1.55.2-2.25.61-.21.09-.4.27-.59.4-.04.03-.08.05-.12.08-.2.15-.4.3-.59.45-.4.23-.71.55-.94.94-.44.48-.74,1.05-.91,1.7-.05.12-.1.24-.16.36-.24.41-.36.86-.36,1.34-.06.26-.09.53-.1.8,0,.18.02.36,0,.55-.04.48-.02.96.15,1.48.16.39.33.78.49,1.17.22.36.47.69.76.99.28.33.61.58.99.76.39.16.78.33,1.17.49.86.23,1.73.23,2.59,0,.41-.17.82-.34,1.23-.52.99-.5,1.94-1.38,2.5-2.33.3-.52.52-1.18.7-1.78.03-.11.07-.22.1-.33.08-.26.12-.52.12-.79.16-.7.13-1.39-.09-2.09ZM314.3,323.08c-.05-.37-.09-.68-.18-1.02-.04-.14-.08-.28-.1-.42-.13-.54-.38-1.01-.74-1.41-.29-.45-.68-.81-1.17-1.07-.98-.52-2.11-.74-3.21-.42-.28.08-.59.11-.88.18-.48.09-.9.27-1.27.56-.34.26-.68.53-1.02.79-.07.06-.14.13-.22.2-.16.14-.31.28-.47.43-.14.13-.29.26-.43.4-.85.79-1.16,1.72-1.58,2.75-.07.18-.16.35-.21.54-.19.63-.2,1.24-.19,1.87,0,1.77.95,3.43,2.48,4.32.78.45,1.62.68,2.53.68.9,0,1.74-.23,2.53-.68.73-.33,1.34-.84,1.89-1.42.07-.07.13-.14.2-.21.32-.38.63-.78.91-1.19.18-.44.37-.87.55-1.31.07-.2.13-.39.19-.59.06-.18.12-.36.18-.54.03-.09.06-.18.09-.27.01-.04.03-.09.04-.14.21-.67.24-1.34.09-2.01ZM346.71,232.65c-.04-.32-.06-.65-.08-.98-.04-.62-.11-1.27-.32-1.85-.05-.14-.1-.29-.14-.44-.04-.14-.08-.29-.12-.43-.01-.06-.03-.13-.04-.19-.2-.7-.47-1.18-.89-1.72-.21-.36-.5-.65-.86-.86-.14-.17-.31-.29-.5-.38-.02-.01-.05-.02-.07-.04-.69-.38-1.38-.54-2.17-.6-.05,0-.11,0-.16,0-.66-.02-1.27.11-1.84.41-.59.19-1.11.52-1.54.99-.32.33-.62.75-.88,1.13-.23.33-.43.67-.61,1.03-.24.48-.49.97-.61,1.5-.11.53-.18,1.13-.21,1.67,0,.22-.01.44,0,.65.02.55.06,1.23.21,1.69.3.93.76,1.77,1.45,2.47.03.03.06.06.09.09.49.53,1.07.9,1.74,1.12.21.11.43.17.65.24.08.03.14.07.21.09.04.01.07.02.12.03.01,0,.03,0,.05.01.72.18,1.11.16,1.8.06.39,0,.76-.1,1.1-.28.3-.1.54-.21.74-.35.33-.18.65-.4.92-.7.06-.06.09-.13.15-.2.2-.18.44-.34.58-.58.18-.19.34-.4.47-.62.21-.37.47-1,.6-1.4.21-.65.2-1.26.14-1.87,0,.1.02.2.03.3ZM408.11,236.64c-.34-1.28-1.39-2.3-2.65-2.65-1.34-.37-2.7.04-3.69.98-.46.43-.81,1.04-1.2,1.54.22-.28.43-.56.65-.84-.53.68-.99,1.19-1.19,2.06-.1.44-.13.9-.17,1.35,0,.1-.02.2-.04.3-.02.13-.03.27-.05.4,0,.04,0,.08-.01.13,0-.01,0-.02,0-.04-.04.42-.04.84.11,1.3.03.09.07.19.1.28.16.44.29.89.52,1.29.71,1.23,2.15,1.72,3.49,1.42.48-.11,1.02-.4,1.47-.64.85-.45,1.38-1.25,1.9-2.04.56-.85.94-1.78.95-2.81,0-.67-.04-1.4-.2-2.03ZM359.71,345.13c-.23-.53-.39-.81-.84-1.27-.1-.11-.2-.21-.31-.31-.83-.85-2.12-1.18-3.26-.86-1.1.3-2.07,1.22-2.34,2.34-.04.14-.07.28-.1.42-.08.36-.16.73-.15,1.1,0,.66.17,1.28.5,1.85.18.28.39.54.61.79.08.09.17.18.25.28.4.44.98.82,1.57.96.3.04.6.08.89.12.3.04.6,0,.9-.11,1.14-.31,2.12-1.28,2.37-2.44.03-.13.06-.26.08-.4.08-.34.12-.68.14-1.03.02-.51-.08-.98-.31-1.42ZM152.14,373.4v-.02c.22-.68.22-1.35-.08-2.06-.35-.82-1.02-1.5-1.91-1.71-.58-.14-1.21-.25-1.81-.22-.5.03-1.01.1-1.5.2-.91.19-1.66.69-2.37,1.28-.61.52-1.11,1.19-1.56,1.84-.02.03-.04.06-.06.09-.17.4-.33.79-.5,1.19-.1.37-.16,1.01-.18,1.4,0,.11-.01.22-.01.33,0,.64.13,1.29.22,1.92.23.82.64,1.53,1.24,2.13.1.1.22.16.33.25,0,0,.01.02.02.03,1.67,1.83,4.86,1.6,6.41-.24.02-.01.04-.02.05-.04.6-.6,1.01-1.31,1.24-2.13.14-.8.52-1.45.47-2.32-.02-.32-.03-.64,0-.97,0-.1.03-.19.03-.29,0-.08-.01-.16-.02-.23v.04c-.01-.13,0-.26,0-.39.02-.06.02-.12.05-.18-.02.04-.04.07-.05.11ZM209.24,412.33c0-.25-.04-.51-.04-.76v-.31c0-.76-.13-1.23-.32-1.74l.1.23c-.25-.59-.41-1.24-.74-1.8-.47-.81-1.2-1.39-2.05-1.75-.94-.4-1.78-.4-2.79-.22-.39.07-.87.33-1.23.5-.09.04-.18.09-.28.14-.49.26-.96.61-1.37.99-.79.73-1.62,2.36-1.9,3.36-.24.88-.26,1.83-.15,2.73.14,1.14.2,2.04.79,3.07.25.43.59.93.91,1.22.18.14.36.28.54.42.27.27.57.51.88.7.85.54,1.9.69,2.87.56.97-.13,1.81-.55,2.51-1.23.16-.16.25-.35.38-.53.11-.13.23-.27.35-.44.27-.35.35-.41.49-.71.19-.44.42-.9.55-1.36.05-.16.07-.37.1-.57.16-.82.42-1.65.4-2.49ZM281.35,423.69c-.06-1-.25-1.94-.49-2.9-.37-1.49-1.63-2.7-3.1-3.1-1.38-.38-3.38-.06-4.32,1.14-.39.49-.77.99-1.15,1.49-.41.55-.63,1.21-.88,1.84-.42,1.04-.69,2.03-.7,3.18,0,.32,0,.65,0,.97.03,1.19.25,2.1.81,3.15.53.98,1.27,2,2.24,2.55.61.47,1.31.8,2.12.76.84-.04,1.56-.34,2.17-.81.92-.56,1.6-1.53,2.19-2.43.58-.89.72-1.79.92-2.78.14-.69.29-1.39.25-2.09-.02-.33-.05-.65-.07-.97ZM357.71,429.98c-.17-.73-.52-1.37-.95-1.96-.32-.44-.65-.88-1.01-1.3-.63-.73-1.38-1.02-2.25-1.34-1.51-.56-3.43.09-4.52,1.19-.64.66-1.04,1.45-1.33,2.32-.19.42-.37.84-.49,1.29-.02.07-.04.14-.05.2-.2.64-.22,1.27-.13,1.9h0c.07.63,0,1.14.21,1.83.04.14.12.28.18.42.14.34.28.68.43,1.01.01.03.03.06.04.09-.01-.03-.03-.06-.04-.09.07.15.13.3.21.44.61.99,1.43,1.66,2.56,1.97.88.24,1.83.23,2.71,0,.09-.02.19-.05.28-.08.99-.33,1.21-.47,1.91-1.01.61-.47,1.07-.99,1.47-1.66.08-.14.15-.28.22-.43.5-1.09.8-1.68.81-2.91,0-.62-.12-1.26-.26-1.87ZM148.84,475.15c-.05-.4-.11-.76-.2-1.15-.02-.1-.04-.2-.07-.3-.21-.72-.61-1.26-1.08-1.84-.49-.49-1.07-.82-1.73-1.01-.7-.19-1.39-.19-2.09,0-.81.18-1.46.72-2.08,1.23-.17.14-.35.27-.52.43-.15.19-.3.38-.44.57-.41.45-.69.97-.83,1.58-.02.12-.04.24-.06.37-.04.24-.08.49-.12.73-.16,1-.25,1.76.02,2.75.3,1.09,1.04,2.05,2.01,2.62.27.16.59.34.88.4.35.08.76.12,1.14.14.25.02.23,0,.66-.06.62-.08,1.11-.23,1.67-.57.76-.46,1.38-1.13,1.82-1.91.12-.21.23-.43.35-.64.23-.43.5-.89.61-1.36.15-.69.17-1.31.08-1.99ZM210.71,512.75c-.09-.76-.19-1.5-.59-2.18-.47-.81-1.21-1.41-2.06-1.77-.73-.31-1.45-.4-2.24-.3-1.02.14-1.67.55-2.48,1.19-.61.49-1.17.91-1.65,1.54-.49.64-.8,1.35-1.14,2.08-.28.6-.61,1.21-.73,1.86-.11.64-.25,1.33-.27,1.98-.04,1.17.27,2.49.88,3.48-.14-.33-.28-.66-.42-.98.17.91.67,1.62,1.18,2.36.57.83,1.38,1.14,2.36.96.68-.13,1.28-.29,1.88-.56.97-.32,1.91-.93,2.62-1.64.97-.98,1.6-2.15,2.07-3.43.2-.54.43-1.08.58-1.63.28-1.01.13-1.96.02-2.97ZM268.9,519.98c-.07-.54-.14-1.08-.22-1.62-.15-.52-.36-1.02-.63-1.48-.11-.17-.83-1.13-.98-1.26-.03-.03-.07-.06-.1-.08-.42-.35-.87-.69-1.31-1.01-.45-.19-.89-.38-1.34-.56-.75-.23-1.49-.27-2.24-.1-.51,0-.98.13-1.42.38-.28.09-.52.22-.77.36,0,0,0,0,.01,0,0,0,0,0-.01,0-.37.21-.73.47-1.03.8-.04.04-.08.07-.12.1.19-.14.37-.29.56-.43-.27.19-.58.35-.78.61-.75.76-1.27,1.65-1.56,2.68-.02.1-.04.2-.07.29-.3,1.19-.27,1.56-.13,2.59.06.46.07.66.16,1.01.02.08.04.17.06.26.12.6.09.66.61,1.57.33.57.68.97,1.09,1.33,0,0,0,.01.01.01.29.31.62.54.98.74.02.01.04.03.06.04l-.03-.03c.2.11.41.23.64.3.29.17.61.25.93.3.42.11.84.15,1.26.13.12,0,.25-.02.37-.03.13-.02.27,0,.41-.04.99-.13.58-.02,1.49-.41.78-.33,1.24-.55,1.91-1.24.03-.03.06-.06.09-.1.07-.08.14-.16.21-.25.73-.91,1.38-1.65,1.66-2.84.08-.35.22-1.35.23-1.7,0-.06,0-.13,0-.19,0-.06,0-.11,0-.16ZM337.23,531.42c-.01-.08-.03-.15-.04-.23-.05-.26-.12-.53-.2-.78-.04-.12-.08-.25-.13-.37-.08-.22-.18-.44-.27-.66-.11-.4-.31-.75-.61-1.04-.21-.35-.49-.64-.85-.85-.15-.17-.33-.3-.53-.4-.72-.42-1.5-.63-2.34-.63-.83,0-1.61.21-2.34.63-.35.23-.68.49-.99.76-.59.59-.99,1.28-1.21,2.08-.03.09-.05.18-.08.28-.01.04-.03.07-.04.11-.2.42-.44.96-.49,1.18-.02.1-.02.21-.04.31-.02.13-.04.26-.06.39-.08.46-.18,1.01-.2,1.48-.04.93.32,1.88.74,2.69.32.6.76,1.08,1.32,1.44.49.45,1.08.76,1.74.92,1.34.3,2.74.2,3.95-.52.33-.2.83-.59,1.12-.85.68-.62,1.06-1.49,1.35-2.34.04-.13.08-.25.12-.38.02-.08.04-.16.06-.24,0-.03.01-.06.02-.1.06-.47.13-.93.19-1.4,0-.45-.13-1.05-.2-1.49ZM419.77,431.97c-.23-.76-.58-1.39-1.02-2.03-.38-.56-.76-1.02-1.33-1.39-.51-.33-1.5-.65-2.13-.47-1.31.37-2.06.97-2.74,2.13-.37.63-.68,1.27-.87,1.98-.23.83-.48,1.61-.47,2.49,0,.49.04,1,.07,1.49.05.81.25,1.52.5,2.28.3.88.76,1.55,1.37,2.24.17.19.33.38.49.58,0,.01.24.31.27.37.11.18.2.39.29.59.23.48.86.45,1.2.16.52-.45,1.1-.79,1.67-1.18.81-.55,1.49-1.14,1.96-2.01.38-.69.78-1.43.91-2.21.13-.82.34-1.73.32-2.54-.02-.81-.25-1.69-.49-2.47ZM388.53,541.07c0-.39-.1-.74-.29-1.08-.07-.18-.14-.35-.22-.53-.22-.29-.44-.57-.66-.86-.29-.22-.57-.44-.86-.67-.03-.01-1-.43-1.03-.43-.37-.1-.95-.15-1.15-.16-.02,0-.05,0-.07,0,0,0-.01,0-.02,0,0,0-.01,0-.02,0-.34.05-.68.09-1.02.14,0,0,0,0-.01,0-.36.09-.68.25-.97.46.02-.01.03-.03.05-.04,0,0-.02.01-.03.02,0,0-.02,0-.02.01-.05.04-.1.08-.15.12-.05.04-.11.07-.16.11-.01,0-.02.03-.03.04-.12.09-.25.19-.37.28,0,0,0,0,0,0,0,0,0,0-.01.01-.05.04-.09.07-.14.11-.42.39-.71.84-.88,1.37-.14.34-.25.58-.32.86-.01.05-.04.09-.05.14-.05.37-.1.75-.15,1.12-.02.58.1,1.12.36,1.62.1.36.28.67.54.93.3.46.69.82,1.18,1.09l1.01.42c.75.2,1.49.2,2.24,0,.35-.14.72-.24,1.04-.44,0,0,.01,0,.02-.01.06-.04.8-.61.86-.67.01-.01.03-.02.04-.04,0,0,.01-.01.02-.02.1-.12.58-.74.67-.87.01-.02.02-.04.04-.06,0-.02.02-.03.02-.05,0,0,0-.01,0-.02l.43-1.01c.09-.23.09-.53.13-.75.09-.75.09-.4,0-1.15ZM432.57,327.71c-.03-.11-.05-.22-.07-.32-.02-.18-.04-.37-.09-.55-.12-.51-.36-.96-.71-1.34-.28-.43-.64-.77-1.1-1.01-.05-.03-.1-.06-.15-.09-.09-.06-.18-.12-.27-.18-.27-.2-.57-.34-.92-.4-.32-.04-.65-.09-.97-.13-.34-.01-.67.03-.99.13-.61.17-1.14.48-1.6.93-.46.37-.57.71-.77,1.19-.17.29-.25.59-.25.93-.06.18-.08.36-.06.54,0,.07.01.14.02.22.04.4.1.8.16,1.2.04.22.11.31.22.57.09.33.26.62.51.87.28.43.65.77,1.1,1.01.33.18.72.34,1.08.46.06.02.13.04.2.06.16.04.32.07.48.09.6.16,1.21.16,1.81,0,.58-.16,1.08-.45,1.5-.88.85-.85,1.22-2.16.88-3.32Z"/>
</svg>