<?xml version="1.0" encoding="utf-8"?>
<!-- Generator: Adobe Illustrator 27.8.0, SVG Export Plug-In . SVG Version: 6.00 Build 0)  -->
<svg version="1.1" id="Layer_1" xmlns="http://www.w3.org/2000/svg" xmlns:xlink="http://www.w3.org/1999/xlink" x="0px" y="0px"
	 viewBox="0 0 140 205.4" style="enable-background:new 0 0 140 205.4;" xml:space="preserve">
<style type="text/css">
	.st0{fill:#728437;}
	.st1{fill:#A1BD3A;}
	.st2{fill:#EEC51A;}
	.st3{fill:#DF9D26;}
	.st4{fill:#262425;}
	.st5{fill:#FFFFFF;}
</style>
<g id="Pineapple">
	<path id="Leafs-shadow" class="st0" d="M132.7,46.2c-2.2-1-4.5-1-6.8-1.1c-1.3,0-2.5,0-3.8-0.1c-0.7,0-1.3,0-2,0
		c-0.7,0-1,0-1.6,0.5c-0.3,0.2-0.4,0.7-0.1,0.9c0.4,0.4,0.7,0.6,1.2,0.6c0.3,0,0.7,0,1,0.1c-1.1,0.5-2.2,0.9-3.4,1.3
		c-1.3,0.4-1.4,1.8-0.9,2.7c-0.7,0.6-1.4,1.3-2.1,2c-1.1,1.1,0,3.4,1.6,2.8c3.1-1.1,6.3-2.3,9.4-3.5c2.7-1,5.6-1.9,7.6-4.1
		C133.4,47.7,133.5,46.6,132.7,46.2z M113.6,21.6c-3.6,1.9-7,4-10.2,6.4c-1.6,1.2-3.1,2.5-4.6,3.8c-1.5,1.3-3,2.7-4.1,4.4
		c-0.5,0.8,0.5,1.8,1.3,1.3c0.6-0.4,1.1-0.8,1.6-1.2c-1,1.3-2,2.7-2.9,4.1c-0.7,1.1,0.5,2.7,1.7,2.3c0.2-0.1,0.4-0.1,0.5-0.2
		c0.1,0,0.2,0,0.3,0.1c0,0,0,0,0,0c0.1,0,0.1,0,0.2,0c0.1,0,0.2,0,0.3,0c0.6-0.1,1.2-0.5,1.7-0.9c1.4-0.5,2.7-0.9,4.1-1.3
		c1.1-0.3,2.3-0.6,3.4-0.9c1.1-0.3,1.9-0.8,2.4-1.8c1.2-2.2,2.1-4.6,3.1-6.8c1.1-2.4,2.1-4.8,3.2-7.1
		C116.1,22.3,114.9,20.9,113.6,21.6z M78.2,23.3c-0.6-4.8-1.4-9.5-2.5-14.1c-0.3-1.2-2.3-1.7-2.9-0.4c-1.5,3.4-3.1,6.8-4.1,10.4
		c-0.5,1.8-0.9,3.5-1.2,5.3c-0.1,0.8-0.2,1.7-0.3,2.5c-0.1,1,0.1,1.9,0.3,2.8c0.1,0.8,1.5,0.8,1.7,0c0.1-0.7,0.3-1.5,0.4-2.2
		c0.1,1,0.2,2.1,0.3,3.1c0.1,1,0.1,2.2,0.5,3.2c0.9,2.5,3.6,1.6,5.3,0.6c1.7-1,2.9-2.5,3-4.5C78.8,27.9,78.4,25.5,78.2,23.3z
		 M58.7,32c-0.3-0.5-0.8-0.7-1.2-1.1c-0.3-0.4-0.6-0.7-0.9-1c-0.7-0.7-1.3-1.4-2-2c-2.8-2.6-5.8-4.9-9.1-6.7
		c-1.4-0.8-3.2,0.5-2.8,2.1c0.8,2.7,1.8,5.3,2.8,7.9c0.6,1.3,1.1,2.7,1.8,4c0.6,1.2,1.3,2.9,2.7,3.3c0.5,0.1,0.9,0,1.3-0.4
		c0.3,0.4,0.6,0.8,1,1.1c0.5,0.4,1,0.6,1.6,0.6c0.7,0.7,1.6,1.2,2.7,1.2c1.3,0,2.1-1.1,2.2-2.2c0.1-1,0.2-2.1,0.2-3.1
		C59,34.4,59.3,33,58.7,32z"/>
	<path id="Leafs" class="st1" d="M138.8,54.4c-2-0.6-4.1-0.9-6.2-1.1c-1.4-0.4-2.9-0.5-4.1-0.6c-3.8-0.5-7.7-0.5-11.6-0.3
		c1-0.7,1.9-1.4,2.8-2.1c5.1-4.2,9.1-9.5,11.8-15.6c0.3-0.8,0.2-1.5-0.5-2c-2.6-1.9-6-1.3-8.9-0.8c-3.6,0.6-7.2,1.3-10.7,2.3
		c-4.3,1.3-8.5,3.3-12.1,6c0.9-2.3,1.6-4.7,2.2-7.1c1.6-6.7,2-13.7,1.2-20.5c-0.5-3.9-1.3-7.8-2.6-11.6c-0.3-0.9-1.3-1.3-2.1-0.9
		C85.3,6.3,76,18.9,73.3,32.8c-0.1,0.4-0.1,0.8-0.2,1.1c-0.9-2-1.8-4-2.8-5.9c-1.7-3.2-3.5-6.4-5.4-9.6c-1.7-3-3.7-5.9-6.4-8.1
		c-1-0.8-2.3-0.5-2.8,0.7c-2.6,7.2-3.9,15.1-1.9,22.6c0.5,1.9,1.2,3.7,2.1,5.4c-1.4-1.1-2.8-2.1-4.3-3c-2.7-1.8-5.6-3.3-8.5-4.7
		c-2.2-1-4.7-2-7.2-2c-0.5-0.2-0.9-0.4-1.4-0.5c-1.4-0.3-2.9-0.3-4.3-0.1c-0.9,0.1-1.3,1.2-1.1,2c3.1,11.6,15.8,20.9,26.2,25.6
		c3.5,1.6,7.2,2.7,11.1,3.2c2.8,0.4,6.1,0.6,9-0.2c0.9,1.2,2.4,1.7,3.8,2.3c1.6,0.7,3.1,1.3,4.7,1.9c3,1.1,6.1,2,9.2,2.7
		c6.3,1.5,12.8,2.1,19.3,1.5c6.5-0.6,12.9-2.4,18.6-5.6c0.1-0.1,0.2-0.1,0.4-0.2c0.7-0.2,1.3-0.5,2-0.8c2.6-1,5.1-2.3,6.6-4.7
		C140.3,55.9,139.8,54.7,138.8,54.4z M122.2,58.5c-3.3-2.5-7.7-2.5-11.7-2.2c-4.3,0.3-8.5,1-12.7,1.5c-4.2,0.6-8.3,1.2-12.5,1.7
		c0.1-0.1,0.2-0.1,0.3-0.2c3.6-2.2,7.3-4.2,11-6.1c3.7-1.9,7.5-3.8,11.4-5.5c1.9-0.8,3.8-1.7,5.8-2.5c0.9-0.4,1.9-0.8,2.7-1.3
		c1-0.6,1.6-1.2,2.4-2c0.1-0.1,0-0.3-0.1-0.3c-1.1-0.1-2.1-0.2-3.3,0c-1,0.2-2,0.5-3,0.9c-2.1,0.7-4.2,1.5-6.2,2.3
		c-4,1.6-8,3.4-12,5.3c-3.9,1.9-7.7,4-11.3,6.2c-1.3,0.8-2.6,1.6-3.8,2.5c0.1-0.2,0.2-0.4,0.2-0.6c0.9-2,1.8-4.1,2.7-6.1
		c1.8-4.2,3.5-8.6,5-12.9c1.5-4.3,3-8.7,4-13.2c0.5-2.2,1-4.3,1.5-6.5c0.2-1.2,0.5-2.3,0.6-3.5c0.1-1,0.4-2,0-3
		c-0.1-0.3-0.4-0.4-0.6-0.2c-0.7,0.7-1,1.7-1.3,2.6c-0.4,1.1-0.7,2.3-1.1,3.4c-0.6,2.1-1.3,4.3-2,6.4c-1.4,4.2-2.8,8.5-4.3,12.7
		c-1.5,4.2-3.1,8.3-4.9,12.4c-0.9,2-1.8,4.1-2.8,6.1c-0.5,1.1-1,2.1-1.5,3.2c0,0.1-0.1,0.2-0.1,0.3c-0.1-0.1-0.1-0.2-0.2-0.3
		c-0.2-0.2-0.3-0.5-0.4-0.8c-0.3-0.5-0.6-0.9-0.8-1.5c-0.1-0.1-0.2-0.3-0.3-0.5c-0.1-0.7-0.2-1.3-0.3-1.9c-0.7-3.8-1.4-7.6-2.5-11.3
		c-1-3.7-2.3-7.4-3.6-11c-1.3-3.4-2.7-6.9-4.9-9.8c-0.2-0.2-0.4,0-0.4,0.2c0.5,3.4,1.6,6.6,2.6,9.9c1,3.3,1.9,6.7,2.6,10.1
		c0.7,3.3,1.4,6.7,1.9,10.1c0.2,1.2,0.3,2.5,0.5,3.7c-0.6-0.9-1.2-1.7-1.8-2.4c-1.8-2.3-4-4.2-6.5-5.9c-2.8-1.8-5.7-3.3-8.7-4.9
		c-1.4-0.8-2.9-1.5-4.3-2.3c-1.4-0.7-2.7-1.5-4.4-1.5c-0.2,0-0.3,0.2-0.2,0.3c0.7,1.3,1.8,2,3.1,2.8c1.3,0.9,2.7,1.8,4.1,2.6
		c2.6,1.7,5.3,3.2,7.9,5c2.3,1.5,4.3,3.4,6,5.6c0.8,1,1.5,2.1,2.1,3.2c0.7,1.3,1.2,2.6,2.2,3.6c0.7,0.7,1.7,0.4,2.2-0.3
		c1-0.1,1.6-0.5,2-1.1c0,0,0,0,0,0c0.2,0.3,0.4,0.6,0.7,0.9c0.2,0.2,0.6,0.5,1,0.6c0.1,0.1,0.1,0.2,0.2,0.2c0,0.1,0,0.1-0.1,0.2
		c-0.2,0.9,0.2,1.7,1.1,2c1.1,0.4,1.9-0.1,2.9-0.5c0.8-0.3,1.6-0.5,2.3-0.7c1.8-0.4,3.6-0.7,5.5-0.9c4.1-0.6,8.2-1.1,12.2-1.7
		c3.9-0.5,7.7-1.2,11.6-1.5c3.9-0.3,7.7,0.1,11.6,0.1C122.8,60.5,123,59.1,122.2,58.5z"/>
	<path id="Body" class="st2" d="M120.6,117.1c-0.7-18.3-5.2-37.2-18.1-50.9c-11.7-12.4-29-18.8-45.5-13C40.2,59,26.8,73.7,17.6,88.6
		c-7.6,12.2-12.7,26-15,40.1c-0.6,2.5-1.1,5-1.5,7.6c-2.8,18.2-0.2,39.6,12.5,53.8c6.2,6.9,14.6,10.3,23.5,12.1
		c4.7,1,9.5,1.6,14.2,2.2c5.4,0.7,10.8,1.2,16.2,0.8c18.6-1.3,34.6-13.4,43.3-29.5c4.7-8.7,7.3-18.2,8.6-28
		C120.7,137.7,121.1,127.3,120.6,117.1z"/>
	<path id="Pineapple-shadow" class="st3" d="M110.8,175.8c4.7-8.7,7.3-18.2,8.6-28c1.3-10.1,1.7-20.6,1.3-30.8
		c-0.6-14.7-3.6-29.7-11.3-42.1c0.9,10.2,1.8,20.4,0.6,30.6c-1.5,12.9-6.1,25.2-11.9,36.8c-5.8,11.6-13.1,22.6-23,31
		c-9.9,8.3-22.8,13.7-35.7,12.6C21.1,184.4,5.9,170,0.1,152.7c0.5,13.6,4.4,27.3,13.5,37.5c6.2,6.9,14.6,10.3,23.5,12.1
		c4.7,1,9.5,1.6,14.2,2.2c5.4,0.7,10.8,1.2,16.2,0.8C86.1,204,102,191.9,110.8,175.8z"/>
	<path id="Cruves-_1" class="st4" d="M112.8,86.1c-1.8,1.6-3.9,2.9-6,4.2c-2,1.2-4.4,2-6.7,2.1c-2.9,0.2-5.8-0.8-7.7-2.8
		c0.2-0.2,0.3-0.3,0.5-0.5c1.9-2.1,3.2-4.9,3.1-7.7c-0.1-3-2.7-4.9-5.4-3.2c-2.5,1.6-3.2,4.7-2.8,7.5c0.2,1.2,0.6,2.4,1.2,3.5
		c-1.6,1.1-3.4,1.8-5.2,2.1c-4.3,0.5-8.5-1.6-11.3-4.6c-0.3-0.4-0.7-0.8-1-1.2c0.5-0.5,1-1,1.5-1.7c1.6-2.2,1.9-5.5,0-7.6
		c-2.2-2.4-5.8-1-6.5,1.9c-0.5,2.2,0.4,4.6,1.6,6.6c-1.4,0.7-2.8,1.1-4,1.3c-4.7,0.5-9.8-1.1-12.5-5.2c-0.4-0.7-0.9-1.5-1.2-2.4
		c0.1,0,0.3-0.1,0.4-0.1c2.3-0.8,5.1-3.8,3.4-6.3c-1.5-2.3-5-1.4-6.1,0.8c-0.6,1.2-0.8,2.6-0.6,4c-1-0.1-2-0.5-2.8-1
		c-2.1-1.5-3-4.1-3.5-6.5c-0.2-0.9-1.6-0.7-1.5,0.2c0.2,4.6,3.7,9.3,8.2,9.4c0.3,0.9,0.6,1.8,1.1,2.5c1.6,2.8,4.1,5,7.1,6.2
		c4.1,1.6,9.4,1.7,13.4-0.6c0,0.1,0.1,0.1,0.1,0.2c1.9,2.4,4.4,4.4,7.2,5.6c4.6,1.9,9.8,1.4,13.8-1.4c0.6,0.7,1.3,1.3,2,1.8
		c5.5,3.7,13.7,2.4,18-2.5c1.1-1.2,1.9-2.6,2.7-4C113.4,86.1,113.1,85.9,112.8,86.1z M50.1,73.8c0.3-0.6,1.4-1.6,2.1-0.9
		c0.9,0.9-0.9,2.5-1.6,2.9c-0.3,0.2-0.6,0.3-0.9,0.4C49.7,75.4,49.7,74.6,50.1,73.8z M69.4,77.5c1-0.7,1.8,0.2,2,1.1
		c0.6,1.8-0.2,3.3-1.5,4.5c-0.4-0.8-0.8-1.6-1.1-2.5C68.6,79.6,68.5,78.2,69.4,77.5z M92,79.9c2.4-1.2,1.4,3.1,1,4.1
		c-0.5,1.2-1.2,2.4-2.1,3.3c-0.3-0.6-0.5-1.3-0.7-2C89.8,83.5,90.1,80.9,92,79.9z"/>
	<path id="Cruves-_2" class="st4" d="M113,119.2c-0.6,0.3-1.3,0.5-1.8,0.9c-0.5,0.3-0.9,0.7-1.3,1c-1.1,0.9-2.2,1.8-3.5,2.4
		c-2.4,1.2-5.3,1.6-7.7,0.2c-0.1,0-0.2-0.1-0.2-0.1c2.2-1.9,3.7-4.6,3.7-7.6c0-3-1.7-6.5-4.9-7.2c-3.4-0.8-5.7,2.5-6,5.5
		c-0.2,3.2,1.1,6.5,3.1,9c0.2,0.2,0.3,0.4,0.5,0.5c-3.2,1.7-7.3,2-10.4,0c-1-0.6-1.9-1.4-2.6-2.3c1.3-1.3,2.3-2.8,3-4.4
		c0-0.1-0.1-0.2-0.2-0.1c-0.9,1.5-2,2.8-3.3,3.8c-0.7-1-1.3-2-1.7-3.1c-0.6-1.4-1-3.2-0.4-4.7c0.5-1.3,1.9-2.4,3.4-2.2
		c0.5,0.1,0.5-0.6,0.1-0.7c-3-1.2-5.3,1.5-5.6,4.3c-0.2,2.7,0.9,5.4,2.5,7.6c-1,0.5-2,1-3.1,1.3c-3.2,0.9-6.9,1-10.1,0.1
		c-3.4-1-6.5-3-8.3-6c1.2-1.2,2.1-2.7,2.7-4.4c0.7-2.1,0.9-5-0.6-6.9c-1.7-2.2-4.3-1-5.3,1.2c-1.4,3-1.1,6.5,0.1,9.5
		c-0.4,0.3-0.8,0.6-1.2,0.8c-3.6,1.8-8.1,1-11.3-1.3c-2.1-1.5-3.6-3.5-4.6-5.8c0.7-0.2,1.4-0.6,2-1c1.8-1.3,2.9-3.7,2.2-5.9
		c-0.7-1.9-2.8-3.1-4.8-2.8c-3.7,0.5-3.6,4.5-2.6,8c-2.7-0.2-5.7-1.8-7.4-3.1c-3.9-3-5.4-7.7-4.4-12.4c0.2-0.8-0.9-1.3-1.3-0.5
		c-2.5,4.8-0.1,10.7,3.7,14c2.5,2.2,6.5,4.2,10.1,4.2c0.4,0.9,0.7,1.7,1.1,2.3c2.6,4.6,7.4,7.8,12.8,7.9c2.5,0,4.9-0.7,6.9-2.1
		c0.7,1,1.5,2,2.3,2.8c4.1,3.7,9.8,5.4,15.2,4.3c2.3-0.5,4.7-1.6,6.6-3.1c0.1,0.1,0.2,0.2,0.3,0.3c2,2.3,4.9,3.9,8,4.1
		c2.8,0.2,5.5-0.7,7.9-2.2c2.1,1.5,4.7,2.1,7.4,1.5c2.1-0.4,4-1.4,5.7-2.6c0.8-0.6,1.6-1.2,2.3-1.9c0.8-0.8,1.1-1.6,1.6-2.6
		C113.5,119.3,113.2,119.1,113,119.2z M36.5,106.3c-0.2-1.3-0.4-3.9,1.7-3.5c1.8,0.4,2.1,2.3,1.2,3.7c-0.6,0.9-1.4,1.5-2.4,1.8
		C36.8,107.6,36.6,107,36.5,106.3z M56.5,110.1c0.1-0.8,0.3-2,0.9-2.6c0.7-0.7,1.1,0.4,1.2,1c0.5,2.2-0.4,4.5-1.8,6.3
		C56.4,113.2,56.2,111.6,56.5,110.1z M94.4,118.8c-0.8-2.1-1.5-5.4,0.3-7.1c2.2-2.1,4.6,0.9,5.1,3c0.6,2.4-0.3,4.9-1.9,6.7
		c-0.3,0.4-0.7,0.7-1.1,1C95.7,121.4,94.9,120.1,94.4,118.8z"/>
	<path id="Cruves-_3" class="st4" d="M111.8,155.9c-1.7,0.4-3.4,0.5-5.2,0.6c-1.6,0.1-3.4,0-4.9-0.5c-1.1-0.4-2.1-1-2.9-1.7
		c1.4-1.4,2.6-3,3.4-4.7c1-2.1,1.2-4.6-0.3-6.5c-1.5-1.9-4.1-2.1-5.9-0.6c-3.4,2.7-3.3,7.7-1.4,11.3c-0.3,0.2-0.5,0.4-0.8,0.6
		c-5.4,4-12.9,5.3-18.4,0.7c-0.4-0.3-0.7-0.7-1-1c0.8-1,1.6-2.1,2.1-3.3c1.4-2.9,1.6-8.6-2.7-9.2c-2.2-0.3-3.9,1.3-4.7,3.2
		c-0.8,2-0.7,4.3,0,6.3c0.3,1,0.8,2,1.4,3c-0.3,0.2-0.6,0.5-0.9,0.7c-2.7,1.9-6.1,2.8-9.4,2.6c-5.7-0.5-11.7-4.2-14-9.6
		c1.1-1.1,2.1-2.5,2.8-3.9c0.9-1.7,1.6-3.8,0.8-5.7c-0.9-2.1-3.2-2.1-4.7-0.7c-2.6,2.5-2.9,6.2-2,9.5c-0.1,0.1-0.2,0.2-0.3,0.2
		c-5.3,4-13.6,2.8-16.9-3.3c-0.5-0.9-0.8-2-1-3c3.3-1.4,6.4-4.8,5.4-8.6c-0.6-2.3-3-3-4.9-1.6c-1.8,1.3-2.7,3.8-3.1,5.9
		c-0.1,0.8-0.2,1.7-0.2,2.5c-4.8,0.9-10-2.4-12.2-6.7c-0.7-1.4-1.1-2.9-1.2-4.5c-0.1-1.4-2.2-1.3-2.2,0.2
		c0.2,7.8,8.1,14.9,15.9,13.5c0.6,2.8,2,5.3,4.2,7.2c3.4,2.9,8.1,4,12.4,3c1.8-0.4,3.5-1.2,5.1-2.3c1.9,3.8,5.2,6.8,8.9,8.6
		c4.2,2,9,2.6,13.5,1.2c2-0.6,3.9-1.7,5.6-3c1.6,1.8,3.7,3.2,5.9,4c4.4,1.7,9.3,1.2,13.6-0.8c1.7-0.8,3.3-1.8,4.9-3.1
		c2.5,2.4,6.2,3.6,9.6,3.2c2.3-0.3,4.3-1.3,6.2-2.7C112.7,156.5,112.4,155.8,111.8,155.9z M25.7,134.2c0.3-0.5,0.9-1.8,1.6-1.7
		c0.8,0,0.6,1.6,0.5,2.1c-0.3,1.4-1.3,2.5-2.4,3.3c-0.3,0.2-0.6,0.3-0.8,0.5C24.7,136.9,25.1,135.5,25.7,134.2z M45.6,141.5
		c0.2-0.6,0.5-1.2,0.9-1.7c0.4-0.5,0.7-1.1,0.9-0.3c0.3,1.4-0.6,2.9-1.2,4c-0.3,0.4-0.5,0.8-0.9,1.2
		C45.2,143.7,45.2,142.6,45.6,141.5z M71.6,147.3c0.1-0.9,0.7-2.9,1.9-2.6c1,0.2,1.1,1.8,1.1,2.6c-0.1,1.6-0.9,3.2-1.9,4.6
		C71.9,150.4,71.4,148.9,71.6,147.3z M96.4,149.5c-0.1-1.3,0.1-2.7,0.9-3.9c0.4-0.5,1-1.2,1.7-1c0.6,0.2,1,0.9,1,1.4
		c0.3,1.7-1.4,3.5-2.4,4.7c-0.2,0.3-0.5,0.6-0.8,0.8C96.6,151,96.4,150.3,96.4,149.5z"/>
	<path id="Cruves-_4" class="st4" d="M93,191.6c-0.7-0.1-1.3-0.5-1.9-0.6c-0.8-0.2-1.6-0.2-2.3-0.7c-0.2-0.1-0.4-0.3-0.6-0.4
		c1.5-1.8,2.5-3.9,2.7-6.2c0.2-2.2-1.2-6.2-4.2-5.4c-2.4,0.7-3,4.8-3,6.8c0,1.5,0.4,3.1,1.1,4.4c-3.7,3.1-9.4,3.6-13.6,0.8
		c1.7-1.8,2.8-4.1,2.9-7c0.1-2.2-0.7-4.7-2.6-6c-2-1.4-4.4-0.6-5.7,1.3c-2.6,3.5-1.3,8.5,1.4,11.7c-4.3,2.9-10.6,3.2-15.1,1.7
		c-3.4-1.2-6.3-3.7-7.6-7.1c1.2-0.8,2.2-1.9,2.8-3.2c1.5-3,0.9-6.7-1.8-8.7c-0.4-0.3-1.2-0.2-1.5,0.2c-2.4,2.9-3.1,6.7-2.4,10.4
		c-0.5,0.2-1,0.4-1.5,0.6c-4.7,1.5-10.1,0.4-13.6-3.1c-0.8-0.8-1.5-1.7-2.1-2.7c0.4-0.1,0.8-0.3,1.2-0.5c2.3-1.4,3.8-4.6,2-7
		c-1.5-2-4.7-2.6-6.3-0.4c-1.3,1.8-1,4.3-0.2,6.4c-1.6-0.2-3.2-0.9-4.5-1.6c-4.4-2.6-7.4-7.3-7.9-12.4c-0.1-0.6-1-0.6-0.9,0
		c0.2,5.9,3.7,11.4,8.8,14.2c1.6,0.8,3.4,1.5,5.3,1.6c0.1,0.2,0.2,0.4,0.3,0.6c3.2,6.1,10.2,9.1,16.8,7.9c1.2-0.2,2.3-0.6,3.4-1.1
		c1.6,4,5,6.9,9.1,8.3c5.3,1.8,12.8,1.1,17.7-2.3c3.6,2.7,8.5,3.6,12.8,2.1c1.6-0.6,3.2-1.5,4.6-2.6c0.1,0.1,0.2,0.2,0.4,0.3
		c1,0.7,2.1,1.2,3.3,1.4c1.3,0.2,2.2-0.4,3-1.4C93.1,191.8,93.1,191.6,93,191.6z M25.3,171.7c2.5,1.2,0.5,4.3-1.3,5
		c-0.1,0-0.2,0.1-0.3,0.1c-0.2-0.5-0.4-1.1-0.5-1.7C22.7,173.6,22.9,170.5,25.3,171.7z M44.9,176.1c0.8,1.3,0.8,2.9,0.1,4.3
		c-0.3,0.6-0.7,1.1-1.2,1.6C43.5,180,43.9,177.9,44.9,176.1z M67.8,180.1c1.2-1.6,2.8-0.6,3.4,0.9c0.6,1.7,0.3,3.6-0.4,5.2
		c-0.4,0.9-1,1.7-1.6,2.4C67.2,186.4,65.9,182.7,67.8,180.1z M86.2,183.4c0.1-0.4,0.2-0.9,0.4-1.3c0.1-0.2,0.4-1.2,0.6-1.3
		c0.7-0.1,0.9,1.8,0.9,2.2c0,1-0.3,2.1-0.7,3c-0.3,0.6-0.6,1.2-1,1.7c-0.2-0.5-0.3-1-0.4-1.5C85.9,185.3,86,184.3,86.2,183.4z"/>
	<path id="White_Dots" class="st5" d="M52.3,59.6C52.3,59.6,52.3,59.6,52.3,59.6c-0.2-0.4-0.5-0.7-0.9-0.9c-0.4-0.2-0.6-0.3-1-0.3
		c-0.2,0-0.5,0.1-0.7,0.1c-0.2,0.1-0.4,0.1-0.6,0.2c-0.3,0.1-0.5,0.2-0.8,0.5c0,0-0.1,0.1-0.1,0.1c-0.1,0.1-0.2,0.2-0.2,0.2
		c-0.4,0.5-0.6,1.1-0.3,1.7c0.1,0.3,0.3,0.5,0.5,0.6c0.3,0.2,0.6,0.4,1,0.3c0.2,0,0.5,0,0.7-0.1c0.2,0,0.3,0,0.4-0.1
		c0.1,0,0.2-0.1,0.2-0.1c0,0,0.1,0,0.1-0.1c0.2-0.1,0.5-0.2,0.7-0.3c0.3-0.2,0.5-0.4,0.7-0.7c0-0.1,0.1-0.1,0.1-0.2
		c-0.1,0.1-0.1,0.2-0.2,0.3c0.2-0.2,0.3-0.4,0.4-0.7c0-0.1,0-0.3,0-0.4c0,0,0,0,0,0C52.4,59.8,52.4,59.7,52.3,59.6z M57.4,60.3
		c-0.1-0.2-0.2-0.4-0.3-0.6c0,0,0,0,0,0c0,0-0.1-0.1-0.1-0.1c0,0,0-0.1-0.1-0.1c0,0,0,0,0,0c-0.1-0.1-0.2-0.2-0.4-0.3
		c-0.1,0-0.1-0.1-0.2-0.1c-0.1-0.1-0.2-0.1-0.2-0.1c-0.1-0.1-0.4-0.1-0.5,0.1c0,0,0,0,0,0c-0.5,0-0.9,0.2-1.2,0.5
		c-0.1,0.1-0.1,0.1-0.2,0.2c-0.1,0.1-0.1,0.2-0.2,0.2l0-0.1c-0.1,0.1-0.2,0.2-0.2,0.3c-0.1,0.1-0.3,0.3-0.4,0.5
		c-0.1,0.1-0.1,0.2-0.2,0.2c-0.1,0.3-0.2,0.5-0.2,0.8c0,0.2,0,0.4,0.1,0.6c0.1,0.2,0.2,0.4,0.3,0.5c0.2,0.2,0.4,0.3,0.7,0.4
		c0.4,0.1,0.8,0,1.2,0c0.4-0.1,0.8-0.3,1.1-0.6c0.2-0.2,0.4-0.4,0.5-0.6c0-0.1,0.1-0.1,0.1-0.2c0.1-0.2,0.2-0.4,0.2-0.6
		C57.5,60.9,57.5,60.6,57.4,60.3z M61.1,56.2c0,0.1,0,0.2,0,0.2C61.1,56.1,61.1,56.1,61.1,56.2z M61.1,56
		C61.1,55.9,61.1,55.9,61.1,56C61.1,55.9,61.1,55.9,61.1,56c-0.1-0.2-0.1-0.3-0.2-0.5c-0.1-0.1-0.2-0.2-0.3-0.4
		c-0.1-0.1-0.2-0.2-0.4-0.3c-0.1-0.1-0.3-0.1-0.4-0.2c0,0,0,0,0,0c-0.2,0-0.3,0-0.5-0.1c-0.1,0-0.1,0-0.2,0c-0.1,0-0.1,0-0.2,0
		c0,0,0,0,0,0c-0.3,0-0.5,0-0.7,0.2c-0.2,0-0.3,0.1-0.4,0.2c-0.1,0-0.1,0.1-0.2,0.2c-0.1,0.1-0.1,0.1-0.2,0.2
		c-0.2,0.1-0.3,0.3-0.3,0.5c-0.1,0.2-0.1,0.4-0.1,0.6c0,0.1,0,0.3,0.1,0.4c0.1,0.3,0.2,0.5,0.4,0.7c0.1,0.1,0.1,0.1,0.2,0.2
		c0,0,0,0,0,0l0.4,0.3c0.2,0.1,0.4,0.2,0.7,0.2c0.1,0,0.2,0,0.3,0c0.1,0,0.1,0,0.2,0c0.1,0,0.1,0,0.2,0c0.1,0,0.4,0,0.5-0.1
		c0.1,0,0.2-0.1,0.2-0.1c0.2,0,0.3-0.1,0.4-0.2c0.1-0.1,0.2-0.2,0.3-0.3c0.1-0.1,0.2-0.3,0.2-0.4c0.1-0.3,0.1-0.1,0.1-0.2
		c0,0,0,0,0,0c0-0.1,0-0.5,0-0.7C61.1,56.1,61.1,56,61.1,56z M65.7,58.4C65.7,58.3,65.7,58.3,65.7,58.4c0-0.1,0-0.2,0-0.2
		c0-0.1-0.1-0.3-0.2-0.4c0,0,0,0,0,0c-0.1-0.1-0.1-0.2-0.2-0.3c-0.1-0.1-0.2-0.1-0.2-0.2c0,0,0,0,0,0c0,0,0-0.1-0.1-0.1
		c-0.1-0.1-0.3-0.2-0.5-0.1c-0.1,0-0.1,0-0.2,0c-0.1,0-0.3,0-0.4,0.1c0,0,0,0,0,0c-0.1,0-0.3,0-0.4,0.1c-0.2,0-0.4,0.2-0.5,0.2
		c0.2-0.1,0.3-0.1,0.5-0.2c-0.2,0.1-0.4,0.1-0.6,0.2c-0.2,0.1-0.3,0.2-0.5,0.4c-0.1,0-0.1,0.1-0.2,0.1c-0.1,0-0.1,0.1-0.1,0.1
		c0,0,0,0,0,0.1c-0.1,0.1-0.2,0.2-0.3,0.3c-0.1,0.1-0.2,0.2-0.3,0.4l-0.2,0.4c0,0.2,0,0.3-0.1,0.5c0,0.2,0,0.5,0.2,0.7
		c0,0.1,0.1,0.3,0.2,0.4c0.1,0.1,0.2,0.2,0.3,0.3c0.1,0.1,0.2,0.2,0.4,0.2c0.2,0.1,0.4,0.2,0.7,0.2c0.3,0,0.6-0.1,0.9-0.1
		c0.5-0.1,0.8-0.4,1.2-0.7c0.1,0,0.1-0.1,0.2-0.1c0.3-0.3,0.4-0.6,0.6-1c0-0.1,0-0.2,0.1-0.3c0-0.2,0-0.2,0-0.3
		C65.9,59.3,65.8,58.5,65.7,58.4z M70.4,54.1c0-0.1-0.1-0.3-0.2-0.4c-0.1-0.1-0.2-0.2-0.3-0.3c-0.1-0.1-0.2-0.2-0.4-0.2
		c-0.2-0.1-0.4-0.1-0.6-0.1c0,0-0.1,0-0.1,0c0.1,0,0.1,0,0.2,0c-0.3,0-0.5-0.1-0.8,0c-0.1,0-0.1,0-0.2,0.1c-0.2,0.1-0.4,0.2-0.6,0.3
		c-0.2,0.1-0.3,0.3-0.4,0.5c-0.1,0.1-0.1,0.3-0.2,0.4c-0.1,0.2-0.1,0.4,0,0.7c0,0.2,0,0.3,0.1,0.4c0.1,0.2,0.2,0.4,0.3,0.5
		c0.1,0.1,0.2,0.2,0.3,0.3c0.3,0.2,0.5,0.2,0.9,0.2c0,0,0.1,0,0.1,0c0,0,0,0,0.1,0c0.1,0,0.2,0,0.3,0c0.1,0,0.2,0,0.3,0
		c0.1-0.1,0.3-0.1,0.4-0.2c0,0,0,0,0,0c0.1-0.1,0.2-0.2,0.4-0.3c0,0,0.1-0.1,0.1-0.1c0.1-0.1,0.2-0.2,0.3-0.3
		c0.1-0.1,0.1-0.3,0.2-0.4c0-0.1,0-0.3,0.1-0.4C70.6,54.6,70.5,54.3,70.4,54.1z"/>
	<path id="Pineapple_dots" class="st3" d="M63.3,75c0-0.1,0-0.2-0.1-0.3c-0.1-0.2-0.1-0.3-0.3-0.4c0,0,0,0,0,0c0,0,0,0-0.1,0
		c-0.1-0.1-0.1-0.1-0.2-0.2c-0.2-0.1-0.5-0.1-0.7-0.1c0,0,0.1,0,0.1,0c-0.1,0-0.3,0-0.4,0.1c-0.2,0.1-0.4,0.2-0.6,0.4
		c0,0-0.1,0.1-0.1,0.1c-0.3,0.3-0.4,0.6-0.5,1c0,0,0-0.1,0-0.1c-0.1,0.1-0.1,0.2-0.1,0.3c0,0.2,0,0.4,0,0.6c0,0.1,0.1,0.2,0.1,0.3
		c0,0,0,0,0,0c0.1,0.3,0.4,0.5,0.7,0.6c0.1,0,0.3,0.1,0.5,0.1c0.4,0,0.8-0.2,1.1-0.5c0,0,0.1-0.1,0.1-0.1c0.1-0.1,0.2-0.2,0.2-0.3
		c0.1-0.2,0.2-0.4,0.2-0.6c0-0.1,0-0.3,0-0.4C63.3,75.1,63.3,75.1,63.3,75z M36.8,88.5c-0.1-0.4-0.4-0.7-0.8-0.8
		c-0.1,0-0.3-0.1-0.4-0.1c-0.2,0-0.4,0.1-0.7,0.2c-0.1,0.1-0.2,0.1-0.3,0.2c0,0-0.1,0.1-0.1,0.1c-0.2,0.2-0.4,0.4-0.6,0.6
		c-0.2,0.2-0.3,0.5-0.3,0.8c0,0.2-0.1,0.4-0.1,0.6c0,0.3,0.1,0.6,0.3,0.9c0.1,0.2,0.3,0.4,0.5,0.5c0.2,0.1,0.4,0.2,0.7,0.2
		c0.3,0,0.5-0.1,0.7-0.2c0.2-0.1,0.4-0.3,0.5-0.5c0,0,0-0.1,0.1-0.1c0.1-0.1,0.1-0.3,0.2-0.4c0-0.1,0-0.2,0-0.3c0-0.1,0-0.2,0.1-0.2
		c0-0.1,0.1-0.2,0.1-0.3c0-0.1,0-0.3,0.1-0.4C36.9,89.1,36.9,88.8,36.8,88.5z M50.3,104.6c0-0.1,0-0.1-0.1-0.2
		c-0.1-0.2-0.1-0.4-0.2-0.5c-0.1-0.2-0.2-0.3-0.4-0.4c-0.1-0.1-0.3-0.2-0.5-0.3c-0.1,0-0.3,0-0.4-0.1c-0.3,0-0.5,0.1-0.8,0.2
		c-0.1,0-0.1,0.1-0.2,0.1c0,0,0,0,0,0c-0.1,0.1-0.1,0.1-0.2,0.2c-0.1,0.1-0.2,0.2-0.3,0.3c-0.2,0.2-0.3,0.4-0.3,0.6
		c0,0,0,0.1-0.1,0.1c-0.1,0.1-0.1,0.3-0.1,0.5c0,0.1,0,0.2,0,0.3c0,0.1,0,0.1,0,0.2c0,0.2,0,0.3,0.1,0.5c0.1,0.1,0.1,0.3,0.2,0.4
		c0.1,0.1,0.2,0.2,0.3,0.3c0.1,0.1,0.2,0.2,0.3,0.3c0.1,0.1,0.3,0.1,0.4,0.2c0.3,0.1,0.6,0.1,0.9,0c0.1-0.1,0.3-0.1,0.4-0.2
		c0.3-0.2,0.7-0.5,0.9-0.8c0.1-0.2,0.2-0.4,0.2-0.6c0,0,0-0.1,0-0.1c0-0.1,0-0.2,0-0.3C50.4,105.1,50.4,104.9,50.3,104.6z
		 M73.4,110.3c0-0.1,0-0.2-0.1-0.3c0,0,0-0.1,0-0.1c0-0.2-0.1-0.3-0.3-0.5c-0.1-0.2-0.2-0.3-0.4-0.4c-0.3-0.2-0.7-0.3-1.1-0.1
		c-0.1,0-0.2,0-0.3,0.1c-0.2,0-0.3,0.1-0.4,0.2c-0.1,0.1-0.2,0.2-0.4,0.3c0,0,0,0-0.1,0.1c-0.1,0-0.1,0.1-0.2,0.1
		c0,0-0.1,0.1-0.1,0.1c-0.3,0.3-0.4,0.6-0.5,0.9c0,0.1-0.1,0.1-0.1,0.2c-0.1,0.2-0.1,0.4-0.1,0.6c0,0.6,0.3,1.2,0.8,1.5
		c0.3,0.2,0.6,0.2,0.9,0.2c0.3,0,0.6-0.1,0.9-0.2c0.2-0.1,0.5-0.3,0.6-0.5c0,0,0,0,0.1-0.1c0.1-0.1,0.2-0.3,0.3-0.4
		c0.1-0.1,0.1-0.3,0.2-0.4c0-0.1,0-0.1,0.1-0.2c0-0.1,0-0.1,0.1-0.2c0,0,0-0.1,0-0.1c0,0,0,0,0,0C73.4,110.7,73.4,110.5,73.4,110.3z
		 M84.5,79.4c0-0.1,0-0.2,0-0.3c0-0.2,0-0.4-0.1-0.6c0,0,0-0.1,0-0.1c0,0,0-0.1,0-0.1c0,0,0,0,0-0.1c-0.1-0.2-0.2-0.4-0.3-0.6
		c-0.1-0.1-0.2-0.2-0.3-0.3c0-0.1-0.1-0.1-0.2-0.1c0,0,0,0,0,0c-0.2-0.1-0.5-0.2-0.7-0.2c0,0,0,0-0.1,0c-0.2,0-0.4,0-0.6,0.1
		c-0.2,0.1-0.4,0.2-0.5,0.3c-0.1,0.1-0.2,0.3-0.3,0.4C81.1,77.8,81,77.9,81,78c-0.1,0.2-0.2,0.3-0.2,0.5c0,0.2-0.1,0.4-0.1,0.6
		c0,0.1,0,0.1,0,0.2c0,0.2,0,0.4,0.1,0.6c0.1,0.3,0.3,0.6,0.5,0.8c0,0,0,0,0,0c0.2,0.2,0.4,0.3,0.6,0.4c0.1,0,0.1,0.1,0.2,0.1
		c0,0,0,0,0.1,0c0,0,0,0,0,0c0,0,0,0,0,0c0.2,0.1,0.4,0.1,0.6,0c0.1,0,0.3,0,0.4-0.1c0.1,0,0.2-0.1,0.3-0.1c0.1-0.1,0.2-0.1,0.3-0.2
		c0,0,0,0,0.1-0.1c0.1-0.1,0.1-0.1,0.2-0.2c0.1-0.1,0.1-0.1,0.2-0.2c0.1-0.1,0.2-0.3,0.2-0.5c0.1-0.2,0.1-0.4,0-0.6
		C84.4,79.3,84.4,79.3,84.5,79.4z M105.4,80.7c-0.1-0.4-0.5-0.8-0.9-0.9c-0.5-0.1-0.9,0-1.3,0.3c-0.2,0.1-0.3,0.4-0.4,0.5
		c0.1-0.1,0.1-0.2,0.2-0.3c-0.2,0.2-0.3,0.4-0.4,0.7c0,0.1,0,0.3-0.1,0.5c0,0,0,0.1,0,0.1c0,0,0,0.1,0,0.1c0,0,0,0,0,0c0,0,0,0,0,0
		c0,0.1,0,0.3,0,0.4c0,0,0,0.1,0,0.1c0.1,0.1,0.1,0.3,0.2,0.4c0.2,0.4,0.7,0.6,1.2,0.5c0.2,0,0.4-0.1,0.5-0.2
		c0.3-0.2,0.5-0.4,0.6-0.7c0.2-0.3,0.3-0.6,0.3-1C105.5,81.2,105.5,80.9,105.4,80.7z M88.9,117.8c-0.1-0.2-0.1-0.3-0.3-0.4
		c0,0-0.1-0.1-0.1-0.1c-0.3-0.3-0.7-0.4-1.1-0.3c-0.4,0.1-0.7,0.4-0.8,0.8c0,0,0,0.1,0,0.1c0,0.1-0.1,0.2-0.1,0.4
		c0,0.2,0.1,0.4,0.2,0.6c0.1,0.1,0.1,0.2,0.2,0.3c0,0,0.1,0.1,0.1,0.1c0.1,0.1,0.3,0.3,0.5,0.3c0.1,0,0.2,0,0.3,0c0.1,0,0.2,0,0.3,0
		c0.4-0.1,0.7-0.4,0.8-0.8c0,0,0-0.1,0-0.1c0-0.1,0-0.2,0-0.4C89,118.1,89,117.9,88.9,117.8z M18,127.4C18,127.4,18,127.4,18,127.4
		c0.1-0.2,0.1-0.5,0-0.7c-0.1-0.3-0.4-0.5-0.7-0.6c-0.2,0-0.4-0.1-0.6-0.1c-0.2,0-0.3,0-0.5,0.1c-0.3,0.1-0.6,0.2-0.8,0.4
		c-0.2,0.2-0.4,0.4-0.5,0.6c0,0,0,0,0,0c-0.1,0.1-0.1,0.3-0.2,0.4c0,0.1-0.1,0.3-0.1,0.5c0,0,0,0.1,0,0.1c0,0.2,0,0.4,0.1,0.7
		c0.1,0.3,0.2,0.5,0.4,0.7c0,0,0.1,0.1,0.1,0.1c0,0,0,0,0,0c0.6,0.6,1.7,0.5,2.2-0.1c0,0,0,0,0,0c0.2-0.2,0.3-0.4,0.4-0.7
		c0-0.3,0.2-0.5,0.2-0.8c0-0.1,0-0.2,0-0.3c0,0,0-0.1,0-0.1c0,0,0-0.1,0-0.1l0,0C18,127.6,18,127.5,18,127.4
		C18,127.4,18,127.4,18,127.4C18,127.4,18,127.4,18,127.4z M37.5,140.7c0-0.1,0-0.2,0-0.3c0,0,0-0.1,0-0.1c0-0.3,0-0.4-0.1-0.6
		c0,0,0,0.1,0,0.1c-0.1-0.2-0.1-0.4-0.3-0.6c-0.2-0.3-0.4-0.5-0.7-0.6c-0.3-0.1-0.6-0.1-1-0.1c-0.1,0-0.3,0.1-0.4,0.2
		c0,0-0.1,0-0.1,0c-0.2,0.1-0.3,0.2-0.5,0.3c-0.3,0.2-0.6,0.8-0.6,1.1c-0.1,0.3-0.1,0.6-0.1,0.9c0,0.4,0.1,0.7,0.3,1
		c0.1,0.1,0.2,0.3,0.3,0.4c0.1,0,0.1,0.1,0.2,0.1c0.1,0.1,0.2,0.2,0.3,0.2c0.3,0.2,0.6,0.2,1,0.2c0.3,0,0.6-0.2,0.9-0.4
		c0.1-0.1,0.1-0.1,0.1-0.2c0,0,0.1-0.1,0.1-0.1c0.1-0.1,0.1-0.1,0.2-0.2c0.1-0.1,0.1-0.3,0.2-0.5c0-0.1,0-0.1,0-0.2
		C37.4,141.3,37.5,141,37.5,140.7z M62.1,144.6c0-0.3-0.1-0.7-0.2-1c-0.1-0.5-0.6-0.9-1.1-1.1c-0.5-0.1-1.2,0-1.5,0.4
		c-0.1,0.2-0.3,0.3-0.4,0.5c-0.1,0.2-0.2,0.4-0.3,0.6c-0.1,0.4-0.2,0.7-0.2,1.1c0,0.1,0,0.2,0,0.3c0,0.4,0.1,0.7,0.3,1.1
		c0.2,0.3,0.4,0.7,0.8,0.9c0.2,0.2,0.4,0.3,0.7,0.3c0.3,0,0.5-0.1,0.7-0.3c0.3-0.2,0.5-0.5,0.7-0.8c0.2-0.3,0.2-0.6,0.3-0.9
		c0-0.2,0.1-0.5,0.1-0.7C62.1,144.8,62.1,144.7,62.1,144.6z M88.2,146.8c-0.1-0.2-0.2-0.5-0.3-0.7c-0.1-0.2-0.2-0.3-0.3-0.4
		c-0.2-0.2-0.5-0.3-0.8-0.5c-0.5-0.2-1.2,0-1.5,0.4c-0.2,0.2-0.4,0.5-0.5,0.8c-0.1,0.1-0.1,0.3-0.2,0.4c0,0,0,0,0,0.1
		c-0.1,0.2-0.1,0.4,0,0.6c0,0,0,0,0,0c0,0.2,0,0.4,0.1,0.6c0,0,0,0.1,0.1,0.1c0,0.1,0.1,0.2,0.1,0.3c0,0,0,0,0,0c0,0,0,0,0,0
		c0,0.1,0,0.1,0.1,0.1c0.2,0.3,0.5,0.6,0.9,0.7c0.3,0.1,0.6,0.1,0.9,0c0,0,0.1,0,0.1,0c0.3-0.1,0.4-0.2,0.7-0.3
		c0.2-0.2,0.4-0.3,0.5-0.6c0,0,0.1-0.1,0.1-0.1c0.2-0.4,0.3-0.6,0.3-1C88.3,147.2,88.3,147,88.2,146.8z M16.9,162.2
		c0-0.1,0-0.3-0.1-0.4c0,0,0-0.1,0-0.1c-0.1-0.2-0.2-0.4-0.4-0.6c-0.2-0.2-0.4-0.3-0.6-0.3c-0.2-0.1-0.5-0.1-0.7,0
		c-0.3,0.1-0.5,0.2-0.7,0.4c-0.1,0-0.1,0.1-0.2,0.1c-0.1,0.1-0.1,0.1-0.2,0.2c-0.1,0.2-0.2,0.3-0.3,0.5c0,0,0,0.1,0,0.1
		c0,0.1,0,0.2,0,0.2c-0.1,0.3-0.1,0.6,0,0.9c0.1,0.4,0.4,0.7,0.7,0.9c0.1,0.1,0.2,0.1,0.3,0.1c0.1,0,0.3,0,0.4,0c0.1,0,0.1,0,0.2,0
		c0.2,0,0.4-0.1,0.6-0.2c0.3-0.2,0.5-0.4,0.6-0.7c0-0.1,0.1-0.1,0.1-0.2c0.1-0.1,0.2-0.3,0.2-0.5C16.9,162.6,16.9,162.4,16.9,162.2z
		 M38,175c0-0.3-0.1-0.5-0.2-0.7c-0.2-0.3-0.4-0.5-0.7-0.6c-0.3-0.1-0.5-0.1-0.8-0.1c-0.3,0-0.6,0.2-0.8,0.4
		c-0.2,0.2-0.4,0.3-0.6,0.5c-0.2,0.2-0.3,0.5-0.4,0.7c-0.1,0.2-0.2,0.4-0.2,0.6c0,0.2-0.1,0.5-0.1,0.7c0,0.4,0.1,0.9,0.3,1.2
		c0-0.1-0.1-0.2-0.1-0.3c0.1,0.3,0.2,0.6,0.4,0.8c0.2,0.3,0.5,0.4,0.8,0.3c0.2,0,0.4-0.1,0.6-0.2c0.3-0.1,0.7-0.3,0.9-0.6
		c0.3-0.3,0.5-0.7,0.7-1.2c0.1-0.2,0.1-0.4,0.2-0.6C38.1,175.7,38,175.4,38,175z M57.9,177.5c0-0.2,0-0.4-0.1-0.6
		c-0.1-0.2-0.1-0.3-0.2-0.5c0-0.1-0.3-0.4-0.3-0.4c0,0,0,0,0,0c-0.1-0.1-0.3-0.2-0.4-0.3c-0.2-0.1-0.3-0.1-0.5-0.2
		c-0.3-0.1-0.5-0.1-0.8,0c-0.2,0-0.3,0-0.5,0.1c-0.1,0-0.2,0.1-0.3,0.1c0,0,0,0,0,0c0,0,0,0,0,0c-0.1,0.1-0.2,0.2-0.4,0.3
		c0,0,0,0,0,0c0.1,0,0.1-0.1,0.2-0.1c-0.1,0.1-0.2,0.1-0.3,0.2c-0.3,0.3-0.4,0.6-0.5,0.9c0,0,0,0.1,0,0.1c-0.1,0.4-0.1,0.5,0,0.9
		c0,0.2,0,0.2,0.1,0.3c0,0,0,0.1,0,0.1c0,0.2,0,0.2,0.2,0.5c0.1,0.2,0.2,0.3,0.4,0.5c0,0,0,0,0,0c0.1,0.1,0.2,0.2,0.3,0.3
		c0,0,0,0,0,0l0,0c0.1,0,0.1,0.1,0.2,0.1c0.1,0.1,0.2,0.1,0.3,0.1c0.1,0,0.3,0,0.4,0c0,0,0.1,0,0.1,0c0,0,0.1,0,0.1,0
		c0.3,0,0.2,0,0.5-0.1c0.3-0.1,0.4-0.2,0.7-0.4c0,0,0,0,0,0c0,0,0-0.1,0.1-0.1c0.2-0.3,0.5-0.6,0.6-1c0-0.1,0.1-0.5,0.1-0.6
		C57.9,177.6,57.9,177.6,57.9,177.5C57.9,177.5,57.9,177.5,57.9,177.5z M81.2,181.4C81.2,181.4,81.2,181.4,81.2,181.4
		c0-0.2-0.1-0.3-0.1-0.3c0,0,0-0.1,0-0.1c0-0.1-0.1-0.1-0.1-0.2c0-0.1-0.1-0.3-0.2-0.4c-0.1-0.1-0.2-0.2-0.3-0.3
		c-0.1-0.1-0.1-0.1-0.2-0.1c-0.2-0.1-0.5-0.2-0.8-0.2c-0.3,0-0.6,0.1-0.8,0.2c-0.1,0.1-0.2,0.2-0.3,0.3c-0.2,0.2-0.3,0.4-0.4,0.7
		c0,0,0,0.1,0,0.1c0,0,0,0,0,0c-0.1,0.1-0.2,0.3-0.2,0.4c0,0,0,0.1,0,0.1c0,0,0,0.1,0,0.1c0,0.2-0.1,0.3-0.1,0.5
		c0,0.3,0.1,0.6,0.3,0.9c0.1,0.2,0.3,0.4,0.5,0.5c0.2,0.2,0.4,0.3,0.6,0.3c0.5,0.1,0.9,0.1,1.4-0.2c0.1-0.1,0.3-0.2,0.4-0.3
		c0.2-0.2,0.4-0.5,0.5-0.8c0,0,0-0.1,0-0.1c0,0,0-0.1,0-0.1c0,0,0,0,0,0c0-0.2,0-0.3,0.1-0.5C81.3,181.8,81.2,181.6,81.2,181.4z
		 M109.4,147.5c-0.1-0.3-0.2-0.5-0.3-0.7c-0.1-0.2-0.3-0.4-0.5-0.5c-0.2-0.1-0.5-0.2-0.7-0.2c-0.4,0.1-0.7,0.3-0.9,0.7
		c-0.1,0.2-0.2,0.4-0.3,0.7c-0.1,0.3-0.2,0.5-0.2,0.9c0,0.2,0,0.3,0,0.5c0,0.3,0.1,0.5,0.2,0.8c0.1,0.3,0.3,0.5,0.5,0.8
		c0.1,0.1,0.1,0.1,0.2,0.2c0,0,0.1,0.1,0.1,0.1c0,0.1,0.1,0.1,0.1,0.2c0.1,0.2,0.3,0.2,0.4,0.1c0.2-0.2,0.4-0.3,0.6-0.4
		c0.3-0.2,0.5-0.4,0.7-0.7c0.1-0.2,0.3-0.5,0.3-0.8c0-0.3,0.1-0.6,0.1-0.9C109.6,148,109.5,147.7,109.4,147.5z M98.7,184.7
		c0-0.1,0-0.3-0.1-0.4c0-0.1,0-0.1-0.1-0.2c-0.1-0.1-0.2-0.2-0.2-0.3c-0.1-0.1-0.2-0.2-0.3-0.2c0,0-0.3-0.1-0.4-0.1
		c-0.1,0-0.3-0.1-0.4-0.1c0,0,0,0,0,0c0,0,0,0,0,0c0,0,0,0,0,0c-0.1,0-0.2,0-0.3,0c0,0,0,0,0,0c-0.1,0-0.2,0.1-0.3,0.2c0,0,0,0,0,0
		c0,0,0,0,0,0c0,0,0,0,0,0c0,0,0,0-0.1,0c0,0,0,0-0.1,0c0,0,0,0,0,0c0,0-0.1,0.1-0.1,0.1c0,0,0,0,0,0c0,0,0,0,0,0c0,0,0,0,0,0
		c-0.1,0.1-0.2,0.3-0.3,0.5c0,0.1-0.1,0.2-0.1,0.3c0,0,0,0,0,0c0,0.1,0,0.3-0.1,0.4c0,0.2,0,0.4,0.1,0.6c0,0.1,0.1,0.2,0.2,0.3
		c0.1,0.2,0.2,0.3,0.4,0.4l0.3,0.1c0.3,0.1,0.5,0.1,0.8,0c0.1,0,0.2-0.1,0.4-0.1c0,0,0,0,0,0c0,0,0.3-0.2,0.3-0.2c0,0,0,0,0,0
		c0,0,0,0,0,0c0,0,0.2-0.3,0.2-0.3c0,0,0,0,0,0c0,0,0,0,0,0c0,0,0,0,0,0l0.1-0.3c0-0.1,0-0.2,0-0.3C98.8,184.9,98.8,185,98.7,184.7z
		 M113.8,111.8c0,0,0-0.1,0-0.1c0-0.1,0-0.1,0-0.2c0-0.2-0.1-0.3-0.2-0.5c-0.1-0.1-0.2-0.3-0.4-0.3c0,0,0,0-0.1,0c0,0-0.1,0-0.1-0.1
		c-0.1-0.1-0.2-0.1-0.3-0.1c-0.1,0-0.2,0-0.3,0c-0.1,0-0.2,0-0.3,0c-0.2,0.1-0.4,0.2-0.5,0.3c-0.2,0.1-0.2,0.2-0.3,0.4
		c-0.1,0.1-0.1,0.2-0.1,0.3c0,0.1,0,0.1,0,0.2c0,0,0,0,0,0.1c0,0.1,0,0.3,0.1,0.4c0,0.1,0,0.1,0.1,0.2c0,0.1,0.1,0.2,0.2,0.3
		c0.1,0.1,0.2,0.3,0.4,0.3c0.1,0.1,0.2,0.1,0.4,0.2c0,0,0,0,0.1,0c0.1,0,0.1,0,0.2,0c0.2,0.1,0.4,0.1,0.6,0c0.2-0.1,0.4-0.2,0.5-0.3
		C113.8,112.7,113.9,112.2,113.8,111.8z"/>
</g>
<g>
</g>
<g>
</g>
<g>
</g>
<g>
</g>
<g>
</g>
<g>
</g>
</svg>
