<?xml version="1.0" encoding="utf-8"?>
<!-- Generator: Adobe Illustrator 27.8.0, SVG Export Plug-In . SVG Version: 6.00 Build 0)  -->
<svg version="1.1" id="Watermelon_S" xmlns="http://www.w3.org/2000/svg" xmlns:xlink="http://www.w3.org/1999/xlink" x="0px" y="0px"
	 viewBox="0 0 128.4 119.1" style="enable-background:new 0 0 128.4 119.1;" xml:space="preserve">
<style type="text/css">
	.st0{fill:#CC4E4A;}
	.st1{fill:#A1BD3A;}
	.st2{fill:#C2D071;}
	.st3{fill:#728437;}
	.st4{fill:#262425;}
	.st5{fill:#FFFFFF;}

	#Watermelon_S:hover {
		transform: scale(0.8) rotate(-45deg)	}

</style>
    <script>
const watermelon = document.querySelector("#Watermelon_S");
function logID() {
console.log(this.id);
}

watermelon.addEventListener("click", logID);
</script>
<g id="Watermelon">
	<path id="Red" class="st0" d="M127.7,104.9c-0.4-3.5-0.8-7.1-1.2-10.6c-3.4-27.7-7.8-55.4-13.4-82.8c-0.7-3.4-1.4-6.8-2.1-10.2
		c-0.2-0.7-1.1-1.4-1.9-1.3c-3.3,0.5-6.6,1.2-9.7,2.2c-10.8,2.5-21.5,6.1-32.1,9.3c-13.7,4.1-27.4,8.3-41,12.6
		c-6.7,2.1-13.4,4.2-20.1,6.4c-2.5,0.8-5,2-5.8,4.7c-0.8,2.7,0.3,6.1,0.9,8.7c2.5,10.8,7.1,21,13.3,30.2
		c13.5,20.1,34.1,34.2,57.3,40.6c12.2,3.4,25.2,4.8,37.8,3.9c5.5-0.4,11.8-1.6,15.7-5.8C127.5,110.6,128,108,127.7,104.9z
		 M127.7,104.9c-0.4-3.5-0.8-7.1-1.2-10.6c-1.3-10.6-2.7-21.1-4.3-31.7c-1.7,4.5-3.8,8.7-7.1,12.2c-6.6,7.1-16.8,10-26.5,9.9
		c-23.2-0.2-45.2-17.6-50.7-40.2c-1.5-6-1.9-12.4-0.2-18.4c0.6-2.3,1.5-4.5,2.7-6.5c-4.7,1.5-9.3,2.9-14,4.4
		c-6.7,2.1-13.4,4.2-20.1,6.4c-2.5,0.8-5,2-5.8,4.7c-0.8,2.7,0.3,6.1,0.9,8.7c2.5,10.8,7.1,21,13.3,30.2
		c13.5,20.1,34.1,34.2,57.3,40.6c12.2,3.4,25.2,4.8,37.8,3.9c5.5-0.4,11.8-1.6,15.7-5.8C127.5,110.6,128,108,127.7,104.9z"/>
	<path id="Dark_green" class="st1" d="M73.6,101c-5.9-1.7-11.8-3.6-17.1-6.6c-8.2-4.6-14.8-11.5-21-18.6
		C23.7,62.3,12.5,46.9,10.2,29.2c-1.4,0.4-2.7,0.9-4.1,1.3c-2.5,0.8-5,2-5.8,4.7c-0.8,2.7,0.3,6.1,0.9,8.7
		c2.5,10.8,7.1,21,13.3,30.2c13.5,20.1,34.1,34.2,57.3,40.6c12.2,3.4,25.2,4.8,37.8,3.9c5.5-0.4,11.8-1.6,15.7-5.8
		c2.2-2.3,2.7-4.9,2.3-8c-0.1-1.2-0.3-2.4-0.4-3.5c-3.1,1.2-6.3,2.3-9.6,3.1C103.2,108.1,88,105.1,73.6,101z"/>
	<path id="light_green" class="st2" d="M128.4,103.7c-0.1-1.5-1.1-2.5-3.5-1.9c-1.6,0.5-2.7,1.8-4.3,2.3c-2.2,0.8-5,0.9-7.3,1.1
		c-4.8,0.5-9.6,0.6-14.4,0.3c-9.3-0.5-18.5-2.5-27.3-5.9c-8.6-3.3-17-8.1-24.2-14c-4.2-3.5-8.2-7.4-12-11.3
		c-3.7-3.8-7.1-7.8-9.9-12.3c-3-4.7-5.3-9.8-7.3-15c-2-5.4-3.8-11-6.1-16.3c-0.6-1.4-2.8-0.6-2.8,0.8c-0.1,10.9,4.2,21.9,9.5,31.2
		c2.8,4.9,6.2,9.4,10,13.6c3.9,4.3,8.1,8.5,12.5,12.3c15.7,13.7,35.7,21.9,56.5,23.5c5.6,0.4,11.3,0.4,16.9-0.2
		c3.5-0.4,7.5-0.4,10.7-2.1C127,109,128.6,105.8,128.4,103.7z M125.9,101.9c-1.2,0.1-2.3,0.4-3.5,0.8c-1.2,0.4-2.4,0.8-3.6,1.1
		c-2.3,0.6-4.6,1-7,1.2c-4.9,0.4-9.9,0.2-14.8-0.5c-5.2-0.8-10.3-2-15.3-3.4c-4.8-1.3-9.7-2.6-14.4-4.2c-4.7-1.7-8.6-4.3-12.6-7.4
		c-3.6-2.8-7.2-5.6-10.7-8.5c-6.9-5.8-13.5-12.2-18.5-19.7c-3-4.5-5.3-9.3-7.3-14.3c-2.1-5.2-3.5-10.7-5.4-15.9
		c-0.3-1-1.7-0.6-1.5,0.4c0.9,5,2.3,10.1,3.8,15c1.5,4.8,3.5,9.4,6,13.8c4.7,8.1,11.3,15,18.3,21.2c3.6,3.1,7.3,6.1,11,9.1
		c3.9,3.1,7.7,6.4,12.3,8.5c4.6,2.1,9.5,3.5,14.4,4.9c5.3,1.5,10.5,3,15.9,4c5.8,1.1,11.7,1.6,17.5,1.3c2.8-0.2,5.6-0.6,8.3-1.2
		c1.4-0.3,2.7-0.7,4.1-1.2c1.5-0.5,2.7-1.1,3.9-2.2C127.9,103.7,127.2,101.7,125.9,101.9z"/>
	<path id="Green_Peel_Spots" class="st3" d="M9.5,42.6c0.2-1-0.7-1.6-1.6-1.2C7,41.8,6.4,43,6.2,43.9C6,45,6.1,46.1,6.4,47.2
		c0.1,0.4,0.2,0.8,0.1,1.3c0,0.2-0.2,0.8-0.3,0.9c-0.2,0.5-0.5,0.9-0.7,1.4c-0.1,0.3-0.2,0.5-0.2,0.8c0,0.2-0.1,0.4,0,0.6
		c0,0,0.1,0.3,0.1,0.3c0.1,0.6,0.6,1.1,1.2,0.9c-0.1,0,0,0,0,0c0.2,0,0.5-0.1,0.7-0.2c0.2-0.1,0.5-0.3,0.7-0.5
		c0.5-0.4,0.7-1.1,0.9-1.7c0.4-1,0.7-2,0.6-3.1c-0.1-1-0.6-2-0.6-3c0-0.4,0-0.7,0.2-1.1C9.1,43.4,9.4,43.1,9.5,42.6z M11.5,56.9
		C11.5,56.9,11.5,56.8,11.5,56.9c0-0.1-0.1-0.2-0.1-0.3c0-0.1-0.1-0.2-0.1-0.2c-0.1-0.2-0.3-0.3-0.5-0.4c-0.1-0.1-0.2-0.1-0.3-0.2
		c-0.4-0.3-0.9-0.2-1.3-0.1c-0.5,0.1-0.8,0.9-0.5,1.3c0.3,0.4,0.5,0.8,1,0.9c0.1,0,0.2,0,0.3,0.1c0.2,0,0.4,0.1,0.7,0
		c0.1,0,0.2-0.1,0.2-0.1c0.1,0,0.2-0.1,0.3-0.1c0,0,0,0,0,0C11.5,57.6,11.6,57.2,11.5,56.9z M28.8,81.7c0-0.2,0-0.4-0.1-0.6
		c0-0.2-0.1-0.4-0.2-0.6c-0.1-0.1-0.1-0.3-0.2-0.4c-0.2-0.3-0.4-0.6-0.7-0.7c-0.2-0.1-0.4-0.2-0.6-0.2c-0.4-0.1-0.7,0.1-1.1,0.3
		c-0.4,0.3-0.5,0.9-0.6,1.4c-0.1,0.4-0.1,0.9-0.1,1.3c0,0.2-0.1,0.5-0.1,0.7c0,0.2,0,0.5,0.1,0.7c0,0.2,0.1,0.3,0.2,0.4
		c0.1,0.3,0.2,0.5,0.4,0.7c0.3,0.3,0.8,0.5,1.3,0.3c0.2-0.1,0.4-0.1,0.5-0.2c0.2-0.1,0.3-0.3,0.5-0.4C28.8,83.8,28.9,82.6,28.8,81.7
		z M34.2,86.8C34.2,86.8,34.2,86.8,34.2,86.8C34.2,86.8,34.2,86.8,34.2,86.8c0-0.1,0-0.1-0.1-0.2c0,0,0,0,0,0c0-0.1-0.1-0.2-0.1-0.3
		c0-0.1-0.1-0.1-0.1-0.2c-0.1-0.1-0.2-0.3-0.3-0.3c-0.1-0.1-0.3-0.1-0.5-0.1c-0.2,0-0.3,0-0.5,0.1c-0.1,0.1-0.3,0.2-0.3,0.3
		l-0.1,0.2c0,0.1,0,0.1-0.1,0.2c0,0.1-0.1,0.1-0.1,0.2c0,0,0,0.1,0,0.1c-0.1,0.2-0.1,0.3-0.1,0.5l0,0.2c0,0.2,0,0.3,0.1,0.5
		c0,0.1,0.1,0.3,0.2,0.4c0.1,0.1,0.2,0.2,0.4,0.2c0.1,0.1,0.3,0.1,0.5,0.1c0.1,0,0.2,0,0.3,0c0.2-0.1,0.4-0.2,0.5-0.3
		c0.1-0.1,0.1-0.2,0.2-0.2c0.1-0.2,0.2-0.4,0.2-0.6c0-0.1,0-0.1,0-0.2c0,0,0-0.1,0-0.1C34.2,87,34.2,86.9,34.2,86.8z M55.5,100.6
		c-0.5-0.3-1-0.3-1.5-0.4c0.2,0,0.2,0,0,0c-0.2-0.1-0.4-0.1-0.6-0.1c0,0,0,0,0,0c-0.1,0-0.2,0-0.3-0.1c-0.9-0.2-1.8-0.5-2.7-0.7
		c-1.2-0.2-2.4-0.1-3.7,0.1c-0.5,0.1-1.1,0.2-1.6,0.4c-0.6,0.2-1.3,0.4-1.6,1.1c-0.2,0.4-0.2,1.1,0.2,1.4c0.3,0.3,0.6,0.4,1,0.5
		c0.3,0,0.5,0,0.8,0c0.6,0,1.2-0.2,1.7-0.2c1.1-0.1,2-0.1,3,0.3c0.9,0.3,1.7,0.7,2.6,0.9c1.2,0.2,3.1-0.2,3.3-1.6
		C56.2,101.5,56,100.9,55.5,100.6z M60,105.5c-0.1-0.1-0.2-0.2-0.4-0.2c-0.1-0.1-0.2-0.1-0.4-0.2c-0.2,0-0.3-0.1-0.5,0c0,0,0,0,0,0
		c-0.1,0-0.2,0-0.3,0c-0.2,0-0.4,0.1-0.6,0.1c0.1,0,0.2,0,0.3,0c-0.2,0-0.3,0-0.5,0.1c0,0-0.1,0-0.1,0c0,0,0,0,0,0
		c-0.2,0-0.4,0.1-0.5,0.2c-0.1,0-0.2,0.1-0.1,0.1c0,0,0,0,0,0c-0.1,0.2-0.1,0.6,0,0.8c0.1,0.2,0.3,0.4,0.4,0.5
		c0.2,0.2,0.5,0.4,0.9,0.5c0.3,0.1,0.7,0,1.1-0.1c0.4-0.1,0.9-0.6,0.9-1c0,0,0-0.1,0.1-0.1C60.2,105.9,60.2,105.7,60,105.5z
		 M45,95.7c0-0.1,0-0.1,0-0.2c0-0.1-0.1-0.1-0.1-0.2c0-0.1,0-0.1-0.1-0.1c0-0.1-0.1-0.1-0.1-0.2c0,0,0,0,0,0
		c-0.1-0.1-0.2-0.2-0.4-0.2c0,0,0,0-0.1,0c-0.2-0.1-0.3-0.1-0.5-0.1c-0.2,0-0.5,0.1-0.7,0.2c-0.1,0.1-0.2,0.2-0.4,0.3
		c-0.1,0.1-0.2,0.2-0.3,0.3c-0.1,0.2-0.2,0.4-0.3,0.6c0,0,0,0.1,0,0.2c0,0.2-0.1,0.4-0.1,0.6l0,0.3c0,0.1,0.1,0.2,0.1,0.3
		c0.1,0.1,0.1,0.2,0.2,0.2c0.1,0.1,0.2,0.2,0.4,0.3c0.1,0.1,0.2,0.1,0.3,0.1c0.1,0,0.2,0,0.3,0c0.1,0,0.2,0,0.3-0.1
		c0.2,0,0.3-0.1,0.4-0.3c0.1-0.1,0.2-0.2,0.3-0.4c0.1-0.1,0.2-0.2,0.2-0.3c0,0,0,0,0,0c0-0.1,0.1-0.2,0.1-0.3c0,0,0-0.1,0-0.1
		c0-0.1,0.1-0.2,0.1-0.2c0,0,0,0,0,0C45,96,45,95.9,45,95.7z M92.3,115.2c0-0.1,0-0.2-0.1-0.4c0-0.2-0.1-0.3-0.3-0.5
		c-0.2-0.2-0.4-0.4-0.7-0.5c-0.2,0-0.4-0.1-0.5-0.1c-0.3,0-0.6,0.1-0.9,0.2c-0.1,0.1-0.3,0.2-0.4,0.3c-0.1,0.1-0.3,0.3-0.4,0.4
		c-0.1,0.1-0.1,0.1-0.2,0.2c-0.1,0.1-0.1,0.1-0.2,0.2c-0.1,0.2-0.2,0.3-0.3,0.5c0,0,0,0,0,0.1c-0.1,0.3-0.1,0.5-0.1,0.8
		c0,0.3,0.1,0.5,0.3,0.7c0.1,0.2,0.4,0.4,0.6,0.4c0.1,0,0.1,0,0.2,0c0.1,0.1,0.3,0.1,0.4,0c0.1,0,0.3,0,0.4-0.1c0,0,0.1,0,0.1,0
		s0.1,0,0.1,0c0.3-0.1,0.5-0.2,0.8-0.4c0.1-0.1,0.2-0.1,0.2-0.2c0.1-0.1,0.3-0.3,0.4-0.4c0.3-0.2,0.5-0.5,0.5-0.8
		C92.4,115.6,92.4,115.4,92.3,115.2z M97.2,118.7C97.2,118.7,97.2,118.7,97.2,118.7C97.2,118.7,97.2,118.7,97.2,118.7z M107,115.6
		c-0.1-0.3-0.4-0.3-0.6-0.4c-0.1-0.1-0.2-0.1-0.3-0.2c-0.2-0.1-0.5-0.2-0.8-0.3c-0.9-0.2-2-0.1-3-0.1c-0.8,0-1.6,0-2.4,0.1
		c-2,0.2-4.4,0.8-5,3c-0.2,0.8,0.6,1.8,1.4,1.4c0.1-0.1,0.3-0.1,0.4-0.1c0.1,0,0.5-0.2,0.5-0.2c0.2-0.1,0.5-0.2,0.7-0.3
		c0,0,0.1,0,0.1-0.1c0,0,0.2-0.1,0.2-0.1c0.4-0.1,0.7-0.2,1.1-0.3c0,0,0,0,0,0c0.1,0,0.2,0,0.2,0c0.2,0,0.4,0,0.6,0
		c0.8,0,1.7,0,2.5,0.1c1,0,2.3,0,3.1-0.5c0.4-0.3,0.7-0.6,0.9-1.1C106.9,116.2,107.1,115.9,107,115.6z M113.5,114.7
		c-0.1-0.1-0.2-0.1-0.2-0.2c-0.2-0.1-0.4-0.2-0.6-0.2c-0.1,0-0.1,0-0.2,0c-0.1,0-0.2,0-0.3,0.1c-0.1,0-0.1,0.1-0.2,0.1
		c0,0-0.1,0.1-0.1,0.1c-0.1,0.1-0.2,0.1-0.3,0.2c-0.1,0.1-0.2,0.1-0.2,0.2c-0.1,0.1-0.2,0.1-0.4,0.3c0,0-0.1,0.1-0.1,0.1
		c-0.1,0.1-0.2,0.2-0.2,0.3c-0.2,0.2-0.3,0.4-0.2,0.7c0,0.1,0,0.2,0.1,0.3c0.1,0.1,0.2,0.2,0.3,0.3c0.2,0.1,0.4,0.2,0.6,0.3
		c0.3,0.1,0.7,0.1,1,0c0.3-0.1,0.6-0.2,0.8-0.4c0.4-0.3,0.7-0.7,0.7-1.2C113.9,115.3,113.8,114.9,113.5,114.7z M83.7,114.3
		c0-0.1,0-0.1,0-0.2c0,0,0-0.1,0-0.1c0,0,0,0,0,0c0-0.1,0-0.1-0.1-0.2c0-0.1-0.1-0.2-0.2-0.3l0.1,0.1c-0.1-0.2-0.2-0.3-0.3-0.5
		c-0.1-0.1-0.1-0.1-0.2-0.2c-0.1-0.2-0.3-0.3-0.5-0.4c0,0-0.1,0-0.1-0.1c-0.1,0-0.1-0.1-0.2-0.1c-0.2-0.1-0.4-0.1-0.6-0.1
		c-0.1,0-0.3,0-0.4,0.1c0,0,0,0,0,0c0,0-0.1,0-0.1,0c-0.1,0-0.3,0.1-0.3,0.1c-0.2,0.1-0.3,0.3-0.5,0.5c0,0,0,0,0,0c0,0,0,0,0,0
		c0,0.1-0.1,0.2-0.1,0.2c-0.1,0.1-0.1,0.2-0.1,0.4c0,0.2,0,0.4,0,0.6c0.1,0.3,0.3,0.6,0.5,0.8c0,0,0,0.1,0.1,0.1
		c0.1,0.1,0.2,0.2,0.4,0.3c0.1,0.1,0.3,0.1,0.4,0.2c0.1,0,0.3,0.1,0.4,0.1c0.2,0,0.4,0,0.7,0c0,0,0.1,0,0.1,0c0,0,0.1,0,0.1,0
		c0.1,0,0.2-0.1,0.3-0.1c0.1-0.1,0.2-0.1,0.3-0.2c0.1-0.1,0.2-0.3,0.3-0.4c0,0,0,0,0-0.1C83.7,114.7,83.8,114.5,83.7,114.3z
		 M122.5,113.3c-0.1-0.1-0.2-0.1-0.3-0.2c-0.1,0-0.2,0-0.3,0c0,0-0.1,0-0.1,0c-0.2,0-0.5,0-0.8,0.1c-0.1,0-0.2,0-0.3,0.1
		c-0.2,0-0.3,0.1-0.5,0.2c-0.1,0-0.2,0.1-0.2,0.1c-0.1,0.1-0.2,0.1-0.3,0.2c-0.2,0.2-0.3,0.5-0.4,0.9c0,0.1,0,0.3,0,0.4
		c0.1,0.2,0.2,0.4,0.3,0.5c0.1,0.1,0.2,0.2,0.3,0.2c0.1,0.1,0.2,0.1,0.4,0.1c0.1,0,0.3-0.1,0.4-0.1c0,0,0,0,0.1,0
		c0.2,0,0.4-0.2,0.6-0.3c0,0,0.1-0.1,0.1-0.1c0.2-0.2,0.3-0.3,0.4-0.5c0.1-0.1,0.1-0.2,0.2-0.4c0.1-0.2,0.2-0.4,0.2-0.6
		c0,0,0-0.1,0.1-0.1c0-0.1,0.1-0.1,0.1-0.2C122.6,113.6,122.5,113.4,122.5,113.3z M18.5,67.9c0-0.1,0-0.2,0-0.4
		c0-0.1-0.1-0.2-0.1-0.3c-0.2-0.3-0.4-0.4-0.8-0.5c-0.1,0-0.2,0-0.2-0.1c-0.5-0.1-1,0.2-1,0.7c0,0,0,0,0,0c0,0-0.1,0.1-0.1,0.1
		c-0.1,0.2-0.1,0.4-0.2,0.5c0,0,0,0,0,0c-0.1,0.1-0.1,0.3-0.2,0.4c0,0,0,0,0,0c-0.2-0.1-0.4,0-0.4,0.2c0,0.1,0,0.2,0,0.3
		c0,0.1,0.1,0.1,0.1,0.2c0,0,0,0,0,0c0,0,0,0,0,0c0.1,0.1,0,0.1,0,0c0,0,0,0,0,0c0.1,0.1,0.1,0.2,0.2,0.3c0.2,0.1,0.3,0.2,0.5,0.3
		c0.1,0,0.3,0.1,0.5,0c0.4,0,0.8-0.1,1-0.4c0.1-0.1,0.2-0.2,0.3-0.4c0-0.1,0.1-0.1,0.1-0.2c0.1-0.3,0.3-0.6,0.3-0.9
		C18.5,68.1,18.5,68,18.5,67.9z M6.7,36.7C6.7,36.7,6.7,36.7,6.7,36.7c0-0.2,0-0.2,0-0.1c0,0,0,0,0,0c0,0,0,0,0,0
		c0-0.1,0-0.3-0.1-0.4c-0.1-0.2-0.4-0.2-0.5-0.1c0,0,0,0.1-0.1,0.1c0-0.1,0,0,0,0c0,0,0,0-0.1,0.1c0,0,0,0,0,0c0,0,0,0,0,0
		c-0.1,0-0.1,0.1-0.2,0.1c0,0-0.1,0-0.1,0c-0.2,0.1-0.4,0.1-0.6,0.2c-0.1,0.1-0.3,0.2-0.4,0.2l0.2-0.1c-0.2,0.1-0.4,0.2-0.6,0.3
		c-0.1,0.1-0.2,0.2-0.2,0.3c0,0,0,0.1-0.1,0.1C4,37.6,4,37.7,4,37.7c0,0,0,0-0.1,0c-0.2,0-0.2,0.3-0.1,0.4c0,0,0.1,0,0.1,0.1
		c0.1,0.1,0.2,0.3,0.3,0.4c0,0,0.1,0,0.1,0.1c0.1,0,0.2,0.1,0.3,0.1c0.2,0.1,0.5,0.1,0.7,0c0.2-0.1,0.4-0.2,0.5-0.3
		c0.3-0.2,0.6-0.4,0.7-0.8c0.1-0.3,0.1-0.5,0.1-0.8C6.7,36.8,6.7,36.8,6.7,36.7z"/>
	<path id="Black_Seeds" class="st4" d="M96.1,20c-0.2,0-0.4,0-0.6,0.1c-0.4,0.1-0.8,0.3-1.1,0.5c-0.6,0.3-1.2,0.7-1.8,1.1
		c-1.2,0.9-2.4,2.1-2.5,3.7c-0.1,1.6,1,3,2.7,3c1.6,0.1,2.8-1.1,3.6-2.5c0.9-1.6,1.3-3.4,1.3-5.2C97.7,20,96.7,19.5,96.1,20z
		 M103.2,40.6c-0.2,0.1-0.4,0.1-0.5,0.3c-0.3,0.3-0.6,0.5-0.9,0.8c-0.5,0.5-0.9,1-1.3,1.6c-0.8,1.3-1.5,2.8-1.1,4.4
		c0.4,1.5,2,2.5,3.5,2c1.5-0.5,2.3-2,2.5-3.5c0.3-1.8,0.1-3.7-0.5-5.4C104.7,40.1,103.6,39.9,103.2,40.6z M108.5,85.5
		c-0.2,0.1-0.3,0.2-0.4,0.4c-0.2,0.3-0.4,0.7-0.6,1c-0.3,0.6-0.6,1.3-0.8,1.9c-0.4,1.5-0.6,3.1,0.3,4.5c0.9,1.3,2.6,1.8,3.9,0.8
		c1.3-0.9,1.6-2.6,1.4-4.1c-0.2-1.8-1-3.5-2.1-5C109.8,84.6,108.6,84.7,108.5,85.5z M79,45.2c-0.2,0-0.4,0-0.6,0
		c-0.4,0.1-0.8,0.2-1.1,0.4c-0.7,0.3-1.3,0.6-1.9,1c-1.3,0.8-2.5,2-2.7,3.6c-0.2,1.6,0.8,3,2.5,3.2c1.6,0.2,2.9-1,3.7-2.2
		c1-1.5,1.6-3.3,1.7-5.1C80.5,45.3,79.6,44.7,79,45.2z M75.9,73c-0.2,0-0.4,0-0.6,0.1c-0.4,0.1-0.8,0.3-1.1,0.4
		c-0.6,0.3-1.3,0.6-1.8,1c-1.3,0.9-2.5,2-2.6,3.6c-0.2,1.6,0.9,3,2.5,3.1c1.6,0.1,2.9-1,3.7-2.3c1-1.5,1.5-3.3,1.5-5.2
		C77.4,73,76.5,72.5,75.9,73z M99.1,62.5c-0.2,0.1-0.3,0.2-0.5,0.4c-0.3,0.3-0.5,0.6-0.8,0.9c-0.4,0.6-0.8,1.2-1,1.8
		c-0.6,1.4-1.1,3-0.4,4.5c0.7,1.4,2.4,2.1,3.8,1.4c1.4-0.7,1.9-2.4,1.9-3.9c0-1.8-0.5-3.6-1.4-5.2C100.4,61.8,99.3,61.8,99.1,62.5z
		 M33.4,33.4c-0.2-0.1-0.4-0.1-0.6-0.1c-0.4,0-0.8,0-1.2,0.1c-0.7,0.1-1.4,0.2-2,0.5c-1.5,0.5-2.9,1.3-3.5,2.8
		c-0.6,1.5,0.1,3.2,1.6,3.7c1.5,0.6,3-0.2,4.2-1.2c1.3-1.2,2.3-2.8,2.9-4.5C34.9,33.9,34.2,33.1,33.4,33.4z M50.6,49.1
		C50.4,49,50.2,49,50,49c-0.4,0-0.8,0.1-1.2,0.2c-0.7,0.1-1.4,0.4-2,0.6c-1.4,0.6-2.8,1.5-3.3,3c-0.5,1.5,0.3,3.1,1.8,3.6
		c1.5,0.4,3-0.4,4-1.5c1.2-1.3,2.1-3,2.5-4.7C52.1,49.5,51.3,48.7,50.6,49.1z M72.2,22.1C72,22,71.8,22,71.6,21.9
		c-0.4-0.1-0.8-0.1-1.2-0.1c-0.7,0-1.4,0-2.1,0.1c-1.5,0.2-3.1,0.7-4,2.1c-0.9,1.3-0.5,3.1,0.9,3.9c1.4,0.8,3,0.3,4.3-0.5
		c1.5-1,2.8-2.4,3.7-4C73.5,22.9,72.9,21.9,72.2,22.1z"/>
	<path id="White_Dots" class="st5" d="M95.2,8.2c-0.3-1-1.2-1.6-2.2-1.6c-0.3,0-0.6,0.1-0.9,0.2c-0.4,0.1-0.8,0.3-1.2,0.5
		c-0.3,0.1-0.5,0.2-0.7,0.5c-0.1,0.1-0.1,0.1-0.2,0.2c-0.2,0.2-0.4,0.3-0.5,0.6c-0.2,0.3-0.3,0.6-0.3,1c0,0.4,0.1,0.5,0.2,0.9
		c0.1,0.2,0.2,0.3,0.3,0.5c0.2,0.3,0.6,0.4,0.9,0.5c0.1,0,0.2,0.1,0.3,0.1c0.1,0,0.1,0,0.2,0c0,0,0.1,0,0.1,0c0.2,0,0.4,0.1,0.6,0.1
		c0.3,0,0.6-0.1,0.9-0.1c0.4-0.1,0.8-0.2,1.2-0.4c0.3-0.1,0.5-0.3,0.7-0.5c0.4-0.4,0.6-1,0.7-1.6C95.2,8.6,95.2,8.4,95.2,8.2z
		 M100.1,10.5c0-0.1,0-0.3-0.1-0.4c-0.1-0.5-0.5-0.9-0.9-1.1c0-0.1-0.1-0.1-0.1-0.2c-0.1-0.1-0.3-0.1-0.5,0c-0.1,0-0.2,0-0.2,0
		c-0.1,0-0.1,0-0.2,0c-0.3,0-0.5,0.1-0.7,0.2C97.2,9,97,9.1,96.9,9.2c-0.1,0-0.1,0.1-0.2,0.1c-0.3,0.1-0.5,0.3-0.7,0.6
		c0,0.1-0.1,0.1-0.1,0.1c-0.1,0.1-0.2,0.2-0.3,0.3c-0.1,0.1-0.2,0.3-0.3,0.4c-0.1,0.1-0.1,0.3-0.2,0.4c-0.1,0.2-0.1,0.4,0,0.6
		c0.1,0.5,0.3,0.9,0.8,1.2c0.4,0.2,0.8,0.4,1.3,0.4c0.3,0,0.7-0.1,1-0.1c0.1,0,0.2-0.1,0.4-0.1c0.3-0.1,0.5-0.3,0.7-0.5
		c0.1-0.1,0.1-0.1,0.2-0.2c0.2-0.2,0.3-0.4,0.4-0.6C100,11.5,100.2,11,100.1,10.5z M103.9,6.2c0.1-0.2,0.1-0.5,0-0.7
		c0-0.3-0.2-0.6-0.4-0.8c0.1,0.1,0.1,0.1,0.2,0.2c-0.1-0.1-0.1-0.2-0.2-0.3c0,0,0,0,0,0c0,0,0,0,0,0c-0.1-0.2-0.3-0.3-0.5-0.4
		c-0.3-0.2-0.7-0.3-1-0.3c-0.2,0-0.4,0-0.6,0.1c-0.3,0-0.5,0.1-0.8,0.3c0,0-0.1,0.1-0.1,0.1c-0.4,0.2-0.7,0.5-0.9,0.9
		c0,0.1-0.1,0.2-0.1,0.3c-0.1,0.2-0.1,0.4,0,0.6c0,0.3,0.1,0.5,0.3,0.7c0.3,0.4,0.7,0.7,1.2,0.8c0.1,0,0.1,0,0.2,0
		c0.3,0.1,0.6,0.1,0.9,0c0.2,0,0.4,0,0.6-0.1c0.3-0.1,0.7-0.3,0.9-0.5c0.2-0.2,0.3-0.3,0.4-0.5l0,0l0.1-0.1c0,0,0,0,0,0
		C103.8,6.4,103.9,6.3,103.9,6.2z M106.9,11c0-0.2-0.1-0.4-0.2-0.6c-0.2-0.3-0.5-0.6-0.9-0.7c-0.1,0-0.3,0-0.4-0.1
		c-0.2,0-0.3,0-0.4,0.1c-0.2,0.1-0.4,0.1-0.7,0.2c-0.1,0-0.1,0.1-0.2,0.1c-0.1,0-0.2,0.1-0.3,0.2c-0.1,0.1-0.2,0.1-0.2,0.2
		c0,0,0,0,0,0c0,0,0,0-0.1,0.1c-0.2,0.2-0.3,0.5-0.3,0.7c0,0.1,0,0.3,0.1,0.4c0.1,0.4,0.3,0.7,0.7,0.9c0.1,0.1,0.3,0.1,0.5,0.2
		c0.1,0,0.1,0,0.2,0c0.2,0,0.3,0.1,0.5,0.1c0,0,0,0,0,0c0.1,0,0.3,0,0.4-0.1c0.1,0,0.3-0.1,0.4-0.2c0,0,0.1,0,0.1,0
		c0.1,0,0.1-0.1,0.2-0.1c0.2-0.1,0.3-0.2,0.4-0.4c0.1-0.1,0.2-0.3,0.3-0.5C106.9,11.4,106.9,11.2,106.9,11z M110.4,6.1
		c0-0.1,0-0.2-0.1-0.3c-0.1-0.2-0.1-0.3-0.3-0.4c-0.1-0.1-0.2-0.1-0.3-0.2c-0.2-0.1-0.4-0.2-0.7-0.2c0,0,0,0,0,0c-0.1,0-0.1,0-0.2,0
		c-0.2,0-0.4,0-0.5,0.1c-0.1,0-0.2,0.1-0.3,0.2c-0.1,0.1-0.3,0.2-0.3,0.4c0.1-0.1,0.1-0.2,0.2-0.2c0,0,0,0-0.1,0.1
		c-0.1,0.1-0.2,0.3-0.3,0.5c-0.1,0.2-0.1,0.4,0,0.6c0,0,0,0.1,0,0.1c0,0,0,0,0,0c0,0,0,0,0,0c0,0,0,0,0,0c0,0.1,0.1,0.2,0.1,0.3
		c0,0,0-0.1-0.1-0.1c0,0,0,0.1,0.1,0.1c0.1,0.2,0.2,0.3,0.3,0.4c0.1,0.1,0.2,0.1,0.3,0.2c0.2,0.1,0.3,0.1,0.5,0.1
		c0.2,0,0.4,0,0.6-0.1c0.2,0,0.3-0.1,0.4-0.2c0.1-0.1,0.3-0.2,0.3-0.4c0-0.1,0.1-0.2,0.1-0.3C110.4,6.4,110.4,6.2,110.4,6.1z"/>
</g>
<g>
</g>
<g>
</g>
<g>
</g>
<g>
</g>
<g>
</g>
<g>
</g>
</svg>
